<?xml version="1.0" encoding="utf-8"?>
<COLLADA xmlns="http://www.collada.org/2005/11/COLLADASchema" version="1.4.1" xmlns:xsi="http://www.w3.org/2001/XMLSchema-instance">
  <asset>
    <contributor>
      <author>Blender User</author>
      <authoring_tool>Blender 4.2.21 LTS commit date:2026-05-18, commit time:13:31, hash:62e63fd49c8c</authoring_tool>
    </contributor>
    <created>2026-07-22T00:26:53</created>
    <modified>2026-07-22T00:26:53</modified>
    <unit name="meter" meter="1"/>
    <up_axis>Z_UP</up_axis>
  </asset>
  <library_effects>
    <effect id="Mat_WheelHub-effect">
      <profile_COMMON>
        <technique sid="common">
          <lambert>
            <emission>
              <color sid="emission">0 0 0 1</color>
            </emission>
            <diffuse>
              <color sid="diffuse">0.8 0.8 0.8 1</color>
            </diffuse>
            <index_of_refraction>
              <float sid="ior">1.5</float>
            </index_of_refraction>
          </lambert>
        </technique>
      </profile_COMMON>
    </effect>
    <effect id="Mat_Roller-effect">
      <profile_COMMON>
        <technique sid="common">
          <lambert>
            <emission>
              <color sid="emission">0 0 0 1</color>
            </emission>
            <diffuse>
              <color sid="diffuse">0.8 0.8 0.8 1</color>
            </diffuse>
            <index_of_refraction>
              <float sid="ior">1.5</float>
            </index_of_refraction>
          </lambert>
        </technique>
      </profile_COMMON>
    </effect>
  </library_effects>
  <library_images/>
  <library_materials>
    <material id="Mat_WheelHub-material" name="Mat_WheelHub">
      <instance_effect url="#Mat_WheelHub-effect"/>
    </material>
    <material id="Mat_Roller-material" name="Mat_Roller">
      <instance_effect url="#Mat_Roller-effect"/>
    </material>
  </library_materials>
  <library_geometries>
    <geometry id="Mesh_wheel_right_001-mesh" name="Mesh_wheel_right.001">
      <mesh>
        <source id="Mesh_wheel_right_001-mesh-positions">
          <float_array id="Mesh_wheel_right_001-mesh-positions-array" count="1200">0 0.007654964 0.01553398 0 -0.007654964 0.01553398 0.004020452 0.007654964 0.01500463 0.004020452 -0.007654964 0.01500463 0.007766962 0.007654964 0.01345276 0.007766962 -0.007654964 0.01345276 0.01098418 0.007654964 0.01098418 0.01098418 -0.007654964 0.01098418 0.01345276 0.007654964 0.007766962 0.01345276 -0.007654964 0.007766962 0.01500463 0.007654964 0.004020452 0.01500463 -0.007654964 0.004020452 0.01553398 0.007654964 0 0.01553398 -0.007654964 0 0.01500463 0.007654964 -0.004020452 0.01500463 -0.007654964 -0.004020452 0.01345276 0.007654964 -0.007766962 0.01345276 -0.007654964 -0.007766962 0.01098418 0.007654964 -0.01098418 0.01098418 -0.007654964 -0.01098418 0.007766962 0.007654964 -0.01345276 0.007766962 -0.007654964 -0.01345276 0.004020452 0.007654964 -0.01500463 0.004020452 -0.007654964 -0.01500463 0 0.007654964 -0.01553398 0 -0.007654964 -0.01553398 -0.004020452 0.007654964 -0.01500463 -0.004020452 -0.007654964 -0.01500463 -0.007766962 0.007654964 -0.01345276 -0.007766962 -0.007654964 -0.01345276 -0.01098418 0.007654964 -0.01098418 -0.01098418 -0.007654964 -0.01098418 -0.01345276 0.007654964 -0.007766962 -0.01345276 -0.007654964 -0.007766962 -0.01500463 0.007654964 -0.004020452 -0.01500463 -0.007654964 -0.004020452 -0.01553398 0.007654964 0 -0.01553398 -0.007654964 0 -0.01500463 0.007654964 0.004020452 -0.01500463 -0.007654964 0.004020452 -0.01345276 0.007654964 0.007766962 -0.01345276 -0.007654964 0.007766962 -0.01098418 0.007654964 0.01098418 -0.01098418 -0.007654964 0.01098418 -0.007766962 0.007654964 0.01345276 -0.007766962 -0.007654964 0.01345276 -0.004020452 0.007654964 0.01500463 -0.004020452 -0.007654964 0.01500463 0 0.01530998 0.02854365 0 0.01280999 0.02854365 0.007387638 0.01530998 0.02757108 0.007387638 0.01280999 0.02757108 0.01427179 0.01530998 0.02471953 0.01427179 0.01280999 0.02471953 0.02018338 0.01530998 0.02018338 0.02018338 0.01280999 0.02018338 0.02471953 0.01530998 0.01427179 0.02471953 0.01280999 0.01427179 0.02757108 0.01530998 0.007387638 0.02757108 0.01280999 0.007387638 0.02854365 0.01530998 0 0.02854365 0.01280999 0 0.02757108 0.01530998 -0.007387638 0.02757108 0.01280999 -0.007387638 0.02471953 0.01530998 -0.01427179 0.02471953 0.01280999 -0.01427179 0.02018338 0.01530998 -0.02018338 0.02018338 0.01280999 -0.02018338 0.01427179 0.01530998 -0.02471953 0.01427179 0.01280999 -0.02471953 0.007387638 0.01530998 -0.02757108 0.007387638 0.01280999 -0.02757108 0 0.01530998 -0.02854365 0 0.01280999 -0.02854365 -0.007387638 0.01530998 -0.02757108 -0.007387638 0.01280999 -0.02757108 -0.01427179 0.01530998 -0.02471953 -0.01427179 0.01280999 -0.02471953 -0.02018338 0.01530998 -0.02018338 -0.02018338 0.01280999 -0.02018338 -0.02471953 0.01530998 -0.01427179 -0.02471953 0.01280999 -0.01427179 -0.02757108 0.01530998 -0.007387638 -0.02757108 0.01280999 -0.007387638 -0.02854365 0.01530998 0 -0.02854365 0.01280999 0 -0.02757108 0.01530998 0.007387638 -0.02757108 0.01280999 0.007387638 -0.02471953 0.01530998 0.01427179 -0.02471953 0.01280999 0.01427179 -0.02018338 0.01530998 0.02018338 -0.02018338 0.01280999 0.02018338 -0.01427179 0.01530998 0.02471953 -0.01427179 0.01280999 0.02471953 -0.007387638 0.01530998 0.02757108 -0.007387638 0.01280999 0.02757108 0 -0.01280999 0.02854365 0 -0.01530998 0.02854365 0.007387638 -0.01280999 0.02757108 0.007387638 -0.01530998 0.02757108 0.01427179 -0.01280999 0.02471953 0.01427179 -0.01530998 0.02471953 0.02018338 -0.01280999 0.02018338 0.02018338 -0.01530998 0.02018338 0.02471953 -0.01280999 0.01427179 0.02471953 -0.01530998 0.01427179 0.02757108 -0.01280999 0.007387638 0.02757108 -0.01530998 0.007387638 0.02854365 -0.01280999 0 0.02854365 -0.01530998 0 0.02757108 -0.01280999 -0.007387638 0.02757108 -0.01530998 -0.007387638 0.02471953 -0.01280999 -0.01427179 0.02471953 -0.01530998 -0.01427179 0.02018338 -0.01280999 -0.02018338 0.02018338 -0.01530998 -0.02018338 0.01427179 -0.01280999 -0.02471953 0.01427179 -0.01530998 -0.02471953 0.007387638 -0.01280999 -0.02757108 0.007387638 -0.01530998 -0.02757108 0 -0.01280999 -0.02854365 0 -0.01530998 -0.02854365 -0.007387638 -0.01280999 -0.02757108 -0.007387638 -0.01530998 -0.02757108 -0.01427179 -0.01280999 -0.02471953 -0.01427179 -0.01530998 -0.02471953 -0.02018338 -0.01280999 -0.02018338 -0.02018338 -0.01530998 -0.02018338 -0.02471953 -0.01280999 -0.01427179 -0.02471953 -0.01530998 -0.01427179 -0.02757108 -0.01280999 -0.007387638 -0.02757108 -0.01530998 -0.007387638 -0.02854365 -0.01280999 0 -0.02854365 -0.01530998 0 -0.02757108 -0.01280999 0.007387638 -0.02757108 -0.01530998 0.007387638 -0.02471953 -0.01280999 0.01427179 -0.02471953 -0.01530998 0.01427179 -0.02018338 -0.01280999 0.02018338 -0.02018338 -0.01530998 0.02018338 -0.01427179 -0.01280999 0.02471953 -0.01427179 -0.01530998 0.02471953 -0.007387638 -0.01280999 0.02757108 -0.007387638 -0.01530998 0.02757108 0.02999997 -0.005656838 -0.005492091 0.02999997 0.005656838 0.005492091 0.02955657 -0.007280409 -0.003915786 0.02955657 0.004033207 0.007068336 0.02829378 -0.008656799 -0.00257945 0.02829378 0.002656817 0.008404672 0.02640396 -0.009576499 -0.001686513 0.02640396 0.001737117 0.009297609 0.02417474 -0.009899437 -0.001372992 0.02417474 0.001414179 0.009611129 0.02194553 -0.009576499 -0.001686513 0.02194547 0.001737117 0.009297609 0.02005565 -0.008656799 -0.00257945 0.02005565 0.002656817 0.008404672 0.01879292 -0.007280409 -0.003915786 0.01879292 0.004033207 0.007068336 0.01834946 -0.005656838 -0.005492091 0.01834946 0.005656838 0.005492031 0.01879292 -0.004033207 -0.007068336 0.01879292 0.007280409 0.003915786 0.02005565 -0.002656817 -0.008404672 0.02005565 0.008656799 0.00257945 0.02194553 -0.001737117 -0.009297609 0.02194547 0.009576499 0.001686513 0.02417474 -0.001414179 -0.009611129 0.02417474 0.009899437 0.001372992 0.02640396 -0.001737117 -0.009297609 0.02640396 0.009576499 0.001686513 0.02829378 -0.002656817 -0.008404672 0.02829378 0.008656799 0.00257945 0.02955657 -0.004033207 -0.007068336 0.02955657 0.007280409 0.003915786 0.02509665 -0.005656838 0.01732969 0.01732969 0.005656838 0.02509665 0.02366852 -0.007280409 0.01813077 0.0159015 0.004033207 0.02589774 0.02183067 -0.008656799 0.01818275 0.01406371 0.002656817 0.02594977 0.019863 -0.009576499 0.01747781 0.01209598 0.001737117 0.02524483 0.01806497 -0.009899497 0.01612323 0.01029801 0.001414179 0.02389019 0.0167104 -0.009576499 0.0143252 0.008943378 0.001737117 0.02209222 0.01600545 -0.008656799 0.01235753 0.008238434 0.002656817 0.02012449 0.01605749 -0.007280409 0.01051968 0.008290469 0.004033207 0.0182867 0.01685851 -0.005656838 0.009091556 0.009091556 0.005656838 0.01685851 0.0182867 -0.004033207 0.008290469 0.01051968 0.007280409 0.01605749 0.02012449 -0.002656817 0.008238434 0.01235753 0.008656799 0.01600545 0.02209222 -0.001737117 0.008943378 0.01432526 0.009576499 0.0167104 0.02389025 -0.001414179 0.01029801 0.01612323 0.009899437 0.01806497 0.02524483 -0.001737117 0.01209598 0.01747781 0.009576499 0.019863 0.02594977 -0.002656817 0.01406371 0.01818275 0.008656799 0.02183067 0.02589774 -0.004033267 0.0159015 0.01813077 0.007280409 0.02366852 0.005492031 -0.005656838 0.02999997 -0.005492091 0.005656838 0.02999997 0.003915786 -0.007280409 0.02955657 -0.007068336 0.004033207 0.02955657 0.00257945 -0.008656799 0.02829378 -0.008404672 0.002656817 0.02829378 0.001686513 -0.009576499 0.02640396 -0.009297609 0.001737117 0.02640396 0.001372992 -0.009899497 0.02417474 -0.009611129 0.001414179 0.02417474 0.001686513 -0.009576499 0.02194553 -0.009297609 0.001737117 0.02194553 0.00257945 -0.008656799 0.02005565 -0.008404672 0.002656817 0.02005565 0.003915786 -0.007280409 0.01879292 -0.007068336 0.004033207 0.01879292 0.005492031 -0.005656838 0.01834946 -0.005492091 0.005656838 0.01834946 0.007068336 -0.004033207 0.01879292 -0.003915786 0.007280409 0.01879292 0.008404672 -0.002656817 0.02005565 -0.00257945 0.008656799 0.02005565 0.009297609 -0.001737117 0.02194553 -0.001686513 0.009576499 0.02194553 0.009611129 -0.001414179 0.02417474 -0.001372992 0.009899437 0.02417474 0.009297609 -0.001737117 0.02640396 -0.001686513 0.009576499 0.02640396 0.008404672 -0.002656817 0.02829378 -0.00257945 0.008656799 0.02829378 0.007068336 -0.004033207 0.02955657 -0.003915786 0.007280409 0.02955657 -0.01732969 -0.005656838 0.02509665 -0.02509665 0.005656838 0.01732969 -0.01813077 -0.007280409 0.02366852 -0.02589774 0.004033207 0.0159015 -0.01818275 -0.008656799 0.02183067 -0.02594977 0.002656817 0.01406371 -0.01747781 -0.009576499 0.019863 -0.02524483 0.001737117 0.01209598 -0.01612323 -0.009899497 0.01806497 -0.02389025 0.001414179 0.01029801 -0.0143252 -0.009576499 0.0167104 -0.02209222 0.001737117 0.008943378 -0.01235753 -0.008656799 0.01600545 -0.02012449 0.002656817 0.008238434 -0.01051968 -0.007280409 0.01605749 -0.0182867 0.004033207 0.008290469 -0.009091556 -0.005656838 0.01685851 -0.01685851 0.005656838 0.009091556 -0.008290469 -0.004033267 0.0182867 -0.01605749 0.007280409 0.01051968 -0.008238434 -0.002656817 0.02012449 -0.01600545 0.008656799 0.01235753 -0.008943378 -0.001737117 0.02209222 -0.0167104 0.009576499 0.0143252 -0.01029801 -0.001414179 0.02389019 -0.01806497 0.009899437 0.01612323 -0.01209598 -0.001737117 0.02524483 -0.019863 0.009576499 0.01747781 -0.01406371 -0.002656817 0.02594977 -0.02183067 0.008656799 0.01818275 -0.0159015 -0.004033207 0.02589774 -0.02366852 0.007280409 0.01813077 -0.02999997 -0.005656838 0.005492091 -0.02999997 0.005656838 -0.005492031 -0.02955657 -0.007280409 0.003915786 -0.02955657 0.004033207 -0.007068336 -0.02829378 -0.008656799 0.00257945 -0.02829378 0.002656817 -0.008404672 -0.02640396 -0.009576499 0.001686513 -0.02640396 0.001737117 -0.009297609 -0.02417474 -0.009899437 0.001372992 -0.02417474 0.001414179 -0.009611129 -0.02194553 -0.009576499 0.001686513 -0.02194553 0.001737117 -0.009297609 -0.02005565 -0.008656799 0.00257945 -0.02005565 0.002656817 -0.008404672 -0.01879292 -0.007280409 0.003915786 -0.01879292 0.004033207 -0.007068336 -0.01834946 -0.005656838 0.005492031 -0.01834946 0.005656838 -0.005492091 -0.01879292 -0.004033207 0.007068336 -0.01879292 0.007280409 -0.003915786 -0.02005565 -0.002656817 0.008404672 -0.02005565 0.008656799 -0.00257945 -0.02194547 -0.001737117 0.009297609 -0.02194553 0.009576499 -0.001686513 -0.02417474 -0.001414179 0.009611129 -0.02417474 0.009899437 -0.001372992 -0.02640396 -0.001737117 0.009297609 -0.02640396 0.009576499 -0.001686513 -0.02829378 -0.002656817 0.008404672 -0.02829378 0.008656799 -0.00257945 -0.02955657 -0.004033207 0.007068336 -0.02955657 0.007280409 -0.003915786 -0.02509665 -0.005656838 -0.01732969 -0.01732969 0.005656838 -0.02509665 -0.02366852 -0.007280409 -0.01813077 -0.0159015 0.004033207 -0.02589774 -0.02183067 -0.008656799 -0.01818275 -0.01406371 0.002656817 -0.02594977 -0.019863 -0.009576499 -0.01747781 -0.01209598 0.001737117 -0.02524483 -0.01806497 -0.009899437 -0.01612323 -0.01029801 0.001414179 -0.02389025 -0.0167104 -0.009576499 -0.0143252 -0.008943378 0.001737117 -0.02209222 -0.01600545 -0.008656799 -0.01235753 -0.008238434 0.002656817 -0.02012449 -0.01605749 -0.007280409 -0.01051968 -0.008290469 0.004033207 -0.0182867 -0.01685851 -0.005656838 -0.009091556 -0.009091556 0.005656838 -0.01685851 -0.0182867 -0.004033207 -0.008290469 -0.01051968 0.007280409 -0.01605749 -0.02012449 -0.002656817 -0.008238434 -0.01235753 0.008656799 -0.01600545 -0.02209222 -0.001737117 -0.008943378 -0.0143252 0.009576499 -0.0167104 -0.02389025 -0.001414179 -0.01029801 -0.01612323 0.009899497 -0.01806497 -0.02524483 -0.001737117 -0.01209598 -0.01747781 0.009576499 -0.019863 -0.02594977 -0.002656817 -0.01406371 -0.01818275 0.008656799 -0.02183067 -0.02589774 -0.004033207 -0.0159015 -0.01813071 0.007280409 -0.02366852 -0.005492031 -0.005656838 -0.02999997 0.005492031 0.005656838 -0.02999997 -0.003915786 -0.007280409 -0.02955657 0.007068336 0.004033267 -0.02955657 -0.00257945 -0.008656799 -0.02829378 0.008404672 0.002656817 -0.02829378 -0.001686513 -0.009576499 -0.02640396 0.009297609 0.001737117 -0.02640396 -0.001372992 -0.009899497 -0.02417474 0.009611129 0.001414179 -0.02417474 -0.001686513 -0.009576499 -0.02194553 0.009297609 0.001737117 -0.02194553 -0.00257945 -0.008656799 -0.02005565 0.008404672 0.002656817 -0.02005565 -0.003915786 -0.007280409 -0.01879292 0.007068336 0.004033207 -0.01879292 -0.005492031 -0.005656838 -0.01834946 0.005492031 0.005656838 -0.01834946 -0.007068336 -0.004033207 -0.01879292 0.003915786 0.007280409 -0.01879292 -0.008404672 -0.002656817 -0.02005565 0.00257945 0.008656799 -0.02005565 -0.009297609 -0.001737117 -0.02194553 0.001686513 0.009576499 -0.02194553 -0.009611129 -0.001414179 -0.02417474 0.001372992 0.009899497 -0.02417474 -0.009297609 -0.001737117 -0.02640396 0.001686513 0.009576499 -0.02640396 -0.008404672 -0.002656817 -0.02829378 0.00257945 0.008656859 -0.02829378 -0.007068336 -0.004033207 -0.02955657 0.003915786 0.007280409 -0.02955657 0.01732969 -0.005656838 -0.02509665 0.02509665 0.005656838 -0.01732969 0.01813071 -0.007280409 -0.02366852 0.02589774 0.004033207 -0.0159015 0.01818275 -0.008656799 -0.02183067 0.02594977 0.002656817 -0.01406371 0.01747781 -0.009576499 -0.019863 0.02524483 0.001737117 -0.01209598 0.01612323 -0.009899437 -0.01806497 0.02389025 0.001414179 -0.01029801 0.0143252 -0.009576499 -0.0167104 0.02209222 0.001737117 -0.008943378 0.01235753 -0.008656799 -0.01600545 0.02012449 0.002656817 -0.008238434 0.01051968 -0.007280409 -0.01605749 0.0182867 0.004033207 -0.008290469 0.009091556 -0.005656838 -0.01685851 0.01685851 0.005656838 -0.009091556 0.008290469 -0.004033207 -0.0182867 0.01605749 0.007280409 -0.01051968 0.008238434 -0.002656817 -0.02012449 0.01600545 0.008656799 -0.01235753 0.008943378 -0.001737117 -0.02209222 0.0167104 0.009576499 -0.0143252 0.01029801 -0.001414179 -0.02389025 0.01806497 0.009899497 -0.01612323 0.01209598 -0.001737117 -0.02524483 0.019863 0.009576499 -0.01747781 0.01406371 -0.002656817 -0.02594977 0.02183067 0.008656799 -0.01818275 0.0159015 -0.004033207 -0.02589774 0.02366852 0.007280409 -0.01813077</float_array>
          <technique_common>
            <accessor source="#Mesh_wheel_right_001-mesh-positions-array" count="400" stride="3">
              <param name="X" type="float"/>
              <param name="Y" type="float"/>
              <param name="Z" type="float"/>
            </accessor>
          </technique_common>
        </source>
        <source id="Mesh_wheel_right_001-mesh-normals">
          <float_array id="Mesh_wheel_right_001-mesh-normals-array" count="2268">0.1305261 0 0.9914449 0.3826841 0 0.9238793 0.6087607 0 0.7933539 0.7933539 0 0.6087607 0.9238798 0 0.382683 0.9914447 0 0.1305272 0.9914447 0 -0.1305272 0.9238796 0 -0.3826831 0.7933539 0 -0.6087607 0.6087611 0 -0.7933537 0.3826839 0 -0.9238794 0.1305259 0 -0.9914449 -0.1305261 0 -0.991445 -0.3826835 0 -0.9238795 -0.6087611 0 -0.7933537 -0.7933539 0 -0.6087607 -0.9238793 0 -0.3826839 -0.9914448 0 -0.1305263 -0.9914448 0 0.1305263 -0.9238795 0 0.3826838 -0.7933539 0 0.6087607 -0.6087607 0 0.7933539 0 -1 0 -0.3826838 0 0.9238795 -0.1305263 0 0.9914448 0 1 0 0.1305262 0 0.9914449 0.3826831 0 0.9238797 0.6087616 0 0.7933532 0.7933532 0 0.6087616 0.9238797 0 0.3826831 0.9914449 0 0.1305262 0.9914449 0 -0.1305262 0.9238797 0 -0.3826831 0.7933532 0 -0.6087616 0.6087615 0 -0.7933533 0.3826835 0 -0.9238795 0.1305262 0 -0.9914449 -0.1305262 0 -0.9914449 -0.3826835 0 -0.9238795 -0.6087615 0 -0.7933533 -0.7933532 0 -0.6087616 -0.9238797 0 -0.3826831 -0.9914449 0 -0.1305262 -0.9914449 0 0.1305262 -0.9238797 0 0.3826831 -0.7933532 0 0.6087616 -0.6087616 0 0.7933532 0 -1 0 -0.3826831 0 0.9238797 -0.1305262 0 0.9914449 0 1 0 0.1305262 0 0.9914449 0.3826831 0 0.9238797 0.6087616 0 0.7933532 0.7933532 0 0.6087616 0.9238797 0 0.3826831 0.9914449 0 0.1305262 0.9914449 0 -0.1305262 0.9238798 0 -0.382683 0.7933531 0 -0.6087617 0.6087615 0 -0.7933533 0.3826835 0 -0.9238795 0.1305262 0 -0.9914449 -0.1305262 0 -0.9914449 -0.3826835 0 -0.9238795 -0.6087615 0 -0.7933533 -0.7933531 0 -0.6087617 -0.9238798 0 -0.382683 -0.9914449 0 -0.1305262 -0.9914449 0 0.1305262 -0.9238797 0 0.3826831 -0.7933532 0 0.6087616 -0.6087616 0 0.7933532 0 -1 0 -0.3826831 0 0.9238797 -0.1305262 0 0.9914449 0 1 0 0.9813215 -0.1340042 0.1380252 0.8351765 -0.3831071 0.3946002 0.5611663 -0.5765621 0.5938591 0.1978405 -0.6828125 0.7032967 -0.1978383 -0.6828129 0.703297 -0.5611681 -0.5765613 0.593858 -0.8351766 -0.3831072 0.3945997 -0.9813215 -0.134005 0.1380245 -0.9813215 0.1340044 -0.1380252 -0.8351764 0.3831068 -0.3946005 -0.5611665 0.5765618 -0.593859 -0.1978404 0.6828125 -0.7032967 0.1978408 0.6828123 -0.7032968 0.5611666 0.5765621 -0.5938588 -3.24443e-7 0.696583 0.7174763 0.8351765 0.3831072 -0.3945997 0.9813215 0.1340047 -0.1380248 3.08338e-7 -0.6965823 -0.717477 0.5962989 -0.1340069 0.7914984 0.3115354 -0.3831068 0.8695832 -0.02311575 -0.5765609 0.8167271 -0.3574118 -0.6828122 0.6372004 -0.6372019 -0.6828117 0.3574101 -0.8167261 -0.5765624 0.02311784 -0.8695833 -0.3831054 -0.3115369 -0.7914982 -0.1340063 -0.5962994 -0.5963003 0.1340054 -0.7914978 -0.3115342 0.3831073 -0.8695833 0.02311682 0.5765617 -0.8167266 0.3574117 0.6828122 -0.6372005 0.6372001 0.6828124 -0.3574119 0.8167267 0.5765615 -0.02311611 -0.5073326 0.6965822 0.5073332 0.8695834 0.3831063 0.3115353 0.7914974 0.1340045 0.5963007 0.5073333 -0.6965811 -0.5073339 -0.1380262 -0.134006 0.9813211 -0.3945988 -0.3831056 0.8351778 -0.5938588 -0.5765619 0.5611668 -0.7032969 -0.6828123 0.1978406 -0.7032968 -0.6828122 -0.1978411 -0.5938595 -0.5765625 -0.5611655 -0.3945985 -0.3831053 -0.8351781 -0.1380251 -0.134005 -0.9813215 0.1380248 0.1340046 -0.9813215 0.3945992 0.3831061 -0.8351774 0.5938594 0.5765625 -0.5611655 0.7032967 0.6828125 -0.1978407 0.7032967 0.6828126 0.1978403 0.5938587 0.5765617 0.5611671 -0.7174752 0.6965839 -1.27462e-6 0.3945996 0.3831064 0.8351771 0.1380258 0.1340057 0.9813212 0.7174752 -0.6965841 0 -0.7914973 -0.1340042 0.596301 -0.8695833 -0.3831068 0.3115351 -0.8167271 -0.576561 -0.02311569 -0.6371995 -0.6828125 -0.3574126 -0.3574122 -0.6828123 -0.6372 -0.02311778 -0.5765622 -0.8167261 0.3115368 -0.3831053 -0.8695834 0.5962997 -0.134006 -0.791498 0.7914978 0.134005 -0.5963003 0.8695834 0.383106 -0.3115356 0.8167266 0.5765617 0.02311682 0.6371998 0.6828125 0.3574122 0.3574116 0.682812 0.6372007 0.02311855 0.5765627 0.8167259 -0.5073328 0.6965824 -0.5073326 -0.3115339 0.3831077 0.8695833 -0.5963013 0.1340038 0.7914972 0.5073361 -0.696577 0.5073367 -0.981321 -0.1340067 -0.1380261 -0.8351784 -0.3831052 -0.3945979 -0.5611666 -0.5765621 -0.5938588 -0.1978389 -0.6828128 -0.7032969 0.1978408 -0.6828123 -0.7032967 0.561165 -0.5765627 -0.5938596 0.835177 -0.3831063 -0.3945999 0.9813215 -0.1340045 -0.1380252 0.9813215 0.1340049 0.1380244 0.8351766 0.3831072 0.3945997 0.561167 0.5765619 0.5938585 0.1978403 0.6828123 0.7032968 -0.1978399 0.6828125 0.7032968 -0.5611654 0.5765625 0.5938596 4.24873e-7 0.696583 -0.7174763 -0.8351785 0.3831045 0.3945983 -0.981321 0.1340063 0.1380268 0 -0.6965826 0.7174766 -0.5963006 -0.1340048 -0.7914974 -0.3115358 -0.3831058 -0.8695834 0.02311813 -0.5765627 -0.8167259 0.3574123 -0.6828126 -0.6371996 0.6371999 -0.6828126 -0.3574119 0.8167258 -0.5765627 -0.02311813 0.8695834 -0.3831064 0.3115355 0.7914978 -0.1340056 0.5963 0.5963 0.1340055 0.791498 0.3115356 0.3831061 0.8695834 -0.02311831 0.5765627 0.8167257 -0.3574112 0.6828122 0.6372008 -0.637201 0.682812 0.3574109 -0.8167256 0.576563 0.02311879 0.5073333 0.6965816 -0.5073332 -0.8695833 0.3831068 -0.3115352 -0.7914969 0.1340041 -0.5963014 -0.5073329 -0.6965821 0.5073329 0.138025 -0.1340046 -0.9813215 0.3945996 -0.3831059 -0.8351773 0.5938588 -0.5765618 -0.5611668 0.7032969 -0.6828122 -0.1978406 0.7032968 -0.6828122 0.1978409 0.5938592 -0.5765624 0.5611658 0.3945994 -0.3831059 0.8351773 0.1380248 -0.1340048 0.9813215 -0.1380248 0.1340046 0.9813215 -0.3945992 0.3831061 0.8351773 -0.5938594 0.5765625 0.5611654 -0.7032969 0.6828124 0.1978406 -0.7032968 0.6828125 -0.1978402 -0.5938592 0.576562 -0.5611661 0.7174773 0.6965819 6.7979e-7 -0.3945997 0.3831063 -0.835177 -0.1380248 0.1340045 -0.9813215 -0.7174767 -0.6965826 0 0.7914975 -0.134006 -0.5963003 0.8695831 -0.3831051 -0.3115375 0.8167251 -0.5765635 0.02311915 0.6372009 -0.6828125 0.3574103 0.3574116 -0.6828125 0.6372001 0.02311819 -0.5765627 0.8167259 -0.3115357 -0.3831061 0.8695834 -0.5962998 -0.1340059 0.7914978 -0.7914981 0.134006 0.5962997 -0.8695833 0.3831053 0.3115369 -0.8167251 0.5765635 -0.02311921 -0.6372001 0.6828123 -0.357412 -0.357412 0.6828123 -0.6372001 -0.02311873 0.5765629 -0.8167256 0.5073302 0.6965846 0.5073322 0.3115358 0.3831061 -0.8695834 0.5963015 0.1340037 -0.7914971 -0.5073319 -0.6965839 -0.5073316 0.1305261 0 0.9914449 0.3826841 0 0.9238793 0.6087607 0 0.7933539 0.7933539 0 0.6087607 0.9238798 0 0.382683 0.9914447 0 0.1305272 0.9914448 0 -0.1305271 0.9238796 0 -0.3826831 0.7933537 0 -0.6087609 0.6087611 0 -0.7933537 0.3826839 0 -0.9238794 0.1305259 0 -0.9914449 -0.1305261 0 -0.991445 -0.3826835 0 -0.9238795 -0.6087611 0 -0.7933537 -0.7933537 0 -0.6087609 -0.9238793 0 -0.3826839 -0.9914448 0 -0.1305262 -0.9914448 0 0.1305263 -0.9238795 0 0.3826838 -0.7933539 0 0.6087607 -0.6087607 0 0.7933539 0 -1 0 0 -1 0 0 -1 0 0 -1 0 0 -1 0 0 -1 0 0 -1 0 0 -1 0 0 -1 0 0 -1 0 0 -1 0 0 -1 0 0 -1 0 0 -1 0 0 -1 0 0 -1 0 0 -1 0 0 -1 0 0 -1 0 0 -1 0 0 -1 0 -0.3826838 0 0.9238795 -0.1305263 0 0.9914448 0 1 0 0 1 0 0 1 0 0 1 0 0 1 0 0 1 0 0 1 0 0 1 0 0 1 0 0 1 0 0 1 0 0 1 0 0 1 0 0 1 0 0 1 0 0 1 0 0 1 0 0 1 0 0 1 0 0 1 0 0 1 0 0.1305262 0 0.9914449 0.3826831 0 0.9238797 0.6087616 0 0.7933532 0.7933532 0 0.6087616 0.9238797 0 0.3826831 0.9914449 0 0.1305262 0.9914449 0 -0.1305262 0.9238797 0 -0.3826831 0.7933532 0 -0.6087616 0.6087615 0 -0.7933533 0.3826835 0 -0.9238795 0.1305262 0 -0.9914449 -0.1305262 0 -0.9914449 -0.3826835 0 -0.9238795 -0.6087615 0 -0.7933533 -0.7933532 0 -0.6087616 -0.9238797 0 -0.3826831 -0.9914449 0 -0.1305262 -0.9914449 0 0.1305262 -0.9238797 0 0.3826831 -0.7933532 0 0.6087616 -0.6087616 0 0.7933532 0 -1 0 0 -1 0 0 -1 0 0 -1 0 0 -1 0 0 -1 0 0 -1 0 0 -1 0 0 -1 0 0 -1 0 0 -1 0 0 -1 0 0 -1 0 0 -1 0 0 -1 0 0 -1 0 0 -1 0 0 -1 0 0 -1 0 0 -1 0 0 -1 0 -0.3826831 0 0.9238797 -0.1305262 0 0.9914449 0 1 0 0 1 0 0 1 0 0 1 0 0 1 0 0 1 0 0 1 0 0 1 0 0 1 0 0 1 0 0 1 0 0 1 0 0 1 0 0 1 0 0 1 0 0 1 0 0 1 0 0 1 0 0 1 0 0 1 0 0 1 0 0.1305262 0 0.9914449 0.3826831 0 0.9238797 0.6087616 0 0.7933532 0.7933532 0 0.6087616 0.9238797 0 0.3826831 0.9914449 0 0.1305262 0.9914449 0 -0.1305262 0.9238798 0 -0.382683 0.7933531 0 -0.6087617 0.6087615 0 -0.7933533 0.3826835 0 -0.9238795 0.1305262 0 -0.9914449 -0.1305262 0 -0.9914449 -0.3826835 0 -0.9238795 -0.6087615 0 -0.7933533 -0.7933531 0 -0.6087617 -0.9238798 0 -0.382683 -0.9914449 0 -0.1305262 -0.9914449 0 0.1305262 -0.9238797 0 0.3826831 -0.7933532 0 0.6087616 -0.6087616 0 0.7933532 0 -1 0 0 -1 0 0 -1 0 0 -1 0 0 -1 0 0 -1 0 0 -1 0 0 -1 0 0 -1 0 0 -1 0 0 -1 0 0 -1 0 0 -1 0 0 -1 0 0 -1 0 0 -1 0 0 -1 0 0 -1 0 0 -1 0 0 -1 0 0 -1 0 -0.3826831 0 0.9238797 -0.1305262 0 0.9914449 0 1 0 0 1 0 0 1 0 0 1 0 0 1 0 0 1 0 0 1 0 0 1 0 0 1 0 0 1 0 0 1 0 0 1 0 0 1 0 0 1 0 0 1 0 0 1 0 0 1 0 0 1 0 0 1 0 0 1 0 0 1 0 0.9813207 -0.1340075 0.1380277 0.8351784 -0.3831045 0.3945984 0.561165 -0.5765628 0.5938596 0.1978402 -0.6828125 0.7032967 -0.1978403 -0.6828123 0.7032968 -0.561167 -0.5765621 0.5938584 -0.8351766 -0.3831072 0.3945997 -0.9813215 -0.134005 0.1380244 -0.9813215 0.1340045 -0.1380252 -0.8351769 0.3831061 -0.3946 -0.5611653 0.5765625 -0.5938596 -0.1978405 0.6828125 -0.7032967 0.1978381 0.6828129 -0.7032969 0.5611666 0.5765621 -0.5938588 0 0.6965813 0.717478 -2.58094e-7 0.6965804 0.7174787 -2.48319e-7 0.6965804 0.7174787 -3.44722e-7 0.696581 0.7174782 -3.71052e-6 0.6965756 0.7174835 -2.68552e-7 0.6965814 0.7174777 -3.44722e-7 0.6965811 0.717478 -2.48319e-7 0.6965813 0.7174778 -2.58094e-7 0.6965804 0.7174787 0 0.6965814 0.7174779 -3.24444e-7 0.6965801 0.7174791 1.86943e-6 0.696586 0.7174732 -6.5646e-7 0.6965818 0.7174775 0.8351784 0.3831049 -0.394598 0.9813207 0.1340079 -0.1380273 2.29417e-7 -0.6965804 -0.7174788 2.48319e-7 -0.696581 -0.7174782 2.53262e-7 -0.6965809 -0.7174783 1.8302e-7 -0.6965817 -0.7174775 1.825e-7 -0.6965811 -0.7174781 1.16132e-6 -0.6965847 -0.7174747 1.16372e-6 -0.6965782 -0.7174808 2.29417e-7 -0.6965809 -0.7174783 2.79359e-7 -0.6965805 -0.7174786 2.8079e-7 -0.6965807 -0.7174784 1.66871e-7 -0.6965828 -0.7174765 1.62222e-7 -0.6965811 -0.717478 3.00951e-7 -0.6965805 -0.7174787 0.5963007 -0.1340046 0.7914975 0.3115353 -0.3831066 0.8695832 -0.02311986 -0.5765635 0.8167251 -0.357412 -0.6828121 0.6372004 -0.6371999 -0.6828125 0.3574123 -0.8167253 -0.5765632 0.02311939 -0.8695833 -0.3831054 -0.3115369 -0.7914981 -0.134006 -0.5962996 -0.5962995 0.1340065 -0.7914981 -0.3115367 0.383105 -0.8695834 0.02311778 0.5765623 -0.8167262 0.3574144 0.682813 -0.637198 0.6371993 0.6828128 -0.3574126 0.8167263 0.5765621 -0.023117 -0.5073345 0.6965801 0.5073342 -0.5073325 0.6965824 0.507333 -0.5073348 0.6965795 0.5073347 -0.5073342 0.6965806 0.5073338 -0.5073318 0.696584 0.5073314 -0.5073345 0.6965786 0.5073363 -0.5073343 0.6965791 0.5073356 -0.5073336 0.6965813 0.5073335 -0.5073333 0.696581 0.5073339 -0.5073341 0.6965805 0.5073339 -0.5073326 0.6965821 0.5073332 -0.5073316 0.6965824 0.5073338 -0.5073357 0.6965788 0.5073348 0.8695834 0.3831067 0.3115348 0.7914977 0.1340052 0.5963003 0.5073326 -0.6965825 -0.5073328 0.5073329 -0.6965824 -0.5073326 0.5073342 -0.6965805 -0.5073338 0.5073344 -0.6965799 -0.5073344 0.5073335 -0.6965811 -0.5073335 0.5073333 -0.6965824 -0.507332 0.5073372 -0.6965767 -0.5073359 0.5073335 -0.6965811 -0.5073337 0.5073339 -0.6965798 -0.5073351 0.5073314 -0.6965836 -0.5073326 0.5073352 -0.696579 -0.507335 0.5073346 -0.6965799 -0.5073343 0.5073342 -0.6965796 -0.5073348 -0.138026 -0.1340059 0.9813212 -0.3945991 -0.3831061 0.8351773 -0.5938592 -0.5765624 0.5611658 -0.7032969 -0.6828124 0.1978402 -0.7032968 -0.6828123 -0.1978407 -0.5938597 -0.5765629 -0.5611646 -0.3945988 -0.3831058 -0.8351777 -0.1380249 -0.1340048 -0.9813215 0.1380248 0.1340046 -0.9813215 0.3945989 0.3831056 -0.8351777 0.59386 0.5765634 -0.5611638 0.7032966 0.6828125 -0.1978408 0.7032967 0.6828125 0.1978403 0.5938595 0.5765629 0.5611649 -0.717478 0.6965813 0 -0.7174788 0.6965804 0 -0.7174778 0.6965814 0 -0.717478 0.6965813 0 -0.7174782 0.6965809 1.27462e-7 -0.7174785 0.6965807 0 -0.7174783 0.6965808 0 -0.717478 0.6965813 0 -0.7174778 0.6965813 0 -0.7174788 0.6965804 0 -0.717478 0.6965813 0 -0.7174766 0.6965826 0 -0.7174782 0.696581 4.47587e-7 0.3945993 0.383106 0.8351774 0.1380258 0.1340057 0.9813212 0.7174778 -0.6965813 0 0.7174796 -0.6965796 0 0.717477 -0.6965822 0 0.7174811 -0.6965779 0 0.7174769 -0.6965822 0 0.7174797 -0.6965794 0 0.7174812 -0.6965779 0 0.7174796 -0.6965795 0 0.7174778 -0.6965814 0 0.7174789 -0.6965802 0 0.7174751 -0.6965841 0 0.7174789 -0.6965802 0 0.7174797 -0.6965794 0 -0.7914978 -0.1340056 0.5963001 -0.8695833 -0.3831056 0.3115363 -0.8167256 -0.576563 -0.02311879 -0.637201 -0.682812 -0.3574112 -0.3574116 -0.6828122 -0.6372005 -0.02311831 -0.5765626 -0.8167259 0.3115357 -0.3831062 -0.8695833 0.5962996 -0.134006 -0.7914981 0.7914982 0.1340063 -0.5962994 0.8695835 0.3831051 -0.3115367 0.8167259 0.5765626 0.02311825 0.6372002 0.6828123 0.3574118 0.3574141 0.6828127 0.6371985 0.02311575 0.5765609 0.8167271 -0.5073339 0.6965807 -0.5073339 -0.5073333 0.6965819 -0.5073329 -0.5073341 0.6965807 -0.5073337 -0.5073341 0.6965804 -0.5073341 -0.5073345 0.6965775 -0.5073377 -0.5073335 0.6965812 -0.5073336 -0.5073333 0.6965816 -0.5073332 -0.5073338 0.6965811 -0.5073334 -0.5073339 0.696581 -0.5073333 -0.507334 0.6965805 -0.507334 -0.5073335 0.6965813 -0.5073333 -0.5073332 0.6965821 -0.5073328 -0.5073333 0.6965816 -0.5073334 -0.3115351 0.3831067 0.8695834 -0.5962992 0.1340067 0.7914983 0.5073328 -0.6965818 0.5073335 0.5073344 -0.6965801 0.5073343 0.507334 -0.6965807 0.5073338 0.5073338 -0.6965811 0.5073334 0.5073336 -0.6965814 0.5073332 0.5073378 -0.6965746 0.5073385 0.507335 -0.6965787 0.5073357 0.5073325 -0.6965822 0.5073332 0.5073333 -0.6965812 0.5073338 0.5073332 -0.6965814 0.5073337 0.5073353 -0.6965788 0.5073352 0.5073325 -0.6965828 0.5073324 0.5073353 -0.6965782 0.5073359 -0.9813215 -0.1340048 -0.1380246 -0.8351773 -0.3831065 -0.3945989 -0.5611658 -0.5765625 -0.5938591 -0.1978408 -0.6828123 -0.7032968 0.1978404 -0.6828125 -0.7032968 0.5611658 -0.5765622 -0.5938594 0.8351771 -0.3831061 -0.3945997 0.9813215 -0.1340044 -0.1380252 0.9813215 0.1340051 0.1380245 0.8351773 0.3831063 0.394599 0.5611674 0.5765618 0.5938583 0.1978389 0.6828128 0.7032969 -0.1978403 0.6828125 0.7032968 -0.5611653 0.5765624 0.5938596 -2.79359e-7 0.6965811 -0.7174781 -2.58094e-7 0.6965809 -0.7174783 -2.48319e-7 0.6965804 -0.7174787 -3.44722e-7 0.6965814 -0.7174778 -3.44509e-7 0.6965819 -0.7174773 -3.53096e-7 0.6965819 -0.7174773 -4.63107e-6 0.6965746 -0.7174844 -2.48319e-7 0.696581 -0.7174781 -2.58094e-7 0.6965804 -0.7174787 -2.79359e-7 0.696581 -0.7174782 -1.62222e-7 0.6965807 -0.7174785 -1.66871e-7 0.6965828 -0.7174764 -5.52023e-7 0.6965814 -0.7174778 -0.8351773 0.3831059 0.3945994 -0.9813215 0.1340044 0.1380253 2.58094e-7 -0.6965804 0.7174787 2.48319e-7 -0.6965804 0.7174787 2.47756e-7 -0.696581 0.7174781 3.44507e-7 -0.6965791 0.71748 3.44722e-7 -0.6965814 0.7174778 1.46228e-6 -0.6965858 0.7174735 1.46212e-6 -0.6965831 0.7174761 2.58094e-7 -0.6965804 0.7174787 0 -0.6965814 0.7174779 0 -0.6965802 0.7174789 3.28359e-7 -0.6965838 0.7174755 3.24444e-7 -0.6965814 0.7174777 0 -0.6965794 0.7174797 -0.5963015 -0.1340036 -0.791497 -0.3115354 -0.3831064 -0.8695833 0.02311885 -0.5765629 -0.8167256 0.3574113 -0.6828123 -0.6372005 0.6371999 -0.6828126 -0.3574119 0.8167258 -0.5765627 -0.02311819 0.8695834 -0.3831062 0.3115357 0.7914981 -0.134006 0.5962997 0.5963003 0.1340051 0.7914977 0.3115352 0.3831064 0.8695834 -0.0231167 0.5765618 0.8167266 -0.3574116 0.6828123 0.6372004 -0.6372006 0.6828122 0.3574113 -0.8167266 0.5765617 0.02311664 0.5073337 0.6965811 -0.5073336 0.5073337 0.696581 -0.5073338 0.5073342 0.6965804 -0.5073341 0.5073338 0.696581 -0.5073335 0.507334 0.6965801 -0.5073345 0.5073345 0.6965797 -0.5073345 0.5073352 0.696579 -0.507335 0.5073336 0.6965813 -0.5073335 0.5073338 0.6965808 -0.5073339 0.5073341 0.6965805 -0.507334 0.5073336 0.6965813 -0.5073335 0.5073305 0.6965841 -0.5073328 0.5073341 0.6965807 -0.5073336 -0.8695833 0.3831058 -0.3115362 -0.7914972 0.1340049 -0.5963009 -0.5073332 -0.6965819 0.507333 -0.5073345 -0.6965798 0.5073346 -0.5073333 -0.6965813 0.5073335 -0.5073322 -0.6965833 0.5073321 -0.5073338 -0.6965808 0.5073338 -0.5073364 -0.6965775 0.5073357 -0.5073337 -0.6965817 0.5073329 -0.5073341 -0.6965805 0.5073339 -0.5073337 -0.6965808 0.5073339 -0.5073335 -0.6965812 0.5073338 -0.5073332 -0.6965819 0.507333 -0.5073342 -0.6965804 0.5073341 -0.5073325 -0.6965827 0.5073325 0.1380254 -0.1340051 -0.9813213 0.3945998 -0.3831062 -0.835177 0.5938584 -0.5765609 -0.5611682 0.7032969 -0.6828124 -0.1978402 0.7032969 -0.6828124 0.1978406 0.5938585 -0.5765611 0.5611678 0.3946008 -0.3831077 0.835176 0.1380242 -0.1340041 0.9813217 -0.1380246 0.1340043 0.9813216 -0.3945989 0.3831056 0.8351777 -0.5938591 0.5765621 0.5611661 -0.7032968 0.6828122 0.1978409 -0.7032969 0.6828123 -0.1978406 -0.5938599 0.576563 -0.5611646 0.7174788 0.6965804 5.12308e-7 0.7174778 0.6965814 4.73311e-7 0.7174779 0.6965813 0 0.7174792 0.6965799 6.29988e-7 0.717479 0.6965801 6.29805e-7 0.7174805 0.6965786 2.23793e-7 0.7174819 0.6965772 -6.23147e-7 0.717477 0.6965822 0 0.7174795 0.6965796 4.7331e-7 0.7174779 0.6965812 5.12308e-7 0.717477 0.6965823 0 0.717478 0.6965811 0 0.7174789 0.6965803 -2.38712e-7 -0.3945999 0.3831064 -0.835177 -0.1380253 0.1340051 -0.9813213 -0.7174778 -0.6965813 0 -0.7174788 -0.6965804 0 -0.717478 -0.6965813 0 -0.7174811 -0.6965779 0 -0.717478 -0.6965813 0 -0.7174797 -0.6965795 0 -0.7174813 -0.6965779 0 -0.7174788 -0.6965804 0 -0.7174779 -0.6965813 0 -0.717478 -0.6965813 0 -0.7174766 -0.6965826 0 -0.7174779 -0.6965813 0 -0.7174797 -0.6965794 0 0.7914969 -0.1340041 -0.5963014 0.8695831 -0.383107 -0.3115353 0.816726 -0.5765625 0.0231176 0.6372001 -0.6828127 0.3574113 0.357411 -0.6828124 0.6372006 0.02311831 -0.5765627 0.8167259 -0.3115352 -0.3831065 0.8695834 -0.5963006 -0.1340048 0.7914975 -0.7914978 0.1340056 0.5963 -0.8695832 0.3831074 0.3115346 -0.8167269 0.5765612 -0.02311551 -0.6372002 0.6828123 -0.3574118 -0.3574122 0.6828123 -0.6372001 -0.02311664 0.5765616 -0.8167266 0.5073338 0.6965805 0.5073343 0.5073332 0.6965819 0.507333 0.5073345 0.6965798 0.5073346 0.5073339 0.6965808 0.5073338 0.5073334 0.6965815 0.5073333 0.5073363 0.6965782 0.507335 0.507333 0.6965812 0.5073341 0.5073342 0.6965802 0.5073343 0.5073341 0.6965805 0.5073339 0.507334 0.6965802 0.5073345 0.507333 0.696582 0.507333 0.5073332 0.6965819 0.507333 0.5073326 0.6965824 0.5073328 0.3115364 0.3831056 -0.8695833 0.5963007 0.1340048 -0.7914974 -0.5073337 -0.696581 -0.5073338 -0.5073348 -0.6965797 -0.5073342 -0.5073336 -0.6965816 -0.507333 -0.5073335 -0.6965815 -0.5073332 -0.5073341 -0.6965806 -0.5073338 -0.5073332 -0.696582 -0.5073328 -0.5073333 -0.696582 -0.5073328 -0.5073333 -0.6965814 -0.5073334 -0.5073341 -0.6965805 -0.507334 -0.5073331 -0.6965819 -0.507333 -0.5073329 -0.6965817 -0.5073335 -0.5073339 -0.6965802 -0.5073345 -0.5073363 -0.6965774 -0.507336</float_array>
          <technique_common>
            <accessor source="#Mesh_wheel_right_001-mesh-normals-array" count="756" stride="3">
              <param name="X" type="float"/>
              <param name="Y" type="float"/>
              <param name="Z" type="float"/>
            </accessor>
          </technique_common>
        </source>
        <source id="Mesh_wheel_right_001-mesh-map-0">
          <float_array id="Mesh_wheel_right_001-mesh-map-0-array" count="4536">1 1 0.9583333 0.5 1 0.5 0.9583333 1 0.9166666 0.5 0.9583333 0.5 0.9166666 1 0.875 0.5 0.9166666 0.5 0.875 1 0.8333333 0.5 0.875 0.5 0.8333333 1 0.7916666 0.5 0.8333333 0.5 0.7916666 1 0.7499999 0.5 0.7916666 0.5 0.7499999 1 0.7083332 0.5 0.7499999 0.5 0.7083332 1 0.6666665 0.5 0.7083332 0.5 0.6666665 1 0.6249998 0.5 0.6666665 0.5 0.6249998 1 0.5833331 0.5 0.6249998 0.5 0.5833331 1 0.5416665 0.5 0.5833331 0.5 0.5416665 1 0.4999998 0.5 0.5416665 0.5 0.4999998 1 0.4583331 0.5 0.4999998 0.5 0.4583331 1 0.4166665 0.5 0.4583331 0.5 0.4166665 1 0.3749998 0.5 0.4166665 0.5 0.3749998 1 0.3333331 0.5 0.3749998 0.5 0.3333331 0.5 0.2916665 1 0.2916665 0.5 0.2916665 0.5 0.2499998 1 0.2499998 0.5 0.2499998 1 0.2083331 0.5 0.2499998 0.5 0.2083331 1 0.1666665 0.5 0.2083331 0.5 0.1666665 1 0.1249998 0.5 0.1666665 0.5 0.1249998 1 0.08333313 0.5 0.1249998 0.5 0.00999999 0.25 0.37 0.04215389 0.37 0.4578461 0.08333313 1 0.04166644 0.5 0.08333313 0.5 0.04166644 1 -1.86265e-7 0.5 0.04166644 0.5 0.9818222 0.1878834 0.5802944 0.08029437 0.6878834 0.4818222 1 1 0.9583333 0.5 1 0.5 0.9583333 1 0.9166666 0.5 0.9583333 0.5 0.9166666 1 0.875 0.5 0.9166666 0.5 0.875 1 0.8333333 0.5 0.875 0.5 0.8333333 1 0.7916666 0.5 0.8333333 0.5 0.7916666 1 0.7499999 0.5 0.7916666 0.5 0.7499999 1 0.7083332 0.5 0.7499999 0.5 0.7083332 1 0.6666665 0.5 0.7083332 0.5 0.6666665 1 0.6249998 0.5 0.6666665 0.5 0.6249998 1 0.5833331 0.5 0.6249998 0.5 0.5833331 1 0.5416665 0.5 0.5833331 0.5 0.5416665 1 0.4999998 0.5 0.5416665 0.5 0.4999998 1 0.4583331 0.5 0.4999998 0.5 0.4583331 1 0.4166665 0.5 0.4583331 0.5 0.4166665 1 0.3749998 0.5 0.4166665 0.5 0.3749998 1 0.3333331 0.5 0.3749998 0.5 0.3333331 1 0.2916665 0.5 0.3333331 0.5 0.2916665 1 0.2499998 0.5 0.2916665 0.5 0.2499998 1 0.2083331 0.5 0.2499998 0.5 0.2083331 1 0.1666665 0.5 0.2083331 0.5 0.1666665 1 0.1249998 0.5 0.1666665 0.5 0.1249998 1 0.08333313 0.5 0.1249998 0.5 0.49 0.25 0.37 0.4578461 0.00999999 0.25 0.08333313 1 0.04166644 0.5 0.08333313 0.5 0.04166644 1 -1.86265e-7 0.5 0.04166644 0.5 0.9818222 0.1878834 0.5802944 0.08029437 0.6878834 0.4818222 1 1 0.9583333 0.5 1 0.5 0.9583333 1 0.9166666 0.5 0.9583333 0.5 0.9166666 1 0.875 0.5 0.9166666 0.5 0.875 1 0.8333333 0.5 0.875 0.5 0.8333333 1 0.7916666 0.5 0.8333333 0.5 0.7916666 1 0.7499999 0.5 0.7916666 0.5 0.7499999 1 0.7083332 0.5 0.7499999 0.5 0.7083332 1 0.6666665 0.5 0.7083332 0.5 0.6666665 1 0.6249998 0.5 0.6666665 0.5 0.6249998 1 0.5833331 0.5 0.6249998 0.5 0.5833331 1 0.5416665 0.5 0.5833331 0.5 0.5416665 1 0.4999998 0.5 0.5416665 0.5 0.4999998 1 0.4583331 0.5 0.4999998 0.5 0.4583331 1 0.4166665 0.5 0.4583331 0.5 0.4166665 1 0.3749998 0.5 0.4166665 0.5 0.3749998 1 0.3333331 0.5 0.3749998 0.5 0.3333331 1 0.2916665 0.5 0.3333331 0.5 0.2916665 1 0.2499998 0.5 0.2916665 0.5 0.2499998 1 0.2083331 0.5 0.2499998 0.5 0.2083331 1 0.1666665 0.5 0.2083331 0.5 0.1666665 1 0.1249998 0.5 0.1666665 0.5 0.1249998 1 0.08333313 0.5 0.1249998 0.5 0.49 0.25 0.37 0.4578461 0.00999999 0.25 0.08333313 1 0.04166644 0.5 0.08333313 0.5 0.04166644 1 -1.86265e-7 0.5 0.04166644 0.5 0.9818222 0.1878834 0.5802944 0.08029437 0.6878834 0.4818222 1 0.5 0.9375 1 0.9375 0.5 0.9375 0.5 0.875 1 0.875 0.5 0.875 0.5 0.8125 1 0.8125 0.5 0.8125 0.5 0.75 1 0.75 0.5 0.75 1 0.6875 0.5 0.75 0.5 0.6875 1 0.625 0.5 0.6875 0.5 0.625 1 0.5625 0.5 0.625 0.5 0.5625 1 0.5 0.5 0.5625 0.5 0.5 1 0.4375 0.5 0.5 0.5 0.4375 1 0.375 0.5 0.4375 0.5 0.375 1 0.3125 0.5 0.375 0.5 0.3125 1 0.25 0.5 0.3125 0.5 0.25 0.5 0.1875 1 0.1875 0.5 0.1875 0.5 0.125 1 0.125 0.5 0.4717311 0.341844 0.4197056 0.4197056 0.4197056 0.08029437 0.125 0.5 0.0625 1 0.0625 0.5 0.0625 0.5 0 1 0 0.5 0.5282689 0.341844 0.5802944 0.4197056 0.5282689 0.1581559 1 0.5 0.9375 1 0.9375 0.5 0.9375 0.5 0.875 1 0.875 0.5 0.875 0.5 0.8125 1 0.8125 0.5 0.8125 0.5 0.75 1 0.75 0.5 0.75 1 0.6875 0.5 0.75 0.5 0.6875 1 0.625 0.5 0.6875 0.5 0.625 1 0.5625 0.5 0.625 0.5 0.5625 1 0.5 0.5 0.5625 0.5 0.5 1 0.4375 0.5 0.5 0.5 0.4375 1 0.375 0.5 0.4375 0.5 0.375 1 0.3125 0.5 0.375 0.5 0.3125 1 0.25 0.5 0.3125 0.5 0.25 0.5 0.1875 1 0.1875 0.5 0.1875 0.5 0.125 1 0.125 0.5 0.4717311 0.341844 0.4197056 0.4197056 0.4197056 0.08029437 0.125 0.5 0.0625 1 0.0625 0.5 0.0625 0.5 0 1 0 0.5 0.5282689 0.341844 0.5802944 0.4197056 0.5282689 0.1581559 1 0.5 0.9375 1 0.9375 0.5 0.9375 0.5 0.875 1 0.875 0.5 0.875 0.5 0.8125 1 0.8125 0.5 0.8125 0.5 0.75 1 0.75 0.5 0.75 1 0.6875 0.5 0.75 0.5 0.6875 1 0.625 0.5 0.6875 0.5 0.625 1 0.5625 0.5 0.625 0.5 0.5625 1 0.5 0.5 0.5625 0.5 0.5 1 0.4375 0.5 0.5 0.5 0.4375 1 0.375 0.5 0.4375 0.5 0.375 1 0.3125 0.5 0.375 0.5 0.3125 1 0.25 0.5 0.3125 0.5 0.25 0.5 0.1875 1 0.1875 0.5 0.1875 0.5 0.125 1 0.125 0.5 0.49 0.25 0.4717311 0.341844 0.4197056 0.4197056 0.125 0.5 0.0625 1 0.0625 0.5 0.0625 0.5 0 1 0 0.5 0.5282689 0.341844 0.5802944 0.4197056 0.5282689 0.1581559 1 0.5 0.9375 1 0.9375 0.5 0.9375 0.5 0.875 1 0.875 0.5 0.875 0.5 0.8125 1 0.8125 0.5 0.8125 0.5 0.75 1 0.75 0.5 0.75 1 0.6875 0.5 0.75 0.5 0.6875 1 0.625 0.5 0.6875 0.5 0.625 1 0.5625 0.5 0.625 0.5 0.5625 1 0.5 0.5 0.5625 0.5 0.5 1 0.4375 0.5 0.5 0.5 0.4375 1 0.375 0.5 0.4375 0.5 0.375 1 0.3125 0.5 0.375 0.5 0.3125 1 0.25 0.5 0.3125 0.5 0.25 0.5 0.1875 1 0.1875 0.5 0.1875 0.5 0.125 1 0.125 0.5 0.4717311 0.341844 0.4197056 0.4197056 0.4197056 0.08029437 0.125 0.5 0.0625 1 0.0625 0.5 0.0625 0.5 0 1 0 0.5 0.5282689 0.341844 0.5802944 0.4197056 0.5282689 0.1581559 1 0.5 0.9375 1 0.9375 0.5 0.9375 0.5 0.875 1 0.875 0.5 0.875 0.5 0.8125 1 0.8125 0.5 0.8125 0.5 0.75 1 0.75 0.5 0.75 1 0.6875 0.5 0.75 0.5 0.6875 1 0.625 0.5 0.6875 0.5 0.625 1 0.5625 0.5 0.625 0.5 0.5625 1 0.5 0.5 0.5625 0.5 0.5 1 0.4375 0.5 0.5 0.5 0.4375 1 0.375 0.5 0.4375 0.5 0.375 1 0.3125 0.5 0.375 0.5 0.3125 1 0.25 0.5 0.3125 0.5 0.25 0.5 0.1875 1 0.1875 0.5 0.1875 0.5 0.125 1 0.125 0.5 0.49 0.25 0.4717311 0.341844 0.4197056 0.4197056 0.125 0.5 0.0625 1 0.0625 0.5 0.0625 0.5 0 1 0 0.5 0.5282689 0.341844 0.5802944 0.4197056 0.5282689 0.1581559 1 0.5 0.9375 1 0.9375 0.5 0.9375 0.5 0.875 1 0.875 0.5 0.875 0.5 0.8125 1 0.8125 0.5 0.8125 0.5 0.75 1 0.75 0.5 0.75 1 0.6875 0.5 0.75 0.5 0.6875 1 0.625 0.5 0.6875 0.5 0.625 1 0.5625 0.5 0.625 0.5 0.5625 1 0.5 0.5 0.5625 0.5 0.5 1 0.4375 0.5 0.5 0.5 0.4375 1 0.375 0.5 0.4375 0.5 0.375 1 0.3125 0.5 0.375 0.5 0.3125 1 0.25 0.5 0.3125 0.5 0.25 0.5 0.1875 1 0.1875 0.5 0.1875 0.5 0.125 1 0.125 0.5 0.4717311 0.341844 0.4197056 0.4197056 0.4197056 0.08029437 0.125 0.5 0.0625 1 0.0625 0.5 0.0625 0.5 0 1 0 0.5 0.5282689 0.341844 0.5802944 0.4197056 0.5282689 0.1581559 1 0.5 0.9375 1 0.9375 0.5 0.9375 0.5 0.875 1 0.875 0.5 0.875 0.5 0.8125 1 0.8125 0.5 0.8125 0.5 0.75 1 0.75 0.5 0.75 1 0.6875 0.5 0.75 0.5 0.6875 1 0.625 0.5 0.6875 0.5 0.625 1 0.5625 0.5 0.625 0.5 0.5625 1 0.5 0.5 0.5625 0.5 0.5 1 0.4375 0.5 0.5 0.5 0.4375 1 0.375 0.5 0.4375 0.5 0.375 1 0.3125 0.5 0.375 0.5 0.3125 1 0.25 0.5 0.3125 0.5 0.25 0.5 0.1875 1 0.1875 0.5 0.1875 0.5 0.125 1 0.125 0.5 0.49 0.25 0.4717311 0.341844 0.4197056 0.4197056 0.125 0.5 0.0625 1 0.0625 0.5 0.0625 0.5 0 1 0 0.5 0.5282689 0.341844 0.5802944 0.4197056 0.5282689 0.1581559 1 0.5 0.9375 1 0.9375 0.5 0.9375 0.5 0.875 1 0.875 0.5 0.875 0.5 0.8125 1 0.8125 0.5 0.8125 0.5 0.75 1 0.75 0.5 0.75 1 0.6875 0.5 0.75 0.5 0.6875 1 0.625 0.5 0.6875 0.5 0.625 1 0.5625 0.5 0.625 0.5 0.5625 1 0.5 0.5 0.5625 0.5 0.5 1 0.4375 0.5 0.5 0.5 0.4375 1 0.375 0.5 0.4375 0.5 0.375 1 0.3125 0.5 0.375 0.5 0.3125 1 0.25 0.5 0.3125 0.5 0.25 0.5 0.1875 1 0.1875 0.5 0.1875 0.5 0.125 1 0.125 0.5 0.49 0.25 0.4717311 0.341844 0.4197056 0.4197056 0.125 0.5 0.0625 1 0.0625 0.5 0.0625 0.5 0 1 0 0.5 0.5282689 0.341844 0.5802944 0.4197056 0.5282689 0.1581559 1 1 0.9583333 1 0.9583333 0.5 0.9583333 1 0.9166666 1 0.9166666 0.5 0.9166666 1 0.875 1 0.875 0.5 0.875 1 0.8333333 1 0.8333333 0.5 0.8333333 1 0.7916666 1 0.7916666 0.5 0.7916666 1 0.7499999 1 0.7499999 0.5 0.7499999 1 0.7083332 1 0.7083332 0.5 0.7083332 1 0.6666665 1 0.6666665 0.5 0.6666665 1 0.6249998 1 0.6249998 0.5 0.6249998 1 0.5833331 1 0.5833331 0.5 0.5833331 1 0.5416665 1 0.5416665 0.5 0.5416665 1 0.4999998 1 0.4999998 0.5 0.4999998 1 0.4583331 1 0.4583331 0.5 0.4583331 1 0.4166665 1 0.4166665 0.5 0.4166665 1 0.3749998 1 0.3749998 0.5 0.3749998 1 0.3333331 1 0.3333331 0.5 0.3333331 0.5 0.3333331 1 0.2916665 1 0.2916665 0.5 0.2916665 1 0.2499998 1 0.2499998 1 0.2083331 1 0.2083331 0.5 0.2083331 1 0.1666665 1 0.1666665 0.5 0.1666665 1 0.1249998 1 0.1249998 0.5 0.1249998 1 0.08333313 1 0.08333313 0.5 0.37 0.4578461 0.3121166 0.4818222 0.25 0.49 0.25 0.49 0.1878834 0.4818222 0.1299999 0.4578461 0.1299999 0.4578461 0.08029437 0.4197056 0.04215389 0.37 0.04215389 0.37 0.0181778 0.3121166 0.00999999 0.25 0.00999999 0.25 0.0181778 0.1878834 0.04215389 0.1299999 0.04215389 0.1299999 0.08029437 0.08029437 0.1299999 0.04215389 0.1299999 0.04215389 0.1878834 0.0181778 0.25 0.00999999 0.25 0.00999999 0.3121166 0.0181778 0.37 0.04215389 0.37 0.04215389 0.4197056 0.08029437 0.4578461 0.1299999 0.4578461 0.1299999 0.4818222 0.1878834 0.37 0.04215389 0.4818222 0.1878834 0.49 0.25 0.37 0.04215389 0.49 0.25 0.4818222 0.3121166 0.4578461 0.37 0.4578461 0.37 0.4197056 0.4197056 0.37 0.4578461 0.37 0.4578461 0.25 0.49 0.1299999 0.4578461 0.1299999 0.4578461 0.04215389 0.37 0.37 0.4578461 0.04215389 0.37 0.00999999 0.25 0.37 0.4578461 0.00999999 0.25 0.04215389 0.1299999 0.1299999 0.04215389 0.1299999 0.04215389 0.25 0.00999999 0.37 0.04215389 0.49 0.25 0.4578461 0.37 0.37 0.04215389 0.4578461 0.37 0.37 0.4578461 0.37 0.04215389 0.00999999 0.25 0.1299999 0.04215389 0.37 0.04215389 0.08333313 1 0.04166644 1 0.04166644 0.5 0.04166644 1 -1.86265e-7 1 -1.86265e-7 0.5 0.6878834 0.4818222 0.75 0.49 0.8121166 0.4818222 0.8121166 0.4818222 0.87 0.4578461 0.6878834 0.4818222 0.87 0.4578461 0.9197056 0.4197056 0.6878834 0.4818222 0.9197056 0.4197056 0.9578461 0.37 0.9818222 0.3121166 0.9818222 0.3121166 0.99 0.25 0.9818222 0.1878834 0.9818222 0.1878834 0.9578461 0.1299999 0.9197056 0.08029437 0.9197056 0.08029437 0.87 0.04215389 0.9818222 0.1878834 0.87 0.04215389 0.8121166 0.0181778 0.9818222 0.1878834 0.8121166 0.0181778 0.75 0.00999999 0.6878834 0.0181778 0.6878834 0.0181778 0.63 0.04215389 0.8121166 0.0181778 0.63 0.04215389 0.5802944 0.08029437 0.8121166 0.0181778 0.5802944 0.08029437 0.5421539 0.1299999 0.5181778 0.3121166 0.5421539 0.1299999 0.5181778 0.1878834 0.5181778 0.3121166 0.5181778 0.1878834 0.51 0.25 0.5181778 0.3121166 0.5181778 0.3121166 0.5421539 0.37 0.5802944 0.4197056 0.5802944 0.4197056 0.63 0.4578461 0.5181778 0.3121166 0.63 0.4578461 0.6878834 0.4818222 0.5181778 0.3121166 0.9197056 0.4197056 0.9818222 0.3121166 0.6878834 0.4818222 0.9818222 0.3121166 0.9818222 0.1878834 0.6878834 0.4818222 0.9818222 0.1878834 0.8121166 0.0181778 0.5802944 0.08029437 0.5802944 0.08029437 0.5181778 0.3121166 0.6878834 0.4818222 1 1 0.9583333 1 0.9583333 0.5 0.9583333 1 0.9166666 1 0.9166666 0.5 0.9166666 1 0.875 1 0.875 0.5 0.875 1 0.8333333 1 0.8333333 0.5 0.8333333 1 0.7916666 1 0.7916666 0.5 0.7916666 1 0.7499999 1 0.7499999 0.5 0.7499999 1 0.7083332 1 0.7083332 0.5 0.7083332 1 0.6666665 1 0.6666665 0.5 0.6666665 1 0.6249998 1 0.6249998 0.5 0.6249998 1 0.5833331 1 0.5833331 0.5 0.5833331 1 0.5416665 1 0.5416665 0.5 0.5416665 1 0.4999998 1 0.4999998 0.5 0.4999998 1 0.4583331 1 0.4583331 0.5 0.4583331 1 0.4166665 1 0.4166665 0.5 0.4166665 1 0.3749998 1 0.3749998 0.5 0.3749998 1 0.3333331 1 0.3333331 0.5 0.3333331 1 0.2916665 1 0.2916665 0.5 0.2916665 1 0.2499998 1 0.2499998 0.5 0.2499998 1 0.2083331 1 0.2083331 0.5 0.2083331 1 0.1666665 1 0.1666665 0.5 0.1666665 1 0.1249998 1 0.1249998 0.5 0.1249998 1 0.08333313 1 0.08333313 0.5 0.37 0.4578461 0.3121166 0.4818222 0.25 0.49 0.25 0.49 0.1878834 0.4818222 0.13 0.4578461 0.13 0.4578461 0.08029437 0.4197056 0.00999999 0.25 0.08029437 0.4197056 0.04215389 0.37 0.00999999 0.25 0.04215389 0.37 0.0181778 0.3121166 0.00999999 0.25 0.00999999 0.25 0.0181778 0.1878834 0.13 0.04215389 0.0181778 0.1878834 0.04215389 0.13 0.13 0.04215389 0.04215389 0.13 0.08029437 0.08029437 0.13 0.04215389 0.13 0.04215389 0.1878834 0.0181778 0.25 0.00999999 0.25 0.00999999 0.3121166 0.0181778 0.37 0.04215389 0.37 0.04215389 0.4197056 0.08029437 0.4578461 0.13 0.4578461 0.13 0.4818222 0.1878834 0.37 0.04215389 0.4818222 0.1878834 0.49 0.25 0.37 0.04215389 0.49 0.25 0.4818222 0.3121166 0.4578461 0.37 0.4578461 0.37 0.4197056 0.4197056 0.49 0.25 0.4197056 0.4197056 0.37 0.4578461 0.49 0.25 0.37 0.4578461 0.25 0.49 0.00999999 0.25 0.25 0.49 0.13 0.4578461 0.00999999 0.25 0.13 0.04215389 0.25 0.00999999 0.00999999 0.25 0.25 0.00999999 0.37 0.04215389 0.00999999 0.25 0.37 0.04215389 0.49 0.25 0.00999999 0.25 0.08333313 1 0.04166644 1 0.04166644 0.5 0.04166644 1 -1.86265e-7 1 -1.86265e-7 0.5 0.6878834 0.4818222 0.75 0.49 0.8121166 0.4818222 0.8121166 0.4818222 0.87 0.4578461 0.9197056 0.4197056 0.9197056 0.4197056 0.9578461 0.37 0.9818222 0.3121166 0.9818222 0.3121166 0.99 0.25 0.9197056 0.4197056 0.99 0.25 0.9818222 0.1878834 0.9197056 0.4197056 0.9818222 0.1878834 0.9578461 0.13 0.9197056 0.08029437 0.9197056 0.08029437 0.87 0.04215389 0.8121166 0.0181778 0.8121166 0.0181778 0.75 0.00999999 0.6878834 0.0181778 0.6878834 0.0181778 0.63 0.04215389 0.8121166 0.0181778 0.63 0.04215389 0.5802944 0.08029437 0.8121166 0.0181778 0.5802944 0.08029437 0.542154 0.13 0.5181778 0.1878834 0.5181778 0.1878834 0.51 0.25 0.5802944 0.08029437 0.51 0.25 0.5181778 0.3121166 0.5802944 0.08029437 0.5181778 0.3121166 0.542154 0.37 0.5802944 0.4197056 0.5802944 0.4197056 0.63 0.4578461 0.6878834 0.4818222 0.6878834 0.4818222 0.8121166 0.4818222 0.9197056 0.4197056 0.9818222 0.1878834 0.9197056 0.08029437 0.5802944 0.08029437 0.9197056 0.08029437 0.8121166 0.0181778 0.5802944 0.08029437 0.5181778 0.3121166 0.5802944 0.4197056 0.6878834 0.4818222 0.6878834 0.4818222 0.9197056 0.4197056 0.9818222 0.1878834 0.5802944 0.08029437 0.5181778 0.3121166 0.6878834 0.4818222 1 1 0.9583333 1 0.9583333 0.5 0.9583333 1 0.9166666 1 0.9166666 0.5 0.9166666 1 0.875 1 0.875 0.5 0.875 1 0.8333333 1 0.8333333 0.5 0.8333333 1 0.7916666 1 0.7916666 0.5 0.7916666 1 0.7499999 1 0.7499999 0.5 0.7499999 1 0.7083332 1 0.7083332 0.5 0.7083332 1 0.6666665 1 0.6666665 0.5 0.6666665 1 0.6249998 1 0.6249998 0.5 0.6249998 1 0.5833331 1 0.5833331 0.5 0.5833331 1 0.5416665 1 0.5416665 0.5 0.5416665 1 0.4999998 1 0.4999998 0.5 0.4999998 1 0.4583331 1 0.4583331 0.5 0.4583331 1 0.4166665 1 0.4166665 0.5 0.4166665 1 0.3749998 1 0.3749998 0.5 0.3749998 1 0.3333331 1 0.3333331 0.5 0.3333331 1 0.2916665 1 0.2916665 0.5 0.2916665 1 0.2499998 1 0.2499998 0.5 0.2499998 1 0.2083331 1 0.2083331 0.5 0.2083331 1 0.1666665 1 0.1666665 0.5 0.1666665 1 0.1249998 1 0.1249998 0.5 0.1249998 1 0.08333313 1 0.08333313 0.5 0.37 0.4578461 0.3121166 0.4818222 0.25 0.49 0.25 0.49 0.1878834 0.4818222 0.13 0.4578461 0.13 0.4578461 0.08029437 0.4197056 0.00999999 0.25 0.08029437 0.4197056 0.04215389 0.37 0.00999999 0.25 0.04215389 0.37 0.0181778 0.3121166 0.00999999 0.25 0.00999999 0.25 0.0181778 0.1878834 0.04215389 0.13 0.04215389 0.13 0.08029437 0.08029437 0.00999999 0.25 0.08029437 0.08029437 0.13 0.04215389 0.00999999 0.25 0.13 0.04215389 0.1878834 0.0181778 0.25 0.00999999 0.25 0.00999999 0.3121166 0.0181778 0.37 0.04215389 0.37 0.04215389 0.4197056 0.08029437 0.49 0.25 0.4197056 0.08029437 0.4578461 0.13 0.49 0.25 0.4578461 0.13 0.4818222 0.1878834 0.49 0.25 0.49 0.25 0.4818222 0.3121166 0.4578461 0.37 0.4578461 0.37 0.4197056 0.4197056 0.49 0.25 0.4197056 0.4197056 0.37 0.4578461 0.49 0.25 0.37 0.4578461 0.25 0.49 0.00999999 0.25 0.25 0.49 0.13 0.4578461 0.00999999 0.25 0.13 0.04215389 0.25 0.00999999 0.00999999 0.25 0.25 0.00999999 0.37 0.04215389 0.00999999 0.25 0.37 0.04215389 0.49 0.25 0.00999999 0.25 0.08333313 1 0.04166644 1 0.04166644 0.5 0.04166644 1 -1.86265e-7 1 -1.86265e-7 0.5 0.6878834 0.4818222 0.75 0.49 0.8121166 0.4818222 0.8121166 0.4818222 0.87 0.4578461 0.9197056 0.4197056 0.9197056 0.4197056 0.9578461 0.37 0.9818222 0.3121166 0.9818222 0.3121166 0.99 0.25 0.9197056 0.4197056 0.99 0.25 0.9818222 0.1878834 0.9197056 0.4197056 0.9818222 0.1878834 0.9578461 0.13 0.9197056 0.08029437 0.9197056 0.08029437 0.87 0.04215389 0.8121166 0.0181778 0.8121166 0.0181778 0.75 0.00999999 0.6878834 0.0181778 0.6878834 0.0181778 0.63 0.04215389 0.8121166 0.0181778 0.63 0.04215389 0.5802944 0.08029437 0.8121166 0.0181778 0.5802944 0.08029437 0.542154 0.13 0.5181778 0.1878834 0.5181778 0.1878834 0.51 0.25 0.5802944 0.08029437 0.51 0.25 0.5181778 0.3121166 0.5802944 0.08029437 0.5181778 0.3121166 0.542154 0.37 0.5802944 0.4197056 0.5802944 0.4197056 0.63 0.4578461 0.6878834 0.4818222 0.6878834 0.4818222 0.8121166 0.4818222 0.9197056 0.4197056 0.9818222 0.1878834 0.9197056 0.08029437 0.5802944 0.08029437 0.9197056 0.08029437 0.8121166 0.0181778 0.5802944 0.08029437 0.5181778 0.3121166 0.5802944 0.4197056 0.6878834 0.4818222 0.6878834 0.4818222 0.9197056 0.4197056 0.9818222 0.1878834 0.5802944 0.08029437 0.5181778 0.3121166 0.6878834 0.4818222 1 0.5 1 1 0.9375 1 0.9375 0.5 0.9375 1 0.875 1 0.875 0.5 0.875 1 0.8125 1 0.8125 0.5 0.8125 1 0.75 1 0.75 1 0.6875 1 0.6875 0.5 0.6875 1 0.625 1 0.625 0.5 0.625 1 0.5625 1 0.5625 0.5 0.5625 1 0.5 1 0.5 0.5 0.5 1 0.4375 1 0.4375 0.5 0.4375 1 0.375 1 0.375 0.5 0.375 1 0.3125 1 0.3125 0.5 0.3125 1 0.25 1 0.25 0.5 0.25 0.5 0.25 1 0.1875 1 0.1875 0.5 0.1875 1 0.125 1 0.4197056 0.4197056 0.341844 0.4717311 0.341844 0.02826893 0.341844 0.4717311 0.25 0.49 0.25 0.00999999 0.25 0.49 0.1581559 0.4717311 0.1581559 0.02826893 0.1581559 0.4717311 0.08029437 0.4197056 0.08029437 0.08029437 0.08029437 0.4197056 0.02826893 0.341844 0.00999999 0.25 0.00999999 0.25 0.02826893 0.1581559 0.08029437 0.4197056 0.02826893 0.1581559 0.08029437 0.08029437 0.08029437 0.4197056 0.08029437 0.08029437 0.1581559 0.02826893 0.1581559 0.4717311 0.1581559 0.02826893 0.25 0.00999999 0.25 0.49 0.25 0.00999999 0.341844 0.02826893 0.341844 0.4717311 0.341844 0.02826893 0.4197056 0.08029437 0.4197056 0.4197056 0.4197056 0.08029437 0.4717311 0.1581559 0.49 0.25 0.49 0.25 0.4717311 0.341844 0.4197056 0.08029437 0.125 0.5 0.125 1 0.0625 1 0.0625 0.5 0.0625 1 0 1 0.658156 0.4717311 0.75 0.49 0.75 0.00999999 0.75 0.49 0.841844 0.4717311 0.841844 0.02826893 0.841844 0.4717311 0.9197056 0.4197056 0.841844 0.02826893 0.9197056 0.4197056 0.9717311 0.341844 0.9197056 0.08029437 0.841844 0.02826893 0.9197056 0.4197056 0.9197056 0.08029437 0.9717311 0.341844 0.99 0.25 0.9717311 0.1581559 0.9717311 0.1581559 0.9197056 0.08029437 0.9717311 0.341844 0.841844 0.02826893 0.75 0.00999999 0.75 0.49 0.75 0.00999999 0.658156 0.02826893 0.658156 0.4717311 0.658156 0.02826893 0.5802944 0.08029437 0.658156 0.4717311 0.5802944 0.08029437 0.5282689 0.1581559 0.5802944 0.4197056 0.658156 0.4717311 0.5802944 0.08029437 0.5802944 0.4197056 0.5282689 0.1581559 0.51 0.25 0.5282689 0.341844 1 0.5 1 1 0.9375 1 0.9375 0.5 0.9375 1 0.875 1 0.875 0.5 0.875 1 0.8125 1 0.8125 0.5 0.8125 1 0.75 1 0.75 1 0.6875 1 0.6875 0.5 0.6875 1 0.625 1 0.625 0.5 0.625 1 0.5625 1 0.5625 0.5 0.5625 1 0.5 1 0.5 0.5 0.5 1 0.4375 1 0.4375 0.5 0.4375 1 0.375 1 0.375 0.5 0.375 1 0.3125 1 0.3125 0.5 0.3125 1 0.25 1 0.25 0.5 0.25 0.5 0.25 1 0.1875 1 0.1875 0.5 0.1875 1 0.125 1 0.4197056 0.4197056 0.341844 0.4717311 0.341844 0.02826893 0.341844 0.4717311 0.25 0.49 0.25 0.00999999 0.25 0.49 0.1581559 0.4717311 0.1581559 0.02826893 0.1581559 0.4717311 0.08029437 0.4197056 0.08029437 0.08029437 0.08029437 0.4197056 0.02826893 0.341844 0.08029437 0.08029437 0.02826893 0.341844 0.00999999 0.25 0.08029437 0.08029437 0.00999999 0.25 0.02826893 0.1581559 0.08029437 0.08029437 0.08029437 0.08029437 0.1581559 0.02826893 0.1581559 0.4717311 0.1581559 0.02826893 0.25 0.00999999 0.25 0.49 0.25 0.00999999 0.341844 0.02826893 0.341844 0.4717311 0.341844 0.02826893 0.4197056 0.08029437 0.4197056 0.4197056 0.4197056 0.08029437 0.4717311 0.1581559 0.49 0.25 0.49 0.25 0.4717311 0.341844 0.4197056 0.08029437 0.125 0.5 0.125 1 0.0625 1 0.0625 0.5 0.0625 1 0 1 0.658156 0.4717311 0.75 0.49 0.75 0.00999999 0.75 0.49 0.841844 0.4717311 0.841844 0.02826893 0.841844 0.4717311 0.9197056 0.4197056 0.841844 0.02826893 0.9197056 0.4197056 0.9717311 0.341844 0.9197056 0.08029437 0.841844 0.02826893 0.9197056 0.4197056 0.9197056 0.08029437 0.9717311 0.341844 0.99 0.25 0.9717311 0.1581559 0.9717311 0.1581559 0.9197056 0.08029437 0.9717311 0.341844 0.841844 0.02826893 0.75 0.00999999 0.75 0.49 0.75 0.00999999 0.658156 0.02826893 0.658156 0.4717311 0.658156 0.02826893 0.5802944 0.08029437 0.658156 0.4717311 0.5802944 0.08029437 0.5282689 0.1581559 0.5802944 0.4197056 0.658156 0.4717311 0.5802944 0.08029437 0.5802944 0.4197056 0.5282689 0.1581559 0.51 0.25 0.5282689 0.341844 1 0.5 1 1 0.9375 1 0.9375 0.5 0.9375 1 0.875 1 0.875 0.5 0.875 1 0.8125 1 0.8125 0.5 0.8125 1 0.75 1 0.75 1 0.6875 1 0.6875 0.5 0.6875 1 0.625 1 0.625 0.5 0.625 1 0.5625 1 0.5625 0.5 0.5625 1 0.5 1 0.5 0.5 0.5 1 0.4375 1 0.4375 0.5 0.4375 1 0.375 1 0.375 0.5 0.375 1 0.3125 1 0.3125 0.5 0.3125 1 0.25 1 0.25 0.5 0.25 0.5 0.25 1 0.1875 1 0.1875 0.5 0.1875 1 0.125 1 0.4197056 0.4197056 0.341844 0.4717311 0.341844 0.02826893 0.341844 0.4717311 0.25 0.49 0.25 0.00999999 0.25 0.49 0.1581559 0.4717311 0.1581559 0.02826893 0.1581559 0.4717311 0.08029437 0.4197056 0.08029437 0.08029437 0.08029437 0.4197056 0.02826893 0.341844 0.00999999 0.25 0.00999999 0.25 0.02826893 0.1581559 0.08029437 0.4197056 0.02826893 0.1581559 0.08029437 0.08029437 0.08029437 0.4197056 0.08029437 0.08029437 0.1581559 0.02826893 0.1581559 0.4717311 0.1581559 0.02826893 0.25 0.00999999 0.25 0.49 0.25 0.00999999 0.341844 0.02826893 0.341844 0.4717311 0.341844 0.02826893 0.4197056 0.08029437 0.4197056 0.4197056 0.4197056 0.08029437 0.4717311 0.1581559 0.4197056 0.4197056 0.4717311 0.1581559 0.49 0.25 0.4197056 0.4197056 0.125 0.5 0.125 1 0.0625 1 0.0625 0.5 0.0625 1 0 1 0.658156 0.4717311 0.75 0.49 0.75 0.00999999 0.75 0.49 0.841844 0.4717311 0.841844 0.02826893 0.841844 0.4717311 0.9197056 0.4197056 0.841844 0.02826893 0.9197056 0.4197056 0.9717311 0.341844 0.9197056 0.08029437 0.841844 0.02826893 0.9197056 0.4197056 0.9197056 0.08029437 0.9717311 0.341844 0.99 0.25 0.9717311 0.1581559 0.9717311 0.1581559 0.9197056 0.08029437 0.9717311 0.341844 0.841844 0.02826893 0.75 0.00999999 0.75 0.49 0.75 0.00999999 0.658156 0.02826893 0.658156 0.4717311 0.658156 0.02826893 0.5802944 0.08029437 0.658156 0.4717311 0.5802944 0.08029437 0.5282689 0.1581559 0.5802944 0.4197056 0.658156 0.4717311 0.5802944 0.08029437 0.5802944 0.4197056 0.5282689 0.1581559 0.51 0.25 0.5282689 0.341844 1 0.5 1 1 0.9375 1 0.9375 0.5 0.9375 1 0.875 1 0.875 0.5 0.875 1 0.8125 1 0.8125 0.5 0.8125 1 0.75 1 0.75 1 0.6875 1 0.6875 0.5 0.6875 1 0.625 1 0.625 0.5 0.625 1 0.5625 1 0.5625 0.5 0.5625 1 0.5 1 0.5 0.5 0.5 1 0.4375 1 0.4375 0.5 0.4375 1 0.375 1 0.375 0.5 0.375 1 0.3125 1 0.3125 0.5 0.3125 1 0.25 1 0.25 0.5 0.25 0.5 0.25 1 0.1875 1 0.1875 0.5 0.1875 1 0.125 1 0.4197056 0.4197056 0.341844 0.4717311 0.341844 0.02826893 0.341844 0.4717311 0.25 0.49 0.25 0.00999999 0.25 0.49 0.1581559 0.4717311 0.1581559 0.02826893 0.1581559 0.4717311 0.08029437 0.4197056 0.08029437 0.08029437 0.08029437 0.4197056 0.02826893 0.341844 0.00999999 0.25 0.00999999 0.25 0.02826893 0.1581559 0.08029437 0.4197056 0.02826893 0.1581559 0.08029437 0.08029437 0.08029437 0.4197056 0.08029437 0.08029437 0.1581559 0.02826893 0.1581559 0.4717311 0.1581559 0.02826893 0.25 0.00999999 0.25 0.49 0.25 0.00999999 0.341844 0.02826893 0.341844 0.4717311 0.341844 0.02826893 0.4197056 0.08029437 0.4197056 0.4197056 0.4197056 0.08029437 0.4717311 0.1581559 0.49 0.25 0.49 0.25 0.4717311 0.341844 0.4197056 0.08029437 0.125 0.5 0.125 1 0.0625 1 0.0625 0.5 0.0625 1 0 1 0.658156 0.4717311 0.75 0.49 0.75 0.00999999 0.75 0.49 0.841844 0.4717311 0.841844 0.02826893 0.841844 0.4717311 0.9197056 0.4197056 0.841844 0.02826893 0.9197056 0.4197056 0.9717311 0.341844 0.9197056 0.08029437 0.841844 0.02826893 0.9197056 0.4197056 0.9197056 0.08029437 0.9717311 0.341844 0.99 0.25 0.9717311 0.1581559 0.9717311 0.1581559 0.9197056 0.08029437 0.9717311 0.341844 0.841844 0.02826893 0.75 0.00999999 0.75 0.49 0.75 0.00999999 0.658156 0.02826893 0.658156 0.4717311 0.658156 0.02826893 0.5802944 0.08029437 0.658156 0.4717311 0.5802944 0.08029437 0.5282689 0.1581559 0.5802944 0.4197056 0.658156 0.4717311 0.5802944 0.08029437 0.5802944 0.4197056 0.5282689 0.1581559 0.51 0.25 0.5282689 0.341844 1 0.5 1 1 0.9375 1 0.9375 0.5 0.9375 1 0.875 1 0.875 0.5 0.875 1 0.8125 1 0.8125 0.5 0.8125 1 0.75 1 0.75 1 0.6875 1 0.6875 0.5 0.6875 1 0.625 1 0.625 0.5 0.625 1 0.5625 1 0.5625 0.5 0.5625 1 0.5 1 0.5 0.5 0.5 1 0.4375 1 0.4375 0.5 0.4375 1 0.375 1 0.375 0.5 0.375 1 0.3125 1 0.3125 0.5 0.3125 1 0.25 1 0.25 0.5 0.25 0.5 0.25 1 0.1875 1 0.1875 0.5 0.1875 1 0.125 1 0.4197056 0.4197056 0.341844 0.4717311 0.341844 0.02826893 0.341844 0.4717311 0.25 0.49 0.25 0.00999999 0.25 0.49 0.1581559 0.4717311 0.1581559 0.02826893 0.1581559 0.4717311 0.08029437 0.4197056 0.08029437 0.08029437 0.08029437 0.4197056 0.02826893 0.341844 0.08029437 0.08029437 0.02826893 0.341844 0.00999999 0.25 0.08029437 0.08029437 0.00999999 0.25 0.02826893 0.1581559 0.08029437 0.08029437 0.08029437 0.08029437 0.1581559 0.02826893 0.1581559 0.4717311 0.1581559 0.02826893 0.25 0.00999999 0.25 0.49 0.25 0.00999999 0.341844 0.02826893 0.341844 0.4717311 0.341844 0.02826893 0.4197056 0.08029437 0.4197056 0.4197056 0.4197056 0.08029437 0.4717311 0.1581559 0.4197056 0.4197056 0.4717311 0.1581559 0.49 0.25 0.4197056 0.4197056 0.125 0.5 0.125 1 0.0625 1 0.0625 0.5 0.0625 1 0 1 0.658156 0.4717311 0.75 0.49 0.75 0.00999999 0.75 0.49 0.841844 0.4717311 0.841844 0.02826893 0.841844 0.4717311 0.9197056 0.4197056 0.841844 0.02826893 0.9197056 0.4197056 0.9717311 0.341844 0.9197056 0.08029437 0.841844 0.02826893 0.9197056 0.4197056 0.9197056 0.08029437 0.9717311 0.341844 0.99 0.25 0.9717311 0.1581559 0.9717311 0.1581559 0.9197056 0.08029437 0.9717311 0.341844 0.841844 0.02826893 0.75 0.00999999 0.75 0.49 0.75 0.00999999 0.658156 0.02826893 0.658156 0.4717311 0.658156 0.02826893 0.5802944 0.08029437 0.658156 0.4717311 0.5802944 0.08029437 0.5282689 0.1581559 0.5802944 0.4197056 0.658156 0.4717311 0.5802944 0.08029437 0.5802944 0.4197056 0.5282689 0.1581559 0.51 0.25 0.5282689 0.341844 1 0.5 1 1 0.9375 1 0.9375 0.5 0.9375 1 0.875 1 0.875 0.5 0.875 1 0.8125 1 0.8125 0.5 0.8125 1 0.75 1 0.75 1 0.6875 1 0.6875 0.5 0.6875 1 0.625 1 0.625 0.5 0.625 1 0.5625 1 0.5625 0.5 0.5625 1 0.5 1 0.5 0.5 0.5 1 0.4375 1 0.4375 0.5 0.4375 1 0.375 1 0.375 0.5 0.375 1 0.3125 1 0.3125 0.5 0.3125 1 0.25 1 0.25 0.5 0.25 0.5 0.25 1 0.1875 1 0.1875 0.5 0.1875 1 0.125 1 0.4197056 0.4197056 0.341844 0.4717311 0.341844 0.02826893 0.341844 0.4717311 0.25 0.49 0.25 0.00999999 0.25 0.49 0.1581559 0.4717311 0.1581559 0.02826893 0.1581559 0.4717311 0.08029437 0.4197056 0.08029437 0.08029437 0.08029437 0.4197056 0.02826893 0.341844 0.00999999 0.25 0.00999999 0.25 0.02826893 0.1581559 0.08029437 0.4197056 0.02826893 0.1581559 0.08029437 0.08029437 0.08029437 0.4197056 0.08029437 0.08029437 0.1581559 0.02826893 0.1581559 0.4717311 0.1581559 0.02826893 0.25 0.00999999 0.25 0.49 0.25 0.00999999 0.341844 0.02826893 0.341844 0.4717311 0.341844 0.02826893 0.4197056 0.08029437 0.4197056 0.4197056 0.4197056 0.08029437 0.4717311 0.1581559 0.49 0.25 0.49 0.25 0.4717311 0.341844 0.4197056 0.08029437 0.125 0.5 0.125 1 0.0625 1 0.0625 0.5 0.0625 1 0 1 0.658156 0.4717311 0.75 0.49 0.75 0.00999999 0.75 0.49 0.841844 0.4717311 0.841844 0.02826893 0.841844 0.4717311 0.9197056 0.4197056 0.841844 0.02826893 0.9197056 0.4197056 0.9717311 0.341844 0.9197056 0.08029437 0.841844 0.02826893 0.9197056 0.4197056 0.9197056 0.08029437 0.9717311 0.341844 0.99 0.25 0.9717311 0.1581559 0.9717311 0.1581559 0.9197056 0.08029437 0.9717311 0.341844 0.841844 0.02826893 0.75 0.00999999 0.75 0.49 0.75 0.00999999 0.658156 0.02826893 0.658156 0.4717311 0.658156 0.02826893 0.5802944 0.08029437 0.658156 0.4717311 0.5802944 0.08029437 0.5282689 0.1581559 0.5802944 0.4197056 0.658156 0.4717311 0.5802944 0.08029437 0.5802944 0.4197056 0.5282689 0.1581559 0.51 0.25 0.5282689 0.341844 1 0.5 1 1 0.9375 1 0.9375 0.5 0.9375 1 0.875 1 0.875 0.5 0.875 1 0.8125 1 0.8125 0.5 0.8125 1 0.75 1 0.75 1 0.6875 1 0.6875 0.5 0.6875 1 0.625 1 0.625 0.5 0.625 1 0.5625 1 0.5625 0.5 0.5625 1 0.5 1 0.5 0.5 0.5 1 0.4375 1 0.4375 0.5 0.4375 1 0.375 1 0.375 0.5 0.375 1 0.3125 1 0.3125 0.5 0.3125 1 0.25 1 0.25 0.5 0.25 0.5 0.25 1 0.1875 1 0.1875 0.5 0.1875 1 0.125 1 0.4197056 0.4197056 0.341844 0.4717311 0.341844 0.02826893 0.341844 0.4717311 0.25 0.49 0.25 0.00999999 0.25 0.49 0.1581559 0.4717311 0.1581559 0.02826893 0.1581559 0.4717311 0.08029437 0.4197056 0.08029437 0.08029437 0.08029437 0.4197056 0.02826893 0.341844 0.08029437 0.08029437 0.02826893 0.341844 0.00999999 0.25 0.08029437 0.08029437 0.00999999 0.25 0.02826893 0.1581559 0.08029437 0.08029437 0.08029437 0.08029437 0.1581559 0.02826893 0.1581559 0.4717311 0.1581559 0.02826893 0.25 0.00999999 0.25 0.49 0.25 0.00999999 0.341844 0.02826893 0.341844 0.4717311 0.341844 0.02826893 0.4197056 0.08029437 0.4197056 0.4197056 0.4197056 0.08029437 0.4717311 0.1581559 0.4197056 0.4197056 0.4717311 0.1581559 0.49 0.25 0.4197056 0.4197056 0.125 0.5 0.125 1 0.0625 1 0.0625 0.5 0.0625 1 0 1 0.658156 0.4717311 0.75 0.49 0.75 0.00999999 0.75 0.49 0.841844 0.4717311 0.841844 0.02826893 0.841844 0.4717311 0.9197056 0.4197056 0.841844 0.02826893 0.9197056 0.4197056 0.9717311 0.341844 0.9197056 0.08029437 0.841844 0.02826893 0.9197056 0.4197056 0.9197056 0.08029437 0.9717311 0.341844 0.99 0.25 0.9717311 0.1581559 0.9717311 0.1581559 0.9197056 0.08029437 0.9717311 0.341844 0.841844 0.02826893 0.75 0.00999999 0.75 0.49 0.75 0.00999999 0.658156 0.02826893 0.658156 0.4717311 0.658156 0.02826893 0.5802944 0.08029437 0.658156 0.4717311 0.5802944 0.08029437 0.5282689 0.1581559 0.5802944 0.4197056 0.658156 0.4717311 0.5802944 0.08029437 0.5802944 0.4197056 0.5282689 0.1581559 0.51 0.25 0.5282689 0.341844 1 0.5 1 1 0.9375 1 0.9375 0.5 0.9375 1 0.875 1 0.875 0.5 0.875 1 0.8125 1 0.8125 0.5 0.8125 1 0.75 1 0.75 1 0.6875 1 0.6875 0.5 0.6875 1 0.625 1 0.625 0.5 0.625 1 0.5625 1 0.5625 0.5 0.5625 1 0.5 1 0.5 0.5 0.5 1 0.4375 1 0.4375 0.5 0.4375 1 0.375 1 0.375 0.5 0.375 1 0.3125 1 0.3125 0.5 0.3125 1 0.25 1 0.25 0.5 0.25 0.5 0.25 1 0.1875 1 0.1875 0.5 0.1875 1 0.125 1 0.4197056 0.4197056 0.341844 0.4717311 0.341844 0.02826893 0.341844 0.4717311 0.25 0.49 0.25 0.00999999 0.25 0.49 0.1581559 0.4717311 0.1581559 0.02826893 0.1581559 0.4717311 0.08029437 0.4197056 0.08029437 0.08029437 0.08029437 0.4197056 0.02826893 0.341844 0.08029437 0.08029437 0.02826893 0.341844 0.00999999 0.25 0.08029437 0.08029437 0.00999999 0.25 0.02826893 0.1581559 0.08029437 0.08029437 0.08029437 0.08029437 0.1581559 0.02826893 0.1581559 0.4717311 0.1581559 0.02826893 0.25 0.00999999 0.25 0.49 0.25 0.00999999 0.341844 0.02826893 0.341844 0.4717311 0.341844 0.02826893 0.4197056 0.08029437 0.4197056 0.4197056 0.4197056 0.08029437 0.4717311 0.1581559 0.4197056 0.4197056 0.4717311 0.1581559 0.49 0.25 0.4197056 0.4197056 0.125 0.5 0.125 1 0.0625 1 0.0625 0.5 0.0625 1 0 1 0.658156 0.4717311 0.75 0.49 0.75 0.00999999 0.75 0.49 0.841844 0.4717311 0.841844 0.02826893 0.841844 0.4717311 0.9197056 0.4197056 0.841844 0.02826893 0.9197056 0.4197056 0.9717311 0.341844 0.9197056 0.08029437 0.841844 0.02826893 0.9197056 0.4197056 0.9197056 0.08029437 0.9717311 0.341844 0.99 0.25 0.9717311 0.1581559 0.9717311 0.1581559 0.9197056 0.08029437 0.9717311 0.341844 0.841844 0.02826893 0.75 0.00999999 0.75 0.49 0.75 0.00999999 0.658156 0.02826893 0.658156 0.4717311 0.658156 0.02826893 0.5802944 0.08029437 0.658156 0.4717311 0.5802944 0.08029437 0.5282689 0.1581559 0.5802944 0.4197056 0.658156 0.4717311 0.5802944 0.08029437 0.5802944 0.4197056 0.5282689 0.1581559 0.51 0.25 0.5282689 0.341844</float_array>
          <technique_common>
            <accessor source="#Mesh_wheel_right_001-mesh-map-0-array" count="2268" stride="2">
              <param name="S" type="float"/>
              <param name="T" type="float"/>
            </accessor>
          </technique_common>
        </source>
        <vertices id="Mesh_wheel_right_001-mesh-vertices">
          <input semantic="POSITION" source="#Mesh_wheel_right_001-mesh-positions"/>
        </vertices>
        <triangles material="Mat_WheelHub-material" count="276">
          <input semantic="VERTEX" source="#Mesh_wheel_right_001-mesh-vertices" offset="0"/>
          <input semantic="NORMAL" source="#Mesh_wheel_right_001-mesh-normals" offset="1"/>
          <input semantic="TEXCOORD" source="#Mesh_wheel_right_001-mesh-map-0" offset="2" set="0"/>
          <p>1 0 0 2 0 1 0 0 2 3 1 3 4 1 4 2 1 5 5 2 6 6 2 7 4 2 8 7 3 9 8 3 10 6 3 11 9 4 12 10 4 13 8 4 14 11 5 15 12 5 16 10 5 17 13 6 18 14 6 19 12 6 20 15 7 21 16 7 22 14 7 23 17 8 24 18 8 25 16 8 26 19 9 27 20 9 28 18 9 29 21 10 30 22 10 31 20 10 32 23 11 33 24 11 34 22 11 35 25 12 36 26 12 37 24 12 38 27 13 39 28 13 40 26 13 41 29 14 42 30 14 43 28 14 44 31 15 45 32 15 46 30 15 47 32 16 48 35 16 49 34 16 50 34 17 51 37 17 52 36 17 53 37 18 54 38 18 55 36 18 56 39 19 57 40 19 58 38 19 59 41 20 60 42 20 61 40 20 62 43 21 63 44 21 64 42 21 65 37 22 66 21 22 67 5 22 68 45 23 69 46 23 70 44 23 71 47 24 72 0 24 73 46 24 74 14 25 75 30 25 76 46 25 77 49 26 78 50 26 79 48 26 80 51 27 81 52 27 82 50 27 83 53 28 84 54 28 85 52 28 86 55 29 87 56 29 88 54 29 89 57 30 90 58 30 91 56 30 92 59 31 93 60 31 94 58 31 95 61 32 96 62 32 97 60 32 98 63 33 99 64 33 100 62 33 101 65 34 102 66 34 103 64 34 104 67 35 105 68 35 106 66 35 107 69 36 108 70 36 109 68 36 110 71 37 111 72 37 112 70 37 113 73 38 114 74 38 115 72 38 116 75 39 117 76 39 118 74 39 119 77 40 120 78 40 121 76 40 122 79 41 123 80 41 124 78 41 125 81 42 126 82 42 127 80 42 128 83 43 129 84 43 130 82 43 131 85 44 132 86 44 133 84 44 134 87 45 135 88 45 136 86 45 137 89 46 138 90 46 139 88 46 140 91 47 141 92 47 142 90 47 143 61 48 144 53 48 145 85 48 146 93 49 147 94 49 148 92 49 149 95 50 150 48 50 151 94 50 152 62 51 153 78 51 154 94 51 155 97 52 156 98 52 157 96 52 158 99 53 159 100 53 160 98 53 161 101 54 162 102 54 163 100 54 164 103 55 165 104 55 166 102 55 167 105 56 168 106 56 169 104 56 170 107 57 171 108 57 172 106 57 173 109 58 174 110 58 175 108 58 176 111 59 177 112 59 178 110 59 179 113 60 180 114 60 181 112 60 182 115 61 183 116 61 184 114 61 185 117 62 186 118 62 187 116 62 188 119 63 189 120 63 190 118 63 191 121 64 192 122 64 193 120 64 194 123 65 195 124 65 196 122 65 197 125 66 198 126 66 199 124 66 200 127 67 201 128 67 202 126 67 203 129 68 204 130 68 205 128 68 206 131 69 207 132 69 208 130 69 209 133 70 210 134 70 211 132 70 212 135 71 213 136 71 214 134 71 215 137 72 216 138 72 217 136 72 218 139 73 219 140 73 220 138 73 221 109 74 222 101 74 223 133 74 224 141 75 225 142 75 226 140 75 227 143 76 228 96 76 229 142 76 230 110 77 231 126 77 232 142 77 233 1 222 666 3 222 667 2 222 668 3 223 669 5 223 670 4 223 671 5 224 672 7 224 673 6 224 674 7 225 675 9 225 676 8 225 677 9 226 678 11 226 679 10 226 680 11 227 681 13 227 682 12 227 683 13 228 684 15 228 685 14 228 686 15 229 687 17 229 688 16 229 689 17 230 690 19 230 691 18 230 692 19 231 693 21 231 694 20 231 695 21 232 696 23 232 697 22 232 698 23 233 699 25 233 700 24 233 701 25 234 702 27 234 703 26 234 704 27 235 705 29 235 706 28 235 707 29 236 708 31 236 709 30 236 710 31 237 711 33 237 712 32 237 713 32 238 714 33 238 715 35 238 716 34 239 717 35 239 718 37 239 719 37 240 720 39 240 721 38 240 722 39 241 723 41 241 724 40 241 725 41 242 726 43 242 727 42 242 728 43 243 729 45 243 730 44 243 731 5 244 732 3 244 733 1 244 734 1 245 735 47 245 736 45 245 737 45 246 738 43 246 739 41 246 740 41 247 741 39 247 742 37 247 743 37 248 744 35 248 745 33 248 746 33 249 747 31 249 748 29 249 749 29 250 750 27 250 751 25 250 752 25 251 753 23 251 754 21 251 755 21 252 756 19 252 757 17 252 758 17 253 759 15 253 760 21 253 761 15 254 762 13 254 763 21 254 764 13 255 765 11 255 766 9 255 767 9 256 768 7 256 769 5 256 770 5 257 771 1 257 772 45 257 773 45 258 774 41 258 775 5 258 776 41 259 777 37 259 778 5 259 779 37 260 780 33 260 781 29 260 782 29 261 783 25 261 784 21 261 785 13 262 786 9 262 787 21 262 788 9 263 789 5 263 790 21 263 791 37 264 792 29 264 793 21 264 794 45 265 795 47 265 796 46 265 797 47 266 798 1 266 799 0 266 800 46 267 801 0 267 802 2 267 803 2 268 804 4 268 805 46 268 806 4 269 807 6 269 808 46 269 809 6 270 810 8 270 811 10 270 812 10 271 813 12 271 814 14 271 815 14 272 816 16 272 817 18 272 818 18 273 819 20 273 820 14 273 821 20 274 822 22 274 823 14 274 824 22 275 825 24 275 826 26 275 827 26 276 828 28 276 829 22 276 830 28 277 831 30 277 832 22 277 833 30 278 834 32 278 835 38 278 836 32 279 837 34 279 838 38 279 839 34 280 840 36 280 841 38 280 842 38 281 843 40 281 844 42 281 845 42 282 846 44 282 847 38 282 848 44 283 849 46 283 850 38 283 851 6 284 852 10 284 853 46 284 854 10 285 855 14 285 856 46 285 857 14 286 858 22 286 859 30 286 860 30 287 861 38 287 862 46 287 863 49 288 864 51 288 865 50 288 866 51 289 867 53 289 868 52 289 869 53 290 870 55 290 871 54 290 872 55 291 873 57 291 874 56 291 875 57 292 876 59 292 877 58 292 878 59 293 879 61 293 880 60 293 881 61 294 882 63 294 883 62 294 884 63 295 885 65 295 886 64 295 887 65 296 888 67 296 889 66 296 890 67 297 891 69 297 892 68 297 893 69 298 894 71 298 895 70 298 896 71 299 897 73 299 898 72 299 899 73 300 900 75 300 901 74 300 902 75 301 903 77 301 904 76 301 905 77 302 906 79 302 907 78 302 908 79 303 909 81 303 910 80 303 911 81 304 912 83 304 913 82 304 914 83 305 915 85 305 916 84 305 917 85 306 918 87 306 919 86 306 920 87 307 921 89 307 922 88 307 923 89 308 924 91 308 925 90 308 926 91 309 927 93 309 928 92 309 929 53 310 930 51 310 931 49 310 932 49 311 933 95 311 934 93 311 935 93 312 936 91 312 937 85 312 938 91 313 939 89 313 940 85 313 941 89 314 942 87 314 943 85 314 944 85 315 945 83 315 946 77 315 947 83 316 948 81 316 949 77 316 950 81 317 951 79 317 952 77 317 953 77 318 954 75 318 955 73 318 956 73 319 957 71 319 958 69 319 959 69 320 960 67 320 961 65 320 962 65 321 963 63 321 964 69 321 965 63 322 966 61 322 967 69 322 968 61 323 969 59 323 970 57 323 971 57 324 972 55 324 973 61 324 974 55 325 975 53 325 976 61 325 977 53 326 978 49 326 979 85 326 980 49 327 981 93 327 982 85 327 983 77 328 984 73 328 985 85 328 986 73 329 987 69 329 988 85 329 989 69 330 990 61 330 991 85 330 992 93 331 993 95 331 994 94 331 995 95 332 996 49 332 997 48 332 998 94 333 999 48 333 1000 50 333 1001 50 334 1002 52 334 1003 54 334 1004 54 335 1005 56 335 1006 58 335 1007 58 336 1008 60 336 1009 54 336 1010 60 337 1011 62 337 1012 54 337 1013 62 338 1014 64 338 1015 66 338 1016 66 339 1017 68 339 1018 70 339 1019 70 340 1020 72 340 1021 74 340 1022 74 341 1023 76 341 1024 70 341 1025 76 342 1026 78 342 1027 70 342 1028 78 343 1029 80 343 1030 82 343 1031 82 344 1032 84 344 1033 78 344 1034 84 345 1035 86 345 1036 78 345 1037 86 346 1038 88 346 1039 90 346 1040 90 347 1041 92 347 1042 94 347 1043 94 348 1044 50 348 1045 54 348 1046 62 349 1047 66 349 1048 78 349 1049 66 350 1050 70 350 1051 78 350 1052 86 351 1053 90 351 1054 94 351 1055 94 352 1056 54 352 1057 62 352 1058 78 353 1059 86 353 1060 94 353 1061 97 354 1062 99 354 1063 98 354 1064 99 355 1065 101 355 1066 100 355 1067 101 356 1068 103 356 1069 102 356 1070 103 357 1071 105 357 1072 104 357 1073 105 358 1074 107 358 1075 106 358 1076 107 359 1077 109 359 1078 108 359 1079 109 360 1080 111 360 1081 110 360 1082 111 361 1083 113 361 1084 112 361 1085 113 362 1086 115 362 1087 114 362 1088 115 363 1089 117 363 1090 116 363 1091 117 364 1092 119 364 1093 118 364 1094 119 365 1095 121 365 1096 120 365 1097 121 366 1098 123 366 1099 122 366 1100 123 367 1101 125 367 1102 124 367 1103 125 368 1104 127 368 1105 126 368 1106 127 369 1107 129 369 1108 128 369 1109 129 370 1110 131 370 1111 130 370 1112 131 371 1113 133 371 1114 132 371 1115 133 372 1116 135 372 1117 134 372 1118 135 373 1119 137 373 1120 136 373 1121 137 374 1122 139 374 1123 138 374 1124 139 375 1125 141 375 1126 140 375 1127 101 376 1128 99 376 1129 97 376 1130 97 377 1131 143 377 1132 141 377 1133 141 378 1134 139 378 1135 133 378 1136 139 379 1137 137 379 1138 133 379 1139 137 380 1140 135 380 1141 133 380 1142 133 381 1143 131 381 1144 129 381 1145 129 382 1146 127 382 1147 133 382 1148 127 383 1149 125 383 1150 133 383 1151 125 384 1152 123 384 1153 121 384 1154 121 385 1155 119 385 1156 117 385 1157 117 386 1158 115 386 1159 109 386 1160 115 387 1161 113 387 1162 109 387 1163 113 388 1164 111 388 1165 109 388 1166 109 389 1167 107 389 1168 105 389 1169 105 390 1170 103 390 1171 109 390 1172 103 391 1173 101 391 1174 109 391 1175 101 392 1176 97 392 1177 133 392 1178 97 393 1179 141 393 1180 133 393 1181 125 394 1182 121 394 1183 133 394 1184 121 395 1185 117 395 1186 133 395 1187 117 396 1188 109 396 1189 133 396 1190 141 397 1191 143 397 1192 142 397 1193 143 398 1194 97 398 1195 96 398 1196 142 399 1197 96 399 1198 98 399 1199 98 400 1200 100 400 1201 102 400 1202 102 401 1203 104 401 1204 106 401 1205 106 402 1206 108 402 1207 102 402 1208 108 403 1209 110 403 1210 102 403 1211 110 404 1212 112 404 1213 114 404 1214 114 405 1215 116 405 1216 118 405 1217 118 406 1218 120 406 1219 122 406 1220 122 407 1221 124 407 1222 118 407 1223 124 408 1224 126 408 1225 118 408 1226 126 409 1227 128 409 1228 130 409 1229 130 410 1230 132 410 1231 126 410 1232 132 411 1233 134 411 1234 126 411 1235 134 412 1236 136 412 1237 138 412 1238 138 413 1239 140 413 1240 142 413 1241 142 414 1242 98 414 1243 102 414 1244 110 415 1245 114 415 1246 126 415 1247 114 416 1248 118 416 1249 126 416 1250 134 417 1251 138 417 1252 142 417 1253 142 418 1254 102 418 1255 110 418 1256 126 419 1257 134 419 1258 142 419 1259</p>
        </triangles>
        <triangles material="Mat_Roller-material" count="480">
          <input semantic="VERTEX" source="#Mesh_wheel_right_001-mesh-vertices" offset="0"/>
          <input semantic="NORMAL" source="#Mesh_wheel_right_001-mesh-normals" offset="1"/>
          <input semantic="TEXCOORD" source="#Mesh_wheel_right_001-mesh-map-0" offset="2" set="0"/>
          <p>144 78 234 147 78 235 146 78 236 146 79 237 149 79 238 148 79 239 148 80 240 151 80 241 150 80 242 150 81 243 153 81 244 152 81 245 153 82 246 154 82 247 152 82 248 155 83 249 156 83 250 154 83 251 157 84 252 158 84 253 156 84 254 159 85 255 160 85 256 158 85 257 161 86 258 162 86 259 160 86 260 163 87 261 164 87 262 162 87 263 165 88 264 166 88 265 164 88 266 167 89 267 168 89 268 166 89 269 168 90 270 171 90 271 170 90 272 170 91 273 173 91 274 172 91 275 151 92 276 149 92 277 157 92 278 172 93 279 175 93 280 174 93 281 174 94 282 145 94 283 144 94 284 170 95 285 172 95 286 166 95 287 176 96 288 179 96 289 178 96 290 178 97 291 181 97 292 180 97 293 180 98 294 183 98 295 182 98 296 182 99 297 185 99 298 184 99 299 185 100 300 186 100 301 184 100 302 187 101 303 188 101 304 186 101 305 189 102 306 190 102 307 188 102 308 191 103 309 192 103 310 190 103 311 193 104 312 194 104 313 192 104 314 195 105 315 196 105 316 194 105 317 197 106 318 198 106 319 196 106 320 199 107 321 200 107 322 198 107 323 200 108 324 203 108 325 202 108 326 202 109 327 205 109 328 204 109 329 183 110 330 181 110 331 189 110 332 204 111 333 207 111 334 206 111 335 206 112 336 177 112 337 176 112 338 202 113 339 204 113 340 198 113 341 208 114 342 211 114 343 210 114 344 210 115 345 213 115 346 212 115 347 212 116 348 215 116 349 214 116 350 214 117 351 217 117 352 216 117 353 217 118 354 218 118 355 216 118 356 219 119 357 220 119 358 218 119 359 221 120 360 222 120 361 220 120 362 223 121 363 224 121 364 222 121 365 225 122 366 226 122 367 224 122 368 227 123 369 228 123 370 226 123 371 229 124 372 230 124 373 228 124 374 231 125 375 232 125 376 230 125 377 232 126 378 235 126 379 234 126 380 234 127 381 237 127 382 236 127 383 217 128 384 215 128 385 213 128 386 236 129 387 239 129 388 238 129 389 238 130 390 209 130 391 208 130 392 234 131 393 236 131 394 230 131 395 240 132 396 243 132 397 242 132 398 242 133 399 245 133 400 244 133 401 244 134 402 247 134 403 246 134 404 246 135 405 249 135 406 248 135 407 249 136 408 250 136 409 248 136 410 251 137 411 252 137 412 250 137 413 253 138 414 254 138 415 252 138 416 255 139 417 256 139 418 254 139 419 257 140 420 258 140 421 256 140 422 259 141 423 260 141 424 258 141 425 261 142 426 262 142 427 260 142 428 263 143 429 264 143 430 262 143 431 264 144 432 267 144 433 266 144 434 266 145 435 269 145 436 268 145 437 247 146 438 245 146 439 253 146 440 268 147 441 271 147 442 270 147 443 270 148 444 241 148 445 240 148 446 266 149 447 268 149 448 262 149 449 272 150 450 275 150 451 274 150 452 274 151 453 277 151 454 276 151 455 276 152 456 279 152 457 278 152 458 278 153 459 281 153 460 280 153 461 281 154 462 282 154 463 280 154 464 283 155 465 284 155 466 282 155 467 285 156 468 286 156 469 284 156 470 287 157 471 288 157 472 286 157 473 289 158 474 290 158 475 288 158 476 291 159 477 292 159 478 290 159 479 293 160 480 294 160 481 292 160 482 295 161 483 296 161 484 294 161 485 296 162 486 299 162 487 298 162 488 298 163 489 301 163 490 300 163 491 281 164 492 279 164 493 277 164 494 300 165 495 303 165 496 302 165 497 302 166 498 273 166 499 272 166 500 298 167 501 300 167 502 294 167 503 304 168 504 307 168 505 306 168 506 306 169 507 309 169 508 308 169 509 308 170 510 311 170 511 310 170 512 310 171 513 313 171 514 312 171 515 313 172 516 314 172 517 312 172 518 315 173 519 316 173 520 314 173 521 317 174 522 318 174 523 316 174 524 319 175 525 320 175 526 318 175 527 321 176 528 322 176 529 320 176 530 323 177 531 324 177 532 322 177 533 325 178 534 326 178 535 324 178 536 327 179 537 328 179 538 326 179 539 328 180 540 331 180 541 330 180 542 330 181 543 333 181 544 332 181 545 311 182 546 309 182 547 317 182 548 332 183 549 335 183 550 334 183 551 334 184 552 305 184 553 304 184 554 330 185 555 332 185 556 326 185 557 336 186 558 339 186 559 338 186 560 338 187 561 341 187 562 340 187 563 340 188 564 343 188 565 342 188 566 342 189 567 345 189 568 344 189 569 345 190 570 346 190 571 344 190 572 347 191 573 348 191 574 346 191 575 349 192 576 350 192 577 348 192 578 351 193 579 352 193 580 350 193 581 353 194 582 354 194 583 352 194 584 355 195 585 356 195 586 354 195 587 357 196 588 358 196 589 356 196 590 359 197 591 360 197 592 358 197 593 360 198 594 363 198 595 362 198 596 362 199 597 365 199 598 364 199 599 345 200 600 343 200 601 341 200 602 364 201 603 367 201 604 366 201 605 366 202 606 337 202 607 336 202 608 362 203 609 364 203 610 358 203 611 368 204 612 371 204 613 370 204 614 370 205 615 373 205 616 372 205 617 372 206 618 375 206 619 374 206 620 374 207 621 377 207 622 376 207 623 377 208 624 378 208 625 376 208 626 379 209 627 380 209 628 378 209 629 381 210 630 382 210 631 380 210 632 383 211 633 384 211 634 382 211 635 385 212 636 386 212 637 384 212 638 387 213 639 388 213 640 386 213 641 389 214 642 390 214 643 388 214 644 391 215 645 392 215 646 390 215 647 392 216 648 395 216 649 394 216 650 394 217 651 397 217 652 396 217 653 377 218 654 375 218 655 373 218 656 396 219 657 399 219 658 398 219 659 398 220 660 369 220 661 368 220 662 394 221 663 396 221 664 390 221 665 144 420 1260 145 420 1261 147 420 1262 146 421 1263 147 421 1264 149 421 1265 148 422 1266 149 422 1267 151 422 1268 150 423 1269 151 423 1270 153 423 1271 153 424 1272 155 424 1273 154 424 1274 155 425 1275 157 425 1276 156 425 1277 157 426 1278 159 426 1279 158 426 1280 159 427 1281 161 427 1282 160 427 1283 161 428 1284 163 428 1285 162 428 1286 163 429 1287 165 429 1288 164 429 1289 165 430 1290 167 430 1291 166 430 1292 167 431 1293 169 431 1294 168 431 1295 168 432 1296 169 432 1297 171 432 1298 170 433 1299 171 433 1300 173 433 1301 149 434 1302 147 434 1303 159 434 1304 147 435 1305 145 435 1306 161 435 1307 145 436 1308 175 436 1309 163 436 1310 175 437 1311 173 437 1312 165 437 1313 173 438 1314 171 438 1315 169 438 1316 169 439 1317 167 439 1318 173 439 1319 167 440 1320 165 440 1321 173 440 1322 165 441 1323 163 441 1324 175 441 1325 163 442 1326 161 442 1327 145 442 1328 161 443 1329 159 443 1330 147 443 1331 159 444 1332 157 444 1333 149 444 1334 157 445 1335 155 445 1336 153 445 1337 153 446 1338 151 446 1339 157 446 1340 172 447 1341 173 447 1342 175 447 1343 174 448 1344 175 448 1345 145 448 1346 174 449 1347 144 449 1348 160 449 1349 144 450 1350 146 450 1351 158 450 1352 146 451 1353 148 451 1354 158 451 1355 148 452 1356 150 452 1357 156 452 1358 158 453 1359 148 453 1360 156 453 1361 150 454 1362 152 454 1363 154 454 1364 154 455 1365 156 455 1366 150 455 1367 158 456 1368 160 456 1369 144 456 1370 160 457 1371 162 457 1372 174 457 1373 162 458 1374 164 458 1375 174 458 1376 164 459 1377 166 459 1378 172 459 1379 174 460 1380 164 460 1381 172 460 1382 166 461 1383 168 461 1384 170 461 1385 176 462 1386 177 462 1387 179 462 1388 178 463 1389 179 463 1390 181 463 1391 180 464 1392 181 464 1393 183 464 1394 182 465 1395 183 465 1396 185 465 1397 185 466 1398 187 466 1399 186 466 1400 187 467 1401 189 467 1402 188 467 1403 189 468 1404 191 468 1405 190 468 1406 191 469 1407 193 469 1408 192 469 1409 193 470 1410 195 470 1411 194 470 1412 195 471 1413 197 471 1414 196 471 1415 197 472 1416 199 472 1417 198 472 1418 199 473 1419 201 473 1420 200 473 1421 200 474 1422 201 474 1423 203 474 1424 202 475 1425 203 475 1426 205 475 1427 181 476 1428 179 476 1429 191 476 1430 179 477 1431 177 477 1432 193 477 1433 177 478 1434 207 478 1435 195 478 1436 207 479 1437 205 479 1438 197 479 1439 205 480 1440 203 480 1441 197 480 1442 203 481 1443 201 481 1444 197 481 1445 201 482 1446 199 482 1447 197 482 1448 197 483 1449 195 483 1450 207 483 1451 195 484 1452 193 484 1453 177 484 1454 193 485 1455 191 485 1456 179 485 1457 191 486 1458 189 486 1459 181 486 1460 189 487 1461 187 487 1462 185 487 1463 185 488 1464 183 488 1465 189 488 1466 204 489 1467 205 489 1468 207 489 1469 206 490 1470 207 490 1471 177 490 1472 206 491 1473 176 491 1474 192 491 1475 176 492 1476 178 492 1477 190 492 1478 178 493 1479 180 493 1480 190 493 1481 180 494 1482 182 494 1483 188 494 1484 190 495 1485 180 495 1486 188 495 1487 182 496 1488 184 496 1489 186 496 1490 186 497 1491 188 497 1492 182 497 1493 190 498 1494 192 498 1495 176 498 1496 192 499 1497 194 499 1498 206 499 1499 194 500 1500 196 500 1501 206 500 1502 196 501 1503 198 501 1504 204 501 1505 206 502 1506 196 502 1507 204 502 1508 198 503 1509 200 503 1510 202 503 1511 208 504 1512 209 504 1513 211 504 1514 210 505 1515 211 505 1516 213 505 1517 212 506 1518 213 506 1519 215 506 1520 214 507 1521 215 507 1522 217 507 1523 217 508 1524 219 508 1525 218 508 1526 219 509 1527 221 509 1528 220 509 1529 221 510 1530 223 510 1531 222 510 1532 223 511 1533 225 511 1534 224 511 1535 225 512 1536 227 512 1537 226 512 1538 227 513 1539 229 513 1540 228 513 1541 229 514 1542 231 514 1543 230 514 1544 231 515 1545 233 515 1546 232 515 1547 232 516 1548 233 516 1549 235 516 1550 234 517 1551 235 517 1552 237 517 1553 213 518 1554 211 518 1555 223 518 1556 211 519 1557 209 519 1558 225 519 1559 209 520 1560 239 520 1561 227 520 1562 239 521 1563 237 521 1564 229 521 1565 237 522 1566 235 522 1567 233 522 1568 233 523 1569 231 523 1570 237 523 1571 231 524 1572 229 524 1573 237 524 1574 229 525 1575 227 525 1576 239 525 1577 227 526 1578 225 526 1579 209 526 1580 225 527 1581 223 527 1582 211 527 1583 223 528 1584 221 528 1585 213 528 1586 221 529 1587 219 529 1588 213 529 1589 219 530 1590 217 530 1591 213 530 1592 236 531 1593 237 531 1594 239 531 1595 238 532 1596 239 532 1597 209 532 1598 238 533 1599 208 533 1600 224 533 1601 208 534 1602 210 534 1603 222 534 1604 210 535 1605 212 535 1606 222 535 1607 212 536 1608 214 536 1609 220 536 1610 222 537 1611 212 537 1612 220 537 1613 214 538 1614 216 538 1615 218 538 1616 218 539 1617 220 539 1618 214 539 1619 222 540 1620 224 540 1621 208 540 1622 224 541 1623 226 541 1624 238 541 1625 226 542 1626 228 542 1627 238 542 1628 228 543 1629 230 543 1630 236 543 1631 238 544 1632 228 544 1633 236 544 1634 230 545 1635 232 545 1636 234 545 1637 240 546 1638 241 546 1639 243 546 1640 242 547 1641 243 547 1642 245 547 1643 244 548 1644 245 548 1645 247 548 1646 246 549 1647 247 549 1648 249 549 1649 249 550 1650 251 550 1651 250 550 1652 251 551 1653 253 551 1654 252 551 1655 253 552 1656 255 552 1657 254 552 1658 255 553 1659 257 553 1660 256 553 1661 257 554 1662 259 554 1663 258 554 1664 259 555 1665 261 555 1666 260 555 1667 261 556 1668 263 556 1669 262 556 1670 263 557 1671 265 557 1672 264 557 1673 264 558 1674 265 558 1675 267 558 1676 266 559 1677 267 559 1678 269 559 1679 245 560 1680 243 560 1681 255 560 1682 243 561 1683 241 561 1684 257 561 1685 241 562 1686 271 562 1687 259 562 1688 271 563 1689 269 563 1690 261 563 1691 269 564 1692 267 564 1693 265 564 1694 265 565 1695 263 565 1696 269 565 1697 263 566 1698 261 566 1699 269 566 1700 261 567 1701 259 567 1702 271 567 1703 259 568 1704 257 568 1705 241 568 1706 257 569 1707 255 569 1708 243 569 1709 255 570 1710 253 570 1711 245 570 1712 253 571 1713 251 571 1714 249 571 1715 249 572 1716 247 572 1717 253 572 1718 268 573 1719 269 573 1720 271 573 1721 270 574 1722 271 574 1723 241 574 1724 270 575 1725 240 575 1726 256 575 1727 240 576 1728 242 576 1729 254 576 1730 242 577 1731 244 577 1732 254 577 1733 244 578 1734 246 578 1735 252 578 1736 254 579 1737 244 579 1738 252 579 1739 246 580 1740 248 580 1741 250 580 1742 250 581 1743 252 581 1744 246 581 1745 254 582 1746 256 582 1747 240 582 1748 256 583 1749 258 583 1750 270 583 1751 258 584 1752 260 584 1753 270 584 1754 260 585 1755 262 585 1756 268 585 1757 270 586 1758 260 586 1759 268 586 1760 262 587 1761 264 587 1762 266 587 1763 272 588 1764 273 588 1765 275 588 1766 274 589 1767 275 589 1768 277 589 1769 276 590 1770 277 590 1771 279 590 1772 278 591 1773 279 591 1774 281 591 1775 281 592 1776 283 592 1777 282 592 1778 283 593 1779 285 593 1780 284 593 1781 285 594 1782 287 594 1783 286 594 1784 287 595 1785 289 595 1786 288 595 1787 289 596 1788 291 596 1789 290 596 1790 291 597 1791 293 597 1792 292 597 1793 293 598 1794 295 598 1795 294 598 1796 295 599 1797 297 599 1798 296 599 1799 296 600 1800 297 600 1801 299 600 1802 298 601 1803 299 601 1804 301 601 1805 277 602 1806 275 602 1807 287 602 1808 275 603 1809 273 603 1810 289 603 1811 273 604 1812 303 604 1813 291 604 1814 303 605 1815 301 605 1816 293 605 1817 301 606 1818 299 606 1819 293 606 1820 299 607 1821 297 607 1822 293 607 1823 297 608 1824 295 608 1825 293 608 1826 293 609 1827 291 609 1828 303 609 1829 291 610 1830 289 610 1831 273 610 1832 289 611 1833 287 611 1834 275 611 1835 287 612 1836 285 612 1837 277 612 1838 285 613 1839 283 613 1840 277 613 1841 283 614 1842 281 614 1843 277 614 1844 300 615 1845 301 615 1846 303 615 1847 302 616 1848 303 616 1849 273 616 1850 302 617 1851 272 617 1852 288 617 1853 272 618 1854 274 618 1855 286 618 1856 274 619 1857 276 619 1858 286 619 1859 276 620 1860 278 620 1861 284 620 1862 286 621 1863 276 621 1864 284 621 1865 278 622 1866 280 622 1867 282 622 1868 282 623 1869 284 623 1870 278 623 1871 286 624 1872 288 624 1873 272 624 1874 288 625 1875 290 625 1876 302 625 1877 290 626 1878 292 626 1879 302 626 1880 292 627 1881 294 627 1882 300 627 1883 302 628 1884 292 628 1885 300 628 1886 294 629 1887 296 629 1888 298 629 1889 304 630 1890 305 630 1891 307 630 1892 306 631 1893 307 631 1894 309 631 1895 308 632 1896 309 632 1897 311 632 1898 310 633 1899 311 633 1900 313 633 1901 313 634 1902 315 634 1903 314 634 1904 315 635 1905 317 635 1906 316 635 1907 317 636 1908 319 636 1909 318 636 1910 319 637 1911 321 637 1912 320 637 1913 321 638 1914 323 638 1915 322 638 1916 323 639 1917 325 639 1918 324 639 1919 325 640 1920 327 640 1921 326 640 1922 327 641 1923 329 641 1924 328 641 1925 328 642 1926 329 642 1927 331 642 1928 330 643 1929 331 643 1930 333 643 1931 309 644 1932 307 644 1933 319 644 1934 307 645 1935 305 645 1936 321 645 1937 305 646 1938 335 646 1939 323 646 1940 335 647 1941 333 647 1942 325 647 1943 333 648 1944 331 648 1945 329 648 1946 329 649 1947 327 649 1948 333 649 1949 327 650 1950 325 650 1951 333 650 1952 325 651 1953 323 651 1954 335 651 1955 323 652 1956 321 652 1957 305 652 1958 321 653 1959 319 653 1960 307 653 1961 319 654 1962 317 654 1963 309 654 1964 317 655 1965 315 655 1966 313 655 1967 313 656 1968 311 656 1969 317 656 1970 332 657 1971 333 657 1972 335 657 1973 334 658 1974 335 658 1975 305 658 1976 334 659 1977 304 659 1978 320 659 1979 304 660 1980 306 660 1981 318 660 1982 306 661 1983 308 661 1984 318 661 1985 308 662 1986 310 662 1987 316 662 1988 318 663 1989 308 663 1990 316 663 1991 310 664 1992 312 664 1993 314 664 1994 314 665 1995 316 665 1996 310 665 1997 318 666 1998 320 666 1999 304 666 2000 320 667 2001 322 667 2002 334 667 2003 322 668 2004 324 668 2005 334 668 2006 324 669 2007 326 669 2008 332 669 2009 334 670 2010 324 670 2011 332 670 2012 326 671 2013 328 671 2014 330 671 2015 336 672 2016 337 672 2017 339 672 2018 338 673 2019 339 673 2020 341 673 2021 340 674 2022 341 674 2023 343 674 2024 342 675 2025 343 675 2026 345 675 2027 345 676 2028 347 676 2029 346 676 2030 347 677 2031 349 677 2032 348 677 2033 349 678 2034 351 678 2035 350 678 2036 351 679 2037 353 679 2038 352 679 2039 353 680 2040 355 680 2041 354 680 2042 355 681 2043 357 681 2044 356 681 2045 357 682 2046 359 682 2047 358 682 2048 359 683 2049 361 683 2050 360 683 2051 360 684 2052 361 684 2053 363 684 2054 362 685 2055 363 685 2056 365 685 2057 341 686 2058 339 686 2059 351 686 2060 339 687 2061 337 687 2062 353 687 2063 337 688 2064 367 688 2065 355 688 2066 367 689 2067 365 689 2068 357 689 2069 365 690 2070 363 690 2071 357 690 2072 363 691 2073 361 691 2074 357 691 2075 361 692 2076 359 692 2077 357 692 2078 357 693 2079 355 693 2080 367 693 2081 355 694 2082 353 694 2083 337 694 2084 353 695 2085 351 695 2086 339 695 2087 351 696 2088 349 696 2089 341 696 2090 349 697 2091 347 697 2092 341 697 2093 347 698 2094 345 698 2095 341 698 2096 364 699 2097 365 699 2098 367 699 2099 366 700 2100 367 700 2101 337 700 2102 366 701 2103 336 701 2104 352 701 2105 336 702 2106 338 702 2107 350 702 2108 338 703 2109 340 703 2110 350 703 2111 340 704 2112 342 704 2113 348 704 2114 350 705 2115 340 705 2116 348 705 2117 342 706 2118 344 706 2119 346 706 2120 346 707 2121 348 707 2122 342 707 2123 350 708 2124 352 708 2125 336 708 2126 352 709 2127 354 709 2128 366 709 2129 354 710 2130 356 710 2131 366 710 2132 356 711 2133 358 711 2134 364 711 2135 366 712 2136 356 712 2137 364 712 2138 358 713 2139 360 713 2140 362 713 2141 368 714 2142 369 714 2143 371 714 2144 370 715 2145 371 715 2146 373 715 2147 372 716 2148 373 716 2149 375 716 2150 374 717 2151 375 717 2152 377 717 2153 377 718 2154 379 718 2155 378 718 2156 379 719 2157 381 719 2158 380 719 2159 381 720 2160 383 720 2161 382 720 2162 383 721 2163 385 721 2164 384 721 2165 385 722 2166 387 722 2167 386 722 2168 387 723 2169 389 723 2170 388 723 2171 389 724 2172 391 724 2173 390 724 2174 391 725 2175 393 725 2176 392 725 2177 392 726 2178 393 726 2179 395 726 2180 394 727 2181 395 727 2182 397 727 2183 373 728 2184 371 728 2185 383 728 2186 371 729 2187 369 729 2188 385 729 2189 369 730 2190 399 730 2191 387 730 2192 399 731 2193 397 731 2194 389 731 2195 397 732 2196 395 732 2197 389 732 2198 395 733 2199 393 733 2200 389 733 2201 393 734 2202 391 734 2203 389 734 2204 389 735 2205 387 735 2206 399 735 2207 387 736 2208 385 736 2209 369 736 2210 385 737 2211 383 737 2212 371 737 2213 383 738 2214 381 738 2215 373 738 2216 381 739 2217 379 739 2218 373 739 2219 379 740 2220 377 740 2221 373 740 2222 396 741 2223 397 741 2224 399 741 2225 398 742 2226 399 742 2227 369 742 2228 398 743 2229 368 743 2230 384 743 2231 368 744 2232 370 744 2233 382 744 2234 370 745 2235 372 745 2236 382 745 2237 372 746 2238 374 746 2239 380 746 2240 382 747 2241 372 747 2242 380 747 2243 374 748 2244 376 748 2245 378 748 2246 378 749 2247 380 749 2248 374 749 2249 382 750 2250 384 750 2251 368 750 2252 384 751 2253 386 751 2254 398 751 2255 386 752 2256 388 752 2257 398 752 2258 388 753 2259 390 753 2260 396 753 2261 398 754 2262 388 754 2263 396 754 2264 390 755 2265 392 755 2266 394 755 2267</p>
        </triangles>
      </mesh>
    </geometry>
  </library_geometries>
  <library_visual_scenes>
    <visual_scene id="Scene" name="Scene">
      <node id="TMP_wheel_right" name="TMP_wheel_right" type="NODE">
        <matrix sid="transform">1 0 0 0 0 1 0 0 0 0 1 0 0 0 0 1</matrix>
        <instance_geometry url="#Mesh_wheel_right_001-mesh" name="TMP_wheel_right">
          <bind_material>
            <technique_common>
              <instance_material symbol="Mat_WheelHub-material" target="#Mat_WheelHub-material">
                <bind_vertex_input semantic="UV 贴图" input_semantic="TEXCOORD" input_set="0"/>
              </instance_material>
              <instance_material symbol="Mat_Roller-material" target="#Mat_Roller-material">
                <bind_vertex_input semantic="UV 贴图" input_semantic="TEXCOORD" input_set="0"/>
              </instance_material>
            </technique_common>
          </bind_material>
        </instance_geometry>
      </node>
    </visual_scene>
  </library_visual_scenes>
  <scene>
    <instance_visual_scene url="#Scene"/>
  </scene>
</COLLADA>