<?xml version="1.0" encoding="utf-8"?>
<COLLADA xmlns="http://www.collada.org/2005/11/COLLADASchema" version="1.4.1" xmlns:xsi="http://www.w3.org/2001/XMLSchema-instance">
  <asset>
    <contributor>
      <author>Blender User</author>
      <authoring_tool>Blender 4.2.21 LTS commit date:2026-05-18, commit time:13:31, hash:62e63fd49c8c</authoring_tool>
    </contributor>
    <created>2026-07-22T00:26:43</created>
    <modified>2026-07-22T00:26:43</modified>
    <unit name="meter" meter="1"/>
    <up_axis>Z_UP</up_axis>
  </asset>
  <library_effects>
    <effect id="Mat_WheelHub-effect">
      <profile_COMMON>
        <technique sid="common">
          <lambert>
            <emission>
              <color sid="emission">0 0 0 1</color>
            </emission>
            <diffuse>
              <color sid="diffuse">0.8 0.8 0.8 1</color>
            </diffuse>
            <index_of_refraction>
              <float sid="ior">1.5</float>
            </index_of_refraction>
          </lambert>
        </technique>
      </profile_COMMON>
    </effect>
    <effect id="Mat_Roller-effect">
      <profile_COMMON>
        <technique sid="common">
          <lambert>
            <emission>
              <color sid="emission">0 0 0 1</color>
            </emission>
            <diffuse>
              <color sid="diffuse">0.8 0.8 0.8 1</color>
            </diffuse>
            <index_of_refraction>
              <float sid="ior">1.5</float>
            </index_of_refraction>
          </lambert>
        </technique>
      </profile_COMMON>
    </effect>
  </library_effects>
  <library_images/>
  <library_materials>
    <material id="Mat_WheelHub-material" name="Mat_WheelHub">
      <instance_effect url="#Mat_WheelHub-effect"/>
    </material>
    <material id="Mat_Roller-material" name="Mat_Roller">
      <instance_effect url="#Mat_Roller-effect"/>
    </material>
  </library_materials>
  <library_geometries>
    <geometry id="Mesh_wheel_left_002-mesh" name="Mesh_wheel_left.002">
      <mesh>
        <source id="Mesh_wheel_left_002-mesh-positions">
          <float_array id="Mesh_wheel_left_002-mesh-positions-array" count="1200">0 0.007654964 0.01553398 0 -0.007654964 0.01553398 0.004020452 0.007654964 0.01500463 0.004020452 -0.007654964 0.01500463 0.007766962 0.007654964 0.01345276 0.007766962 -0.007654964 0.01345276 0.01098418 0.007654964 0.01098418 0.01098418 -0.007654964 0.01098418 0.01345276 0.007654964 0.007766962 0.01345276 -0.007654964 0.007766962 0.01500463 0.007654964 0.004020452 0.01500463 -0.007654964 0.004020452 0.01553398 0.007654964 0 0.01553398 -0.007654964 0 0.01500463 0.007654964 -0.004020452 0.01500463 -0.007654964 -0.004020452 0.01345276 0.007654964 -0.007766962 0.01345276 -0.007654964 -0.007766962 0.01098418 0.007654964 -0.01098418 0.01098418 -0.007654964 -0.01098418 0.007766962 0.007654964 -0.01345276 0.007766962 -0.007654964 -0.01345276 0.004020452 0.007654964 -0.01500463 0.004020452 -0.007654964 -0.01500463 0 0.007654964 -0.01553398 0 -0.007654964 -0.01553398 -0.004020452 0.007654964 -0.01500463 -0.004020452 -0.007654964 -0.01500463 -0.007766962 0.007654964 -0.01345276 -0.007766962 -0.007654964 -0.01345276 -0.01098418 0.007654964 -0.01098418 -0.01098418 -0.007654964 -0.01098418 -0.01345276 0.007654964 -0.007766962 -0.01345276 -0.007654964 -0.007766962 -0.01500463 0.007654964 -0.004020452 -0.01500463 -0.007654964 -0.004020452 -0.01553398 0.007654964 0 -0.01553398 -0.007654964 0 -0.01500463 0.007654964 0.004020452 -0.01500463 -0.007654964 0.004020452 -0.01345276 0.007654964 0.007766962 -0.01345276 -0.007654964 0.007766962 -0.01098418 0.007654964 0.01098418 -0.01098418 -0.007654964 0.01098418 -0.007766962 0.007654964 0.01345276 -0.007766962 -0.007654964 0.01345276 -0.004020452 0.007654964 0.01500463 -0.004020452 -0.007654964 0.01500463 0 0.01530998 0.02854365 0 0.01280999 0.02854365 0.007387638 0.01530998 0.02757108 0.007387638 0.01280999 0.02757108 0.01427179 0.01530998 0.02471953 0.01427179 0.01280999 0.02471953 0.02018338 0.01530998 0.02018338 0.02018338 0.01280999 0.02018338 0.02471953 0.01530998 0.01427179 0.02471953 0.01280999 0.01427179 0.02757108 0.01530998 0.007387638 0.02757108 0.01280999 0.007387638 0.02854365 0.01530998 0 0.02854365 0.01280999 0 0.02757108 0.01530998 -0.007387638 0.02757108 0.01280999 -0.007387638 0.02471953 0.01530998 -0.01427179 0.02471953 0.01280999 -0.01427179 0.02018338 0.01530998 -0.02018338 0.02018338 0.01280999 -0.02018338 0.01427179 0.01530998 -0.02471953 0.01427179 0.01280999 -0.02471953 0.007387638 0.01530998 -0.02757108 0.007387638 0.01280999 -0.02757108 0 0.01530998 -0.02854365 0 0.01280999 -0.02854365 -0.007387638 0.01530998 -0.02757108 -0.007387638 0.01280999 -0.02757108 -0.01427179 0.01530998 -0.02471953 -0.01427179 0.01280999 -0.02471953 -0.02018338 0.01530998 -0.02018338 -0.02018338 0.01280999 -0.02018338 -0.02471953 0.01530998 -0.01427179 -0.02471953 0.01280999 -0.01427179 -0.02757108 0.01530998 -0.007387638 -0.02757108 0.01280999 -0.007387638 -0.02854365 0.01530998 0 -0.02854365 0.01280999 0 -0.02757108 0.01530998 0.007387638 -0.02757108 0.01280999 0.007387638 -0.02471953 0.01530998 0.01427179 -0.02471953 0.01280999 0.01427179 -0.02018338 0.01530998 0.02018338 -0.02018338 0.01280999 0.02018338 -0.01427179 0.01530998 0.02471953 -0.01427179 0.01280999 0.02471953 -0.007387638 0.01530998 0.02757108 -0.007387638 0.01280999 0.02757108 0 -0.01280999 0.02854365 0 -0.01530998 0.02854365 0.007387638 -0.01280999 0.02757108 0.007387638 -0.01530998 0.02757108 0.01427179 -0.01280999 0.02471953 0.01427179 -0.01530998 0.02471953 0.02018338 -0.01280999 0.02018338 0.02018338 -0.01530998 0.02018338 0.02471953 -0.01280999 0.01427179 0.02471953 -0.01530998 0.01427179 0.02757108 -0.01280999 0.007387638 0.02757108 -0.01530998 0.007387638 0.02854365 -0.01280999 0 0.02854365 -0.01530998 0 0.02757108 -0.01280999 -0.007387638 0.02757108 -0.01530998 -0.007387638 0.02471953 -0.01280999 -0.01427179 0.02471953 -0.01530998 -0.01427179 0.02018338 -0.01280999 -0.02018338 0.02018338 -0.01530998 -0.02018338 0.01427179 -0.01280999 -0.02471953 0.01427179 -0.01530998 -0.02471953 0.007387638 -0.01280999 -0.02757108 0.007387638 -0.01530998 -0.02757108 0 -0.01280999 -0.02854365 0 -0.01530998 -0.02854365 -0.007387638 -0.01280999 -0.02757108 -0.007387638 -0.01530998 -0.02757108 -0.01427179 -0.01280999 -0.02471953 -0.01427179 -0.01530998 -0.02471953 -0.02018338 -0.01280999 -0.02018338 -0.02018338 -0.01530998 -0.02018338 -0.02471953 -0.01280999 -0.01427179 -0.02471953 -0.01530998 -0.01427179 -0.02757108 -0.01280999 -0.007387638 -0.02757108 -0.01530998 -0.007387638 -0.02854365 -0.01280999 0 -0.02854365 -0.01530998 0 -0.02757108 -0.01280999 0.007387638 -0.02757108 -0.01530998 0.007387638 -0.02471953 -0.01280999 0.01427179 -0.02471953 -0.01530998 0.01427179 -0.02018338 -0.01280999 0.02018338 -0.02018338 -0.01530998 0.02018338 -0.01427179 -0.01280999 0.02471953 -0.01427179 -0.01530998 0.02471953 -0.007387638 -0.01280999 0.02757108 -0.007387638 -0.01530998 0.02757108 0.02999997 0.005656838 -0.005492091 0.02999997 -0.005656838 0.005492031 0.02955657 0.004033207 -0.007068336 0.02955657 -0.007280409 0.003915786 0.02829378 0.002656817 -0.008404672 0.02829378 -0.008656799 0.00257945 0.02640396 0.001737117 -0.009297609 0.02640396 -0.009576499 0.001686513 0.02417474 0.001414179 -0.009611129 0.02417474 -0.009899497 0.001372992 0.02194553 0.001737117 -0.009297609 0.02194553 -0.009576499 0.001686513 0.02005565 0.002656817 -0.008404672 0.02005565 -0.008656799 0.00257945 0.01879292 0.004033207 -0.007068336 0.01879292 -0.007280409 0.003915786 0.01834946 0.005656838 -0.005492091 0.01834946 -0.005656838 0.005492091 0.01879292 0.007280409 -0.003915786 0.01879292 -0.004033207 0.007068336 0.02005565 0.008656799 -0.00257945 0.02005565 -0.002656817 0.008404672 0.02194553 0.009576499 -0.001686513 0.02194553 -0.001737117 0.009297609 0.02417474 0.009899497 -0.001372992 0.02417474 -0.001414179 0.009611129 0.02640396 0.009576499 -0.001686513 0.02640396 -0.001737117 0.009297609 0.02829378 0.008656799 -0.00257945 0.02829378 -0.002656817 0.008404672 0.02955657 0.007280409 -0.003915786 0.02955657 -0.004033207 0.007068336 0.02509665 0.005656838 0.01732969 0.01732969 -0.005656838 0.02509665 0.02589774 0.004033207 0.0159015 0.01813077 -0.007280409 0.02366852 0.02594977 0.002656817 0.01406371 0.01818275 -0.008656799 0.02183067 0.02524483 0.001737117 0.01209598 0.01747781 -0.009576499 0.019863 0.02389025 0.001414179 0.01029801 0.01612323 -0.009899497 0.01806497 0.02209222 0.001737117 0.008943378 0.0143252 -0.009576499 0.0167104 0.02012449 0.002656817 0.008238434 0.01235753 -0.008656799 0.01600545 0.0182867 0.004033207 0.008290469 0.01051968 -0.007280409 0.01605749 0.01685851 0.005656838 0.009091556 0.009091556 -0.005656838 0.01685851 0.01605749 0.007280409 0.01051968 0.008290469 -0.004033207 0.0182867 0.01600545 0.008656799 0.01235753 0.008238434 -0.002656817 0.02012449 0.0167104 0.009576499 0.0143252 0.008943378 -0.001737117 0.02209222 0.01806497 0.009899437 0.01612323 0.01029801 -0.001414179 0.02389025 0.019863 0.009576499 0.01747781 0.01209598 -0.001737117 0.02524483 0.02183067 0.008656799 0.01818275 0.01406371 -0.002656817 0.02594977 0.02366852 0.007280409 0.01813077 0.0159015 -0.004033207 0.02589774 0.005492031 0.005656838 0.02999997 -0.005492091 -0.005656838 0.02999997 0.007068336 0.004033207 0.02955657 -0.003915786 -0.007280409 0.02955657 0.008404672 0.002656817 0.02829378 -0.00257945 -0.008656799 0.02829378 0.009297609 0.001737117 0.02640396 -0.001686513 -0.009576499 0.02640396 0.009611129 0.001414179 0.02417474 -0.001372992 -0.009899497 0.02417474 0.009297609 0.001737117 0.02194553 -0.001686513 -0.009576499 0.02194553 0.008404672 0.002656817 0.02005565 -0.00257945 -0.008656799 0.02005565 0.007068336 0.004033207 0.01879292 -0.003915786 -0.007280409 0.01879292 0.005492031 0.005656838 0.01834946 -0.005492091 -0.005656838 0.01834946 0.003915786 0.007280409 0.01879292 -0.007068336 -0.004033207 0.01879292 0.00257945 0.008656799 0.02005565 -0.008404672 -0.002656817 0.02005565 0.001686513 0.009576499 0.02194553 -0.009297609 -0.001737117 0.02194553 0.001372992 0.009899437 0.02417474 -0.009611129 -0.001414179 0.02417474 0.001686513 0.009576499 0.02640396 -0.009297609 -0.001737117 0.02640396 0.00257945 0.008656799 0.02829378 -0.008404672 -0.002656817 0.02829378 0.003915786 0.007280409 0.02955657 -0.007068336 -0.004033207 0.02955657 -0.01732969 0.005656838 0.02509665 -0.02509665 -0.005656838 0.01732969 -0.0159015 0.004033207 0.02589774 -0.02366852 -0.007280409 0.01813077 -0.01406371 0.002656817 0.02594977 -0.02183067 -0.008656799 0.01818275 -0.01209598 0.001737117 0.02524483 -0.019863 -0.009576499 0.01747781 -0.01029801 0.001414179 0.02389025 -0.01806497 -0.009899497 0.01612323 -0.008943378 0.001737117 0.02209222 -0.0167104 -0.009576499 0.0143252 -0.008238434 0.002656817 0.02012449 -0.01600545 -0.008656799 0.01235753 -0.008290469 0.004033207 0.0182867 -0.01605749 -0.007280409 0.01051968 -0.009091556 0.005656838 0.01685851 -0.01685851 -0.005656838 0.009091556 -0.01051968 0.007280409 0.01605749 -0.0182867 -0.004033207 0.008290469 -0.01235753 0.008656799 0.01600545 -0.02012449 -0.002656817 0.008238434 -0.0143252 0.009576499 0.0167104 -0.02209222 -0.001737117 0.008943378 -0.01612323 0.009899437 0.01806497 -0.02389025 -0.001414179 0.01029801 -0.01747781 0.009576499 0.019863 -0.02524483 -0.001737117 0.01209598 -0.01818275 0.008656799 0.02183067 -0.02594977 -0.002656817 0.01406371 -0.01813077 0.007280409 0.02366852 -0.02589774 -0.004033207 0.0159015 -0.02999997 0.005656838 0.005492091 -0.02999997 -0.005656838 -0.005492091 -0.02955657 0.004033207 0.007068336 -0.02955657 -0.007280409 -0.003915786 -0.02829378 0.002656817 0.008404672 -0.02829378 -0.008656799 -0.00257945 -0.02640396 0.001737117 0.009297609 -0.02640396 -0.009576499 -0.001686513 -0.02417474 0.001414179 0.009611129 -0.02417474 -0.009899497 -0.001372992 -0.02194553 0.001737117 0.009297609 -0.02194553 -0.009576499 -0.001686513 -0.02005565 0.002656817 0.008404672 -0.02005565 -0.008656799 -0.00257945 -0.01879292 0.004033207 0.007068336 -0.01879292 -0.007280409 -0.003915786 -0.01834946 0.005656838 0.005492091 -0.01834946 -0.005656838 -0.005492091 -0.01879292 0.007280409 0.003915786 -0.01879292 -0.004033207 -0.007068336 -0.02005565 0.008656799 0.00257945 -0.02005565 -0.002656817 -0.008404672 -0.02194553 0.009576499 0.001686513 -0.02194553 -0.001737117 -0.009297609 -0.02417474 0.009899497 0.001372992 -0.02417474 -0.001414179 -0.009611129 -0.02640396 0.009576499 0.001686513 -0.02640396 -0.001737117 -0.009297609 -0.02829378 0.008656799 0.00257945 -0.02829378 -0.002656817 -0.008404672 -0.02955657 0.007280409 0.003915786 -0.02955657 -0.004033207 -0.007068336 -0.02509665 0.005656838 -0.01732969 -0.01732969 -0.005656838 -0.02509665 -0.02589774 0.004033207 -0.0159015 -0.01813077 -0.007280409 -0.02366852 -0.02594977 0.002656817 -0.01406371 -0.01818275 -0.008656799 -0.02183067 -0.02524483 0.001737117 -0.01209598 -0.01747781 -0.009576499 -0.019863 -0.02389025 0.001414179 -0.01029801 -0.01612323 -0.009899437 -0.01806497 -0.02209222 0.001737117 -0.008943378 -0.0143252 -0.009576499 -0.0167104 -0.02012449 0.002656817 -0.008238434 -0.01235753 -0.008656799 -0.01600545 -0.0182867 0.004033207 -0.008290469 -0.01051968 -0.007280409 -0.01605749 -0.01685851 0.005656838 -0.009091556 -0.009091556 -0.005656838 -0.01685851 -0.01605749 0.007280409 -0.01051968 -0.008290469 -0.004033207 -0.0182867 -0.01600545 0.008656799 -0.01235753 -0.008238434 -0.002656817 -0.02012449 -0.0167104 0.009576499 -0.0143252 -0.008943378 -0.001737117 -0.02209222 -0.01806497 0.009899497 -0.01612323 -0.01029801 -0.001414179 -0.02389025 -0.019863 0.009576499 -0.01747781 -0.01209598 -0.001737117 -0.02524483 -0.02183067 0.008656799 -0.01818275 -0.01406371 -0.002656817 -0.02594977 -0.02366852 0.007280409 -0.01813077 -0.0159015 -0.004033207 -0.02589774 -0.005492091 0.005656838 -0.02999997 0.005492031 -0.005656838 -0.02999997 -0.007068336 0.004033267 -0.02955657 0.003915786 -0.007280409 -0.02955657 -0.008404672 0.002656817 -0.02829378 0.00257945 -0.008656799 -0.02829378 -0.009297609 0.001737117 -0.02640396 0.001686513 -0.009576499 -0.02640396 -0.009611129 0.001414179 -0.02417474 0.001372992 -0.009899437 -0.02417474 -0.009297609 0.001737117 -0.02194553 0.001686513 -0.009576499 -0.02194553 -0.008404672 0.002656817 -0.02005565 0.00257945 -0.008656799 -0.02005565 -0.007068336 0.004033207 -0.01879292 0.003915786 -0.007280409 -0.01879292 -0.005492091 0.005656838 -0.01834946 0.005492031 -0.005656838 -0.01834946 -0.003915786 0.007280409 -0.01879292 0.007068336 -0.004033207 -0.01879292 -0.00257945 0.008656799 -0.02005565 0.008404672 -0.002656817 -0.02005565 -0.001686513 0.009576499 -0.02194553 0.009297609 -0.001737117 -0.02194553 -0.001372992 0.009899497 -0.02417474 0.009611129 -0.001414179 -0.02417474 -0.001686513 0.009576499 -0.02640396 0.009297609 -0.001737117 -0.02640396 -0.00257945 0.008656799 -0.02829378 0.008404672 -0.002656817 -0.02829378 -0.003915786 0.007280409 -0.02955657 0.007068336 -0.004033207 -0.02955657 0.01732969 0.005656838 -0.02509665 0.02509665 -0.005656838 -0.01732969 0.0159015 0.004033207 -0.02589774 0.02366852 -0.007280409 -0.01813077 0.01406371 0.002656817 -0.02594977 0.02183067 -0.008656799 -0.01818275 0.01209598 0.001737117 -0.02524483 0.019863 -0.009576499 -0.01747781 0.01029801 0.001414179 -0.02389025 0.01806497 -0.009899437 -0.01612323 0.008943378 0.001737117 -0.02209222 0.0167104 -0.009576499 -0.0143252 0.008238434 0.002656817 -0.02012449 0.01600545 -0.008656799 -0.01235753 0.008290469 0.004033207 -0.0182867 0.01605749 -0.007280409 -0.01051968 0.009091556 0.005656838 -0.01685851 0.01685851 -0.005656838 -0.009091556 0.01051968 0.007280409 -0.01605749 0.0182867 -0.004033207 -0.008290469 0.01235753 0.008656799 -0.01600545 0.02012449 -0.002656817 -0.008238434 0.0143252 0.009576499 -0.0167104 0.02209222 -0.001737117 -0.008943378 0.01612323 0.009899497 -0.01806497 0.02389025 -0.001414179 -0.01029801 0.01747781 0.009576499 -0.019863 0.02524483 -0.001737117 -0.01209598 0.01818275 0.008656799 -0.02183067 0.02594977 -0.002656817 -0.01406371 0.01813077 0.007280409 -0.02366852 0.02589774 -0.004033207 -0.0159015</float_array>
          <technique_common>
            <accessor source="#Mesh_wheel_left_002-mesh-positions-array" count="400" stride="3">
              <param name="X" type="float"/>
              <param name="Y" type="float"/>
              <param name="Z" type="float"/>
            </accessor>
          </technique_common>
        </source>
        <source id="Mesh_wheel_left_002-mesh-normals">
          <float_array id="Mesh_wheel_left_002-mesh-normals-array" count="2268">0.1305261 0 0.9914449 0.3826841 0 0.9238793 0.6087607 0 0.7933539 0.7933539 0 0.6087607 0.9238796 0 0.3826833 0.9914448 0 0.1305271 0.9914447 0 -0.1305272 0.9238798 0 -0.382683 0.7933539 0 -0.6087607 0.6087611 0 -0.7933537 0.3826836 0 -0.9238794 0.1305259 0 -0.9914449 -0.1305261 0 -0.991445 -0.3826833 0 -0.9238796 -0.6087611 0 -0.7933537 -0.7933539 0 -0.6087607 -0.9238795 0 -0.3826838 -0.9914448 0 -0.1305263 -0.9914449 0 0.1305261 -0.9238793 0 0.3826841 -0.7933539 0 0.6087607 -0.6087607 0 0.7933539 0 -1 0 -0.3826838 0 0.9238795 -0.1305263 0 0.9914448 0 1 0 0.1305267 0 0.9914448 0.3826831 0 0.9238797 0.6087616 0 0.7933532 0.793353 0 0.6087619 0.9238798 0 0.3826829 0.9914449 0 0.1305262 0.9914449 0 -0.1305262 0.9238796 0 -0.382683 0.7933533 0 -0.6087616 0.6087615 0 -0.7933533 0.3826833 0 -0.9238796 0.1305264 0 -0.9914448 -0.1305264 0 -0.9914448 -0.3826833 0 -0.9238796 -0.6087615 0 -0.7933533 -0.7933533 0 -0.6087616 -0.9238796 0 -0.382683 -0.9914448 0 -0.1305267 -0.9914448 0 0.1305267 -0.9238798 0 0.3826829 -0.793353 0 0.6087619 -0.6087616 0 0.7933532 0 -1 0 -0.3826831 0 0.9238797 -0.1305267 0 0.9914448 0 1 0 0.1305267 0 0.9914448 0.3826831 0 0.9238797 0.6087616 0 0.7933532 0.7933532 0 0.6087616 0.9238797 0 0.3826831 0.9914449 0 0.1305262 0.9914449 0 -0.1305262 0.9238798 0 -0.382683 0.7933531 0 -0.6087617 0.6087615 0 -0.7933533 0.3826833 0 -0.9238796 0.1305264 0 -0.9914448 -0.1305264 0 -0.9914448 -0.3826833 0 -0.9238796 -0.6087615 0 -0.7933533 -0.7933531 0 -0.6087617 -0.9238798 0 -0.382683 -0.9914448 0 -0.1305267 -0.9914448 0 0.1305267 -0.9238797 0 0.3826831 -0.7933532 0 0.6087616 -0.6087616 0 0.7933532 0 -1 0 -0.3826831 0 0.9238797 -0.1305267 0 0.9914448 0 1 0 0.9813215 -0.1340048 -0.1380249 0.8351765 -0.3831068 -0.3946 0.561165 -0.5765628 -0.5938596 0.1978409 -0.6828122 -0.7032969 -0.1978408 -0.6828122 -0.7032969 -0.5611644 -0.576563 -0.5938599 -0.8351785 -0.3831048 -0.394598 -0.9813215 -0.1340047 -0.1380248 -0.9813215 0.1340046 0.1380248 -0.8351785 0.3831048 0.394598 -0.5611659 0.5765622 0.5938593 -0.1978409 0.6828122 0.7032969 0.1978412 0.6828121 0.7032968 0.5611665 0.5765621 0.5938587 -3.82386e-7 -0.6965782 0.7174808 0.8351765 0.3831069 0.3946 0.9813215 0.1340047 0.1380248 0 0.6965794 -0.7174798 0.7914971 -0.1340038 0.5963013 0.8695833 -0.3831065 0.3115352 0.816726 -0.5765625 -0.0231176 0.6372002 -0.6828123 -0.3574119 0.3574117 -0.6828125 -0.6372002 0.02311819 -0.5765626 -0.8167259 -0.3115361 -0.3831056 -0.8695834 -0.5962997 -0.1340057 -0.7914981 -0.791498 0.1340057 -0.5962998 -0.8695834 0.383107 -0.3115346 -0.8167262 0.5765621 0.02311694 -0.6371996 0.6828128 0.3574121 -0.3574117 0.6828126 0.6372 -0.023117 0.5765621 0.8167262 -0.507332 -0.6965824 0.5073333 0.3115352 0.3831064 0.8695834 0.5963011 0.1340044 0.7914972 0.5073322 0.6965828 -0.5073327 0.1380248 -0.1340046 0.9813215 0.3946005 -0.3831073 0.8351763 0.5938589 -0.5765619 0.5611666 0.7032969 -0.6828124 0.1978406 0.7032969 -0.6828124 -0.1978403 0.5938593 -0.5765622 -0.5611659 0.3945984 -0.3831052 -0.8351781 0.1380258 -0.1340057 -0.9813212 -0.1380262 0.134006 -0.9813211 -0.3945975 0.3831045 -0.8351789 -0.5938599 0.5765633 -0.5611641 -0.7032966 0.6828125 -0.1978406 -0.7032967 0.6828125 0.1978406 -0.5938595 0.5765629 0.5611649 -0.7174817 -0.6965773 -6.23146e-7 -0.3945997 0.3831065 0.835177 -0.1380251 0.134005 0.9813215 0.7174784 0.6965808 0 -0.5963014 -0.134004 0.7914971 -0.3115352 -0.3831065 0.8695833 0.0231176 -0.5765625 0.816726 0.3574119 -0.6828123 0.6372002 0.6372003 -0.6828123 0.3574118 0.8167259 -0.5765626 0.02311819 0.8695834 -0.3831056 -0.3115361 0.791498 -0.1340057 -0.5962997 0.5962998 0.1340057 -0.791498 0.3115358 0.3831062 -0.8695833 -0.02311813 0.5765626 -0.8167258 -0.3574113 0.6828125 -0.6372004 -0.6372 0.6828125 -0.3574118 -0.8167262 0.5765621 -0.023117 -0.5073333 -0.6965838 -0.5073303 -0.8695833 0.3831065 0.3115352 -0.7914972 0.1340044 0.5963011 0.5073313 0.6965844 0.5073314 -0.9813215 -0.1340048 0.1380249 -0.8351773 -0.3831061 0.3945992 -0.5611658 -0.5765626 0.593859 -0.1978402 -0.6828125 0.7032969 0.1978402 -0.6828123 0.703297 0.561165 -0.5765628 0.5938596 0.8351785 -0.3831048 0.394598 0.9813212 -0.1340059 0.138026 0.9813212 0.134006 -0.1380258 0.8351784 0.3831049 -0.3945979 0.5611662 0.5765621 -0.5938591 0.1978414 0.6828122 -0.7032968 -0.1978409 0.6828122 -0.7032969 -0.561167 0.5765616 -0.5938589 9.06393e-7 -0.6965785 -0.7174805 -0.8351765 0.3831068 -0.3946 -0.9813215 0.1340046 -0.1380248 -2.9839e-7 0.6965789 0.7174802 -0.7914968 -0.1340038 -0.5963017 -0.8695833 -0.3831069 -0.3115349 -0.816726 -0.5765625 0.0231176 -0.6372002 -0.6828124 0.3574115 -0.3574116 -0.6828126 0.6372002 -0.02311873 -0.5765629 0.8167256 0.3115361 -0.3831056 0.8695834 0.5963003 -0.134005 0.7914977 0.7914974 0.1340048 0.5963007 0.8695833 0.3831062 0.3115358 0.8167265 0.5765618 -0.02311652 0.6372001 0.6828125 -0.3574117 0.3574117 0.6828123 -0.6372002 0.02311724 0.5765619 -0.8167264 0.5073288 -0.696586 -0.5073317 -0.3115357 0.383106 -0.8695834 -0.5963011 0.1340043 -0.7914973 -0.5073345 0.6965798 0.5073345 -0.1380249 -0.1340047 -0.9813215 -0.3945993 -0.383106 -0.8351773 -0.593859 -0.5765618 -0.5611666 -0.7032967 -0.6828126 -0.1978404 -0.7032966 -0.6828125 0.1978406 -0.5938594 -0.5765625 0.5611654 -0.3945987 -0.3831056 0.8351778 -0.1380255 -0.1340053 0.9813213 0.1380247 0.1340045 0.9813215 0.3945989 0.3831055 0.8351777 0.5938594 0.5765624 0.5611656 0.7032968 0.6828122 0.1978409 0.7032968 0.6828123 -0.1978408 0.5938591 0.5765622 -0.5611662 0.7174782 -0.696581 -1.27462e-7 0.3945991 0.3831061 -0.8351773 0.1380256 0.1340055 -0.9813213 -0.7174811 0.6965779 0 0.5963015 -0.1340036 -0.791497 0.311535 -0.3831067 -0.8695834 -0.02311939 -0.5765633 -0.8167254 -0.3574118 -0.6828126 -0.6372001 -0.6371999 -0.6828126 -0.3574117 -0.8167252 -0.5765634 -0.02311915 -0.8695833 -0.383105 0.3115371 -0.7914978 -0.1340063 0.5962999 -0.5962996 0.1340057 0.7914981 -0.3115358 0.383106 0.8695834 0.02311736 0.576562 0.8167263 0.3574112 0.6828121 0.6372009 0.6372002 0.6828123 0.3574119 0.8167269 0.5765612 0.02311551 0.5073332 -0.6965819 0.5073329 0.8695833 0.3831067 -0.3115351 0.7914969 0.1340039 -0.5963017 -0.507333 0.6965814 -0.5073337 0.1305261 0 0.9914449 0.3826841 0 0.9238793 0.6087607 0 0.7933539 0.7933539 0 0.6087607 0.9238798 0 0.382683 0.9914447 0 0.1305272 0.9914448 0 -0.1305271 0.9238796 0 -0.3826831 0.7933539 0 -0.6087607 0.6087611 0 -0.7933537 0.3826836 0 -0.9238794 0.1305259 0 -0.9914449 -0.1305261 0 -0.991445 -0.3826833 0 -0.9238796 -0.6087611 0 -0.7933537 -0.7933539 0 -0.6087607 -0.9238793 0 -0.3826839 -0.9914448 0 -0.1305262 -0.9914448 0 0.1305263 -0.9238795 0 0.3826838 -0.7933539 0 0.6087607 -0.6087607 0 0.7933539 0 -1 0 0 -1 0 0 -1 0 0 -1 0 0 -1 0 0 -1 0 0 -1 0 0 -1 0 0 -1 0 0 -1 0 0 -1 0 0 -1 0 0 -1 0 0 -1 0 0 -1 0 0 -1 0 0 -1 0 0 -1 0 0 -1 0 0 -1 0 0 -1 0 -0.3826838 0 0.9238795 -0.1305263 0 0.9914448 0 1 0 0 1 0 0 1 0 0 1 0 0 1 0 0 1 0 0 1 0 0 1 0 0 1 0 0 1 0 0 1 0 0 1 0 0 1 0 0 1 0 0 1 0 0 1 0 0 1 0 0 1 0 0 1 0 0 1 0 0 1 0 0.1305267 0 0.9914448 0.3826831 0 0.9238797 0.6087616 0 0.7933532 0.793353 0 0.6087619 0.9238798 0 0.3826829 0.9914449 0 0.1305262 0.9914449 0 -0.1305262 0.9238796 0 -0.382683 0.7933533 0 -0.6087616 0.6087615 0 -0.7933533 0.3826833 0 -0.9238796 0.1305264 0 -0.9914448 -0.1305264 0 -0.9914448 -0.3826833 0 -0.9238796 -0.6087615 0 -0.7933533 -0.7933533 0 -0.6087616 -0.9238796 0 -0.382683 -0.9914448 0 -0.1305267 -0.9914448 0 0.1305267 -0.9238798 0 0.3826829 -0.793353 0 0.6087619 -0.6087616 0 0.7933532 0 -1 0 0 -1 0 0 -1 0 0 -1 0 0 -1 0 0 -1 0 0 -1 0 0 -1 0 0 -1 0 0 -1 0 0 -1 0 0 -1 0 0 -1 0 0 -1 0 0 -1 0 0 -1 0 0 -1 0 0 -1 0 0 -1 0 0 -1 0 0 -1 0 -0.3826831 0 0.9238797 -0.1305267 0 0.9914448 0 1 0 0 1 0 0 1 0 0 1 0 0 1 0 0 1 0 0 1 0 0 1 0 0 1 0 0 1 0 0 1 0 0 1 0 0 1 0 0 1 0 0 1 0 0 1 0 0 1 0 0 1 0 0 1 0 0 1 0 0 1 0 0.1305267 0 0.9914448 0.3826831 0 0.9238797 0.6087616 0 0.7933532 0.7933532 0 0.6087616 0.9238797 0 0.3826831 0.9914449 0 0.1305262 0.9914449 0 -0.1305262 0.9238798 0 -0.382683 0.7933531 0 -0.6087617 0.6087615 0 -0.7933533 0.3826833 0 -0.9238796 0.1305264 0 -0.9914448 -0.1305264 0 -0.9914448 -0.3826833 0 -0.9238796 -0.6087615 0 -0.7933533 -0.7933531 0 -0.6087617 -0.9238798 0 -0.382683 -0.9914448 0 -0.1305267 -0.9914448 0 0.1305267 -0.9238797 0 0.3826831 -0.7933532 0 0.6087616 -0.6087616 0 0.7933532 0 -1 0 0 -1 0 0 -1 0 0 -1 0 0 -1 0 0 -1 0 0 -1 0 0 -1 0 0 -1 0 0 -1 0 0 -1 0 0 -1 0 0 -1 0 0 -1 0 0 -1 0 0 -1 0 0 -1 0 0 -1 0 0 -1 0 0 -1 0 0 -1 0 -0.3826831 0 0.9238797 -0.1305267 0 0.9914448 0 1 0 0 1 0 0 1 0 0 1 0 0 1 0 0 1 0 0 1 0 0 1 0 0 1 0 0 1 0 0 1 0 0 1 0 0 1 0 0 1 0 0 1 0 0 1 0 0 1 0 0 1 0 0 1 0 0 1 0 0 1 0 0.9813215 -0.1340048 -0.1380249 0.8351766 -0.3831068 -0.3946 0.5611662 -0.5765621 -0.5938592 0.1978412 -0.6828121 -0.7032968 -0.1978408 -0.6828122 -0.7032969 -0.5611658 -0.5765622 -0.5938594 -0.8351784 -0.3831049 -0.394598 -0.9813215 -0.1340046 -0.1380248 -0.9813215 0.1340048 0.1380249 -0.8351784 0.3831049 0.394598 -0.5611646 0.5765629 0.5938597 -0.1978404 0.6828123 0.7032969 0.1978402 0.6828124 0.703297 0.5611666 0.5765621 0.5938588 0 -0.6965813 0.717478 2.58094e-7 -0.6965804 0.7174788 0 -0.6965814 0.7174778 0 -0.6965813 0.717478 -1.27462e-6 -0.6965839 0.7174753 4.47587e-7 -0.696581 0.7174782 0 -0.6965826 0.7174766 0 -0.6965813 0.717478 2.58094e-7 -0.6965804 0.7174788 0 -0.6965814 0.7174778 0 -0.6965813 0.717478 0 -0.6965786 0.7174805 1.34276e-7 -0.696579 0.71748 0.8351765 0.3831069 0.3946 0.9813215 0.1340046 0.1380248 0 0.6965809 -0.7174783 0 0.6965804 -0.7174788 0 0.6965813 -0.717478 0 0.6965826 -0.7174766 0 0.6965813 -0.717478 -3.00951e-7 0.6965805 -0.7174786 -2.98392e-7 0.6965816 -0.7174777 0 0.6965808 -0.7174783 -1.24159e-7 0.696581 -0.7174782 -1.26631e-7 0.6965813 -0.7174779 -1.61488e-7 0.6965788 -0.7174803 -1.62222e-7 0.6965811 -0.717478 0 0.6965796 -0.7174795 0.7914977 -0.1340053 0.5963003 0.8695833 -0.3831065 0.3115352 0.8167269 -0.5765612 -0.02311551 0.6372003 -0.6828122 -0.3574117 0.3574109 -0.682812 -0.6372011 0.02311664 -0.5765618 -0.8167265 -0.3115357 -0.3831062 -0.8695834 -0.5962993 -0.1340062 -0.7914982 -0.7914983 0.1340067 -0.596299 -0.8695833 0.3831067 -0.3115349 -0.8167262 0.5765622 0.02311706 -0.6372003 0.6828124 0.3574115 -0.3574113 0.6828125 0.6372005 -0.02311611 0.5765616 0.8167268 -0.5073345 -0.6965799 0.5073344 -0.5073345 -0.6965795 0.507335 -0.5073327 -0.6965825 0.5073327 -0.5073332 -0.6965823 0.5073322 -0.5073346 -0.6965804 0.5073336 -0.5073331 -0.696582 0.5073328 -0.5073314 -0.6965835 0.5073324 -0.5073345 -0.6965799 0.5073345 -0.5073333 -0.6965811 0.5073338 -0.5073336 -0.6965811 0.5073335 -0.5073341 -0.6965807 0.5073336 -0.5073352 -0.696579 0.5073348 -0.507333 -0.6965815 0.5073336 0.3115342 0.3831073 0.8695834 0.5963008 0.1340048 0.7914974 0.5073344 0.6965801 -0.5073343 0.507333 0.6965819 -0.507333 0.5073344 0.69658 -0.5073344 0.5073321 0.6965835 -0.5073319 0.507334 0.6965806 -0.5073338 0.5073342 0.6965796 -0.5073348 0.5073331 0.6965814 -0.5073338 0.5073332 0.6965817 -0.5073332 0.5073339 0.6965805 -0.5073341 0.5073344 0.6965798 -0.5073345 0.5073315 0.6965841 -0.5073316 0.5073343 0.6965799 -0.5073344 0.507335 0.6965786 -0.5073356 0.1380248 -0.1340046 0.9813215 0.3946002 -0.3831068 0.8351766 0.5938589 -0.576562 0.5611665 0.7032968 -0.6828122 0.1978409 0.7032969 -0.6828123 -0.1978408 0.5938595 -0.5765625 -0.5611654 0.3945981 -0.3831049 -0.8351784 0.1380258 -0.1340057 -0.9813212 -0.138026 0.1340059 -0.9813212 -0.394598 0.3831049 -0.8351784 -0.5938597 0.5765629 -0.5611646 -0.7032967 0.6828126 -0.1978404 -0.7032966 0.6828125 0.1978405 -0.5938592 0.5765624 0.5611658 -0.717478 -0.6965813 0 -0.7174778 -0.6965813 0 -0.7174788 -0.6965804 0 -0.717478 -0.6965813 0 -0.7174752 -0.6965839 -1.27462e-6 -0.7174782 -0.696581 4.47587e-7 -0.7174766 -0.6965826 0 -0.717478 -0.6965813 0 -0.7174788 -0.6965804 0 -0.7174778 -0.6965814 0 -0.717478 -0.6965813 0 -0.7174811 -0.6965779 0 -0.7174804 -0.6965786 2.23793e-7 -0.3946 0.3831069 0.8351766 -0.1380249 0.1340048 0.9813215 0.7174796 0.6965795 0 0.7174778 0.6965814 0 0.7174789 0.6965802 0 0.7174751 0.6965841 0 0.7174789 0.6965802 0 0.7174797 0.6965795 0 0.7174752 0.6965841 0 0.7174778 0.6965813 0 0.7174796 0.6965796 0 0.717477 0.6965822 0 0.7174783 0.6965808 0 0.7174769 0.6965822 0 0.7174786 0.6965805 0 -0.5963011 -0.1340044 0.7914972 -0.3115353 -0.3831065 0.8695833 0.02311551 -0.5765612 0.8167269 0.3574122 -0.6828123 0.6372 0.6372 -0.6828123 0.3574122 0.8167266 -0.5765618 0.02311664 0.8695834 -0.3831062 -0.3115357 0.7914979 -0.1340056 -0.5963 0.5962997 0.1340057 -0.791498 0.3115361 0.3831059 -0.8695833 -0.02311825 0.5765627 -0.8167257 -0.3574115 0.6828124 -0.6372003 -0.6372001 0.6828125 -0.3574118 -0.816726 0.5765625 -0.0231176 -0.5073344 -0.6965799 -0.5073345 -0.5073344 -0.6965801 -0.5073343 -0.507333 -0.6965819 -0.507333 -0.5073345 -0.6965799 -0.5073343 -0.5073321 -0.6965835 -0.5073319 -0.5073335 -0.6965805 -0.5073345 -0.5073332 -0.6965821 -0.5073328 -0.507334 -0.6965805 -0.507334 -0.5073332 -0.6965817 -0.5073332 -0.5073339 -0.6965805 -0.5073341 -0.5073336 -0.6965807 -0.5073341 -0.5073339 -0.6965804 -0.5073343 -0.5073347 -0.6965788 -0.5073358 -0.8695833 0.3831065 0.3115352 -0.7914971 0.134004 0.5963014 0.5073343 0.6965801 0.5073344 0.507333 0.6965819 0.507333 0.5073344 0.69658 0.5073344 0.5073319 0.6965835 0.5073321 0.5073338 0.6965806 0.507334 0.5073348 0.6965796 0.5073342 0.5073338 0.6965814 0.5073331 0.5073332 0.6965817 0.5073332 0.5073341 0.6965805 0.5073339 0.5073341 0.6965806 0.5073339 0.5073323 0.6965833 0.507332 0.5073347 0.6965799 0.5073343 0.5073343 0.6965801 0.5073343 -0.9813215 -0.1340047 0.1380248 -0.8351764 -0.3831073 0.3946 -0.5611674 -0.5765616 0.5938584 -0.1978415 -0.6828121 0.7032968 0.1978408 -0.6828122 0.7032969 0.5611662 -0.5765621 0.5938591 0.8351783 -0.3831051 0.3945982 0.9813212 -0.1340057 0.1380258 0.9813215 0.1340048 -0.1380249 0.8351777 0.3831059 -0.3945986 0.5611643 0.5765633 -0.5938599 0.1978413 0.6828122 -0.7032968 -0.1978405 0.6828122 -0.703297 -0.561165 0.5765627 -0.5938596 1.24159e-7 -0.6965806 -0.7174785 0 -0.6965809 -0.7174783 0 -0.6965804 -0.7174788 0 -0.6965813 -0.717478 1.27462e-6 -0.6965839 -0.7174752 0 -0.6965817 -0.7174775 0 -0.6965819 -0.7174774 0 -0.6965812 -0.7174779 0 -0.6965804 -0.7174788 1.24159e-7 -0.6965814 -0.7174778 1.825e-7 -0.6965808 -0.7174783 1.83019e-7 -0.6965796 -0.7174795 0 -0.6965799 -0.7174793 -0.8351766 0.3831068 -0.3946 -0.9813215 0.1340048 -0.1380249 0 0.6965813 0.7174778 0 0.6965804 0.7174788 0 0.6965813 0.717478 0 0.6965826 0.7174767 0 0.6965812 0.7174779 0 0.6965794 0.7174797 0 0.6965826 0.7174766 0 0.6965804 0.7174788 -2.48319e-7 0.6965805 0.7174787 -2.47756e-7 0.6965811 0.7174781 -3.44507e-7 0.6965792 0.71748 -3.44722e-7 0.6965814 0.7174778 -2.9741e-7 0.6965807 0.7174785 -0.7914969 -0.1340039 -0.5963017 -0.8695833 -0.3831067 -0.3115351 -0.8167263 -0.5765622 0.023117 -0.6371999 -0.6828126 0.357412 -0.3574118 -0.6828125 0.6372 -0.02311879 -0.5765628 0.8167256 0.3115357 -0.3831061 0.8695834 0.5963003 -0.1340051 0.7914977 0.7914976 0.1340053 0.5963006 0.8695833 0.3831061 0.3115359 0.8167258 0.5765627 -0.02311819 0.6372009 0.6828122 -0.357411 0.3574115 0.6828122 -0.6372005 0.02311939 0.5765632 -0.8167254 0.5073344 -0.6965802 -0.5073341 0.5073339 -0.696581 -0.5073336 0.5073338 -0.696581 -0.5073336 0.5073337 -0.6965812 -0.5073333 0.5073329 -0.6965823 -0.5073325 0.5073336 -0.6965816 -0.5073329 0.507333 -0.6965822 -0.5073328 0.507334 -0.6965808 -0.5073337 0.5073338 -0.6965811 -0.5073335 0.5073339 -0.6965808 -0.5073337 0.5073341 -0.6965807 -0.5073336 0.5073327 -0.6965828 -0.5073323 0.5073341 -0.6965813 -0.507333 -0.3115354 0.3831064 -0.8695834 -0.5963015 0.1340036 -0.791497 -0.5073345 0.6965801 0.5073341 -0.5073335 0.6965816 0.5073332 -0.5073341 0.6965807 0.5073338 -0.5073325 0.696583 0.5073322 -0.507334 0.6965806 0.5073338 -0.5073345 0.6965798 0.5073345 -0.5073328 0.6965824 0.5073328 -0.5073338 0.6965812 0.5073334 -0.5073336 0.6965811 0.5073336 -0.507334 0.6965805 0.507334 -0.5073345 0.6965796 0.5073347 -0.5073341 0.6965803 0.5073342 -0.507336 0.6965776 0.507336 -0.1380251 -0.1340049 -0.9813215 -0.394599 -0.3831056 -0.8351777 -0.5938599 -0.5765632 -0.5611642 -0.7032967 -0.6828125 -0.1978405 -0.7032967 -0.6828125 0.1978406 -0.5938599 -0.5765632 0.5611642 -0.3945985 -0.3831053 0.8351781 -0.1380256 -0.1340055 0.9813213 0.1380248 0.1340046 0.9813215 0.3945992 0.3831061 0.8351774 0.5938594 0.5765624 0.5611655 0.7032969 0.6828124 0.1978406 0.7032969 0.6828124 -0.1978404 0.5938597 0.5765631 -0.5611647 0.717477 -0.6965822 0 0.7174796 -0.6965795 0 0.7174779 -0.6965813 0 0.7174767 -0.6965825 6.48887e-7 0.7174774 -0.6965818 6.51337e-7 0.7174775 -0.6965818 6.5646e-7 0.7174733 -0.6965861 -1.86944e-6 0.7174789 -0.6965802 0 0.7174778 -0.6965813 0 0.7174797 -0.6965795 0 0.717477 -0.6965823 0 0.7174784 -0.6965808 0 0.7174786 -0.6965807 0 0.3945989 0.3831057 -0.8351777 0.1380254 0.1340051 -0.9813213 -0.7174762 0.696583 4.73312e-7 -0.7174787 0.6965805 5.12308e-7 -0.7174778 0.6965814 5.12029e-7 -0.7174789 0.6965804 6.51334e-7 -0.7174782 0.6965809 6.49676e-7 -0.7174797 0.6965795 0 -0.7174766 0.6965826 0 -0.7174788 0.6965803 4.73311e-7 -0.7174779 0.6965813 0 -0.7174779 0.6965812 0 -0.7174812 0.6965779 0 -0.717478 0.6965813 0 -0.7174797 0.6965794 0 0.5963011 -0.1340043 -0.7914972 0.3115357 -0.3831059 -0.8695834 -0.02311879 -0.5765629 -0.8167257 -0.3574113 -0.6828125 -0.6372004 -0.6371998 -0.6828126 -0.357412 -0.8167263 -0.5765622 -0.023117 -0.8695831 -0.3831073 0.3115348 -0.7914969 -0.1340039 0.5963016 -0.5963008 0.1340041 0.7914975 -0.311536 0.3831058 0.8695833 0.02311891 0.5765629 0.8167256 0.3574112 0.6828122 0.6372008 0.6372004 0.6828123 0.3574117 0.816726 0.5765625 0.0231176 0.5073341 -0.6965804 0.5073341 0.5073346 -0.6965801 0.5073339 0.5073335 -0.6965816 0.5073332 0.5073341 -0.6965807 0.5073338 0.5073302 -0.6965846 0.5073322 0.5073327 -0.6965824 0.5073328 0.5073335 -0.6965815 0.5073333 0.5073341 -0.6965806 0.5073338 0.5073343 -0.6965806 0.5073337 0.5073332 -0.6965817 0.5073332 0.5073347 -0.6965797 0.5073344 0.5073292 -0.6965857 0.5073319 0.507333 -0.6965821 0.5073329 0.8695833 0.3831069 -0.3115349 0.7914968 0.1340038 -0.5963017 -0.5073338 0.696581 -0.5073337 -0.5073338 0.696581 -0.5073336 -0.5073333 0.6965819 -0.5073329 -0.5073336 0.6965813 -0.5073333 -0.5073335 0.6965815 -0.5073331 -0.5073359 0.6965782 -0.5073353 -0.5073341 0.6965808 -0.5073335 -0.5073341 0.6965805 -0.507334 -0.5073335 0.6965814 -0.5073333 -0.5073341 0.6965806 -0.5073338 -0.5073356 0.6965786 -0.5073352 -0.5073344 0.6965802 -0.507334 -0.5073344 0.6965795 -0.5073351</float_array>
          <technique_common>
            <accessor source="#Mesh_wheel_left_002-mesh-normals-array" count="756" stride="3">
              <param name="X" type="float"/>
              <param name="Y" type="float"/>
              <param name="Z" type="float"/>
            </accessor>
          </technique_common>
        </source>
        <source id="Mesh_wheel_left_002-mesh-map-0">
          <float_array id="Mesh_wheel_left_002-mesh-map-0-array" count="4536">1 1 0.9583333 0.5 1 0.5 0.9583333 1 0.9166666 0.5 0.9583333 0.5 0.9166666 1 0.875 0.5 0.9166666 0.5 0.875 1 0.8333333 0.5 0.875 0.5 0.8333333 1 0.7916666 0.5 0.8333333 0.5 0.7916666 1 0.7499999 0.5 0.7916666 0.5 0.7499999 1 0.7083332 0.5 0.7499999 0.5 0.7083332 1 0.6666665 0.5 0.7083332 0.5 0.6666665 1 0.6249998 0.5 0.6666665 0.5 0.6249998 1 0.5833331 0.5 0.6249998 0.5 0.5833331 1 0.5416665 0.5 0.5833331 0.5 0.5416665 1 0.4999998 0.5 0.5416665 0.5 0.4999998 1 0.4583331 0.5 0.4999998 0.5 0.4583331 1 0.4166665 0.5 0.4583331 0.5 0.4166665 1 0.3749998 0.5 0.4166665 0.5 0.3749998 1 0.3333331 0.5 0.3749998 0.5 0.3333331 1 0.2916665 0.5 0.3333331 0.5 0.2916665 0.5 0.2499998 1 0.2499998 0.5 0.2499998 0.5 0.2083331 1 0.2083331 0.5 0.2083331 0.5 0.1666665 1 0.1666665 0.5 0.1666665 1 0.1249998 0.5 0.1666665 0.5 0.1249998 1 0.08333313 0.5 0.1249998 0.5 0.00999999 0.25 0.37 0.04215389 0.37 0.4578461 0.08333313 1 0.04166644 0.5 0.08333313 0.5 0.04166644 1 -1.86265e-7 0.5 0.04166644 0.5 0.5181778 0.3121166 0.6878834 0.4818222 0.9818222 0.1878834 1 1 0.9583333 0.5 1 0.5 0.9583333 1 0.9166666 0.5 0.9583333 0.5 0.9166666 1 0.875 0.5 0.9166666 0.5 0.875 1 0.8333333 0.5 0.875 0.5 0.8333333 1 0.7916666 0.5 0.8333333 0.5 0.7916666 1 0.7499999 0.5 0.7916666 0.5 0.7499999 1 0.7083332 0.5 0.7499999 0.5 0.7083332 1 0.6666665 0.5 0.7083332 0.5 0.6666665 1 0.6249998 0.5 0.6666665 0.5 0.6249998 1 0.5833331 0.5 0.6249998 0.5 0.5833331 1 0.5416665 0.5 0.5833331 0.5 0.5416665 1 0.4999998 0.5 0.5416665 0.5 0.4999998 1 0.4583331 0.5 0.4999998 0.5 0.4583331 1 0.4166665 0.5 0.4583331 0.5 0.4166665 1 0.3749998 0.5 0.4166665 0.5 0.3749998 1 0.3333331 0.5 0.3749998 0.5 0.3333331 1 0.2916665 0.5 0.3333331 0.5 0.2916665 1 0.2499998 0.5 0.2916665 0.5 0.2499998 1 0.2083331 0.5 0.2499998 0.5 0.2083331 1 0.1666665 0.5 0.2083331 0.5 0.1666665 1 0.1249998 0.5 0.1666665 0.5 0.1249998 1 0.08333313 0.5 0.1249998 0.5 0.37 0.04215389 0.49 0.25 0.37 0.4578461 0.08333313 1 0.04166644 0.5 0.08333313 0.5 0.04166644 1 -1.86265e-7 0.5 0.04166644 0.5 0.8121166 0.0181778 0.5802944 0.08029437 0.6878834 0.4818222 1 1 0.9583333 0.5 1 0.5 0.9583333 1 0.9166666 0.5 0.9583333 0.5 0.9166666 1 0.875 0.5 0.9166666 0.5 0.875 1 0.8333333 0.5 0.875 0.5 0.8333333 1 0.7916666 0.5 0.8333333 0.5 0.7916666 1 0.7499999 0.5 0.7916666 0.5 0.7499999 1 0.7083332 0.5 0.7499999 0.5 0.7083332 1 0.6666665 0.5 0.7083332 0.5 0.6666665 1 0.6249998 0.5 0.6666665 0.5 0.6249998 1 0.5833331 0.5 0.6249998 0.5 0.5833331 1 0.5416665 0.5 0.5833331 0.5 0.5416665 1 0.4999998 0.5 0.5416665 0.5 0.4999998 1 0.4583331 0.5 0.4999998 0.5 0.4583331 1 0.4166665 0.5 0.4583331 0.5 0.4166665 1 0.3749998 0.5 0.4166665 0.5 0.3749998 1 0.3333331 0.5 0.3749998 0.5 0.3333331 1 0.2916665 0.5 0.3333331 0.5 0.2916665 1 0.2499998 0.5 0.2916665 0.5 0.2499998 1 0.2083331 0.5 0.2499998 0.5 0.2083331 1 0.1666665 0.5 0.2083331 0.5 0.1666665 1 0.1249998 0.5 0.1666665 0.5 0.1249998 1 0.08333313 0.5 0.1249998 0.5 0.37 0.04215389 0.49 0.25 0.37 0.4578461 0.08333313 1 0.04166644 0.5 0.08333313 0.5 0.04166644 1 -1.86265e-7 0.5 0.04166644 0.5 0.8121166 0.0181778 0.5802944 0.08029437 0.6878834 0.4818222 1 1 0.9375 0.5 1 0.5 0.9375 1 0.875 0.5 0.9375 0.5 0.875 1 0.8125 0.5 0.875 0.5 0.8125 1 0.75 0.5 0.8125 0.5 0.75 0.5 0.6875 1 0.6875 0.5 0.6875 0.5 0.625 1 0.625 0.5 0.625 0.5 0.5625 1 0.5625 0.5 0.5625 0.5 0.5 1 0.5 0.5 0.5 0.5 0.4375 1 0.4375 0.5 0.4375 0.5 0.375 1 0.375 0.5 0.375 0.5 0.3125 1 0.3125 0.5 0.3125 0.5 0.25 1 0.25 0.5 0.25 1 0.1875 0.5 0.25 0.5 0.1875 1 0.125 0.5 0.1875 0.5 0.49 0.25 0.4717311 0.341844 0.4197056 0.4197056 0.125 1 0.0625 0.5 0.125 0.5 0.0625 1 0 0.5 0.0625 0.5 0.5282689 0.341844 0.5802944 0.4197056 0.5282689 0.1581559 1 1 0.9375 0.5 1 0.5 0.9375 1 0.875 0.5 0.9375 0.5 0.875 1 0.8125 0.5 0.875 0.5 0.8125 1 0.75 0.5 0.8125 0.5 0.75 0.5 0.6875 1 0.6875 0.5 0.6875 0.5 0.625 1 0.625 0.5 0.625 0.5 0.5625 1 0.5625 0.5 0.5625 0.5 0.5 1 0.5 0.5 0.5 0.5 0.4375 1 0.4375 0.5 0.4375 0.5 0.375 1 0.375 0.5 0.375 0.5 0.3125 1 0.3125 0.5 0.3125 0.5 0.25 1 0.25 0.5 0.25 1 0.1875 0.5 0.25 0.5 0.1875 1 0.125 0.5 0.1875 0.5 0.49 0.25 0.4717311 0.341844 0.4197056 0.4197056 0.125 1 0.0625 0.5 0.125 0.5 0.0625 1 0 0.5 0.0625 0.5 0.5282689 0.341844 0.5802944 0.4197056 0.5282689 0.1581559 1 1 0.9375 0.5 1 0.5 0.9375 1 0.875 0.5 0.9375 0.5 0.875 1 0.8125 0.5 0.875 0.5 0.8125 1 0.75 0.5 0.8125 0.5 0.75 0.5 0.6875 1 0.6875 0.5 0.6875 0.5 0.625 1 0.625 0.5 0.625 0.5 0.5625 1 0.5625 0.5 0.5625 0.5 0.5 1 0.5 0.5 0.5 0.5 0.4375 1 0.4375 0.5 0.4375 0.5 0.375 1 0.375 0.5 0.375 0.5 0.3125 1 0.3125 0.5 0.3125 0.5 0.25 1 0.25 0.5 0.25 1 0.1875 0.5 0.25 0.5 0.1875 1 0.125 0.5 0.1875 0.5 0.49 0.25 0.4717311 0.341844 0.4197056 0.4197056 0.125 1 0.0625 0.5 0.125 0.5 0.0625 1 0 0.5 0.0625 0.5 0.5282689 0.341844 0.5802944 0.4197056 0.5282689 0.1581559 1 1 0.9375 0.5 1 0.5 0.9375 1 0.875 0.5 0.9375 0.5 0.875 1 0.8125 0.5 0.875 0.5 0.8125 1 0.75 0.5 0.8125 0.5 0.75 0.5 0.6875 1 0.6875 0.5 0.6875 0.5 0.625 1 0.625 0.5 0.625 0.5 0.5625 1 0.5625 0.5 0.5625 0.5 0.5 1 0.5 0.5 0.5 0.5 0.4375 1 0.4375 0.5 0.4375 0.5 0.375 1 0.375 0.5 0.375 0.5 0.3125 1 0.3125 0.5 0.3125 0.5 0.25 1 0.25 0.5 0.25 1 0.1875 0.5 0.25 0.5 0.1875 1 0.125 0.5 0.1875 0.5 0.49 0.25 0.4717311 0.341844 0.4197056 0.4197056 0.125 1 0.0625 0.5 0.125 0.5 0.0625 1 0 0.5 0.0625 0.5 0.5282689 0.341844 0.5802944 0.4197056 0.5282689 0.1581559 1 1 0.9375 0.5 1 0.5 0.9375 1 0.875 0.5 0.9375 0.5 0.875 1 0.8125 0.5 0.875 0.5 0.8125 1 0.75 0.5 0.8125 0.5 0.75 0.5 0.6875 1 0.6875 0.5 0.6875 0.5 0.625 1 0.625 0.5 0.625 0.5 0.5625 1 0.5625 0.5 0.5625 0.5 0.5 1 0.5 0.5 0.5 0.5 0.4375 1 0.4375 0.5 0.4375 0.5 0.375 1 0.375 0.5 0.375 0.5 0.3125 1 0.3125 0.5 0.3125 0.5 0.25 1 0.25 0.5 0.25 1 0.1875 0.5 0.25 0.5 0.1875 1 0.125 0.5 0.1875 0.5 0.49 0.25 0.4717311 0.341844 0.4197056 0.4197056 0.125 1 0.0625 0.5 0.125 0.5 0.0625 1 0 0.5 0.0625 0.5 0.5282689 0.341844 0.5802944 0.4197056 0.5282689 0.1581559 1 1 0.9375 0.5 1 0.5 0.9375 1 0.875 0.5 0.9375 0.5 0.875 1 0.8125 0.5 0.875 0.5 0.8125 1 0.75 0.5 0.8125 0.5 0.75 0.5 0.6875 1 0.6875 0.5 0.6875 0.5 0.625 1 0.625 0.5 0.625 0.5 0.5625 1 0.5625 0.5 0.5625 0.5 0.5 1 0.5 0.5 0.5 0.5 0.4375 1 0.4375 0.5 0.4375 0.5 0.375 1 0.375 0.5 0.375 0.5 0.3125 1 0.3125 0.5 0.3125 0.5 0.25 1 0.25 0.5 0.25 1 0.1875 0.5 0.25 0.5 0.1875 1 0.125 0.5 0.1875 0.5 0.49 0.25 0.4717311 0.341844 0.4197056 0.4197056 0.125 1 0.0625 0.5 0.125 0.5 0.0625 1 0 0.5 0.0625 0.5 0.5282689 0.341844 0.5802944 0.4197056 0.5282689 0.1581559 1 1 0.9375 0.5 1 0.5 0.9375 1 0.875 0.5 0.9375 0.5 0.875 1 0.8125 0.5 0.875 0.5 0.8125 1 0.75 0.5 0.8125 0.5 0.75 0.5 0.6875 1 0.6875 0.5 0.6875 0.5 0.625 1 0.625 0.5 0.625 0.5 0.5625 1 0.5625 0.5 0.5625 0.5 0.5 1 0.5 0.5 0.5 0.5 0.4375 1 0.4375 0.5 0.4375 0.5 0.375 1 0.375 0.5 0.375 0.5 0.3125 1 0.3125 0.5 0.3125 0.5 0.25 1 0.25 0.5 0.25 1 0.1875 0.5 0.25 0.5 0.1875 1 0.125 0.5 0.1875 0.5 0.49 0.25 0.4717311 0.341844 0.4197056 0.4197056 0.125 1 0.0625 0.5 0.125 0.5 0.0625 1 0 0.5 0.0625 0.5 0.5282689 0.341844 0.5802944 0.4197056 0.5282689 0.1581559 1 1 0.9375 0.5 1 0.5 0.9375 1 0.875 0.5 0.9375 0.5 0.875 1 0.8125 0.5 0.875 0.5 0.8125 1 0.75 0.5 0.8125 0.5 0.75 0.5 0.6875 1 0.6875 0.5 0.6875 0.5 0.625 1 0.625 0.5 0.625 0.5 0.5625 1 0.5625 0.5 0.5625 0.5 0.5 1 0.5 0.5 0.5 0.5 0.4375 1 0.4375 0.5 0.4375 0.5 0.375 1 0.375 0.5 0.375 0.5 0.3125 1 0.3125 0.5 0.3125 0.5 0.25 1 0.25 0.5 0.25 1 0.1875 0.5 0.25 0.5 0.1875 1 0.125 0.5 0.1875 0.5 0.4717311 0.341844 0.4197056 0.4197056 0.4197056 0.08029437 0.125 1 0.0625 0.5 0.125 0.5 0.0625 1 0 0.5 0.0625 0.5 0.5282689 0.341844 0.5802944 0.4197056 0.5282689 0.1581559 1 1 0.9583333 1 0.9583333 0.5 0.9583333 1 0.9166666 1 0.9166666 0.5 0.9166666 1 0.875 1 0.875 0.5 0.875 1 0.8333333 1 0.8333333 0.5 0.8333333 1 0.7916666 1 0.7916666 0.5 0.7916666 1 0.7499999 1 0.7499999 0.5 0.7499999 1 0.7083332 1 0.7083332 0.5 0.7083332 1 0.6666665 1 0.6666665 0.5 0.6666665 1 0.6249998 1 0.6249998 0.5 0.6249998 1 0.5833331 1 0.5833331 0.5 0.5833331 1 0.5416665 1 0.5416665 0.5 0.5416665 1 0.4999998 1 0.4999998 0.5 0.4999998 1 0.4583331 1 0.4583331 0.5 0.4583331 1 0.4166665 1 0.4166665 0.5 0.4166665 1 0.3749998 1 0.3749998 0.5 0.3749998 1 0.3333331 1 0.3333331 0.5 0.3333331 1 0.2916665 1 0.2916665 0.5 0.2916665 0.5 0.2916665 1 0.2499998 1 0.2499998 0.5 0.2499998 1 0.2083331 1 0.2083331 0.5 0.2083331 1 0.1666665 1 0.1666665 1 0.1249998 1 0.1249998 0.5 0.1249998 1 0.08333313 1 0.08333313 0.5 0.37 0.4578461 0.3121166 0.4818222 0.25 0.49 0.25 0.49 0.1878834 0.4818222 0.1299999 0.4578461 0.1299999 0.4578461 0.08029437 0.4197056 0.04215389 0.37 0.04215389 0.37 0.0181778 0.3121166 0.00999999 0.25 0.00999999 0.25 0.0181778 0.1878834 0.04215389 0.1299999 0.04215389 0.1299999 0.08029437 0.08029437 0.1299999 0.04215389 0.1299999 0.04215389 0.1878834 0.0181778 0.25 0.00999999 0.25 0.00999999 0.3121166 0.0181778 0.37 0.04215389 0.37 0.04215389 0.4197056 0.08029437 0.4578461 0.1299999 0.4578461 0.1299999 0.4818222 0.1878834 0.37 0.04215389 0.4818222 0.1878834 0.49 0.25 0.37 0.04215389 0.49 0.25 0.4818222 0.3121166 0.4578461 0.37 0.4578461 0.37 0.4197056 0.4197056 0.37 0.4578461 0.37 0.4578461 0.25 0.49 0.1299999 0.4578461 0.1299999 0.4578461 0.04215389 0.37 0.37 0.4578461 0.04215389 0.37 0.00999999 0.25 0.37 0.4578461 0.00999999 0.25 0.04215389 0.1299999 0.37 0.04215389 0.04215389 0.1299999 0.1299999 0.04215389 0.37 0.04215389 0.1299999 0.04215389 0.25 0.00999999 0.37 0.04215389 0.49 0.25 0.4578461 0.37 0.37 0.04215389 0.4578461 0.37 0.37 0.4578461 0.37 0.04215389 0.08333313 1 0.04166644 1 0.04166644 0.5 0.04166644 1 -1.86265e-7 1 -1.86265e-7 0.5 0.6878834 0.4818222 0.75 0.49 0.8121166 0.4818222 0.8121166 0.4818222 0.87 0.4578461 0.6878834 0.4818222 0.87 0.4578461 0.9197056 0.4197056 0.6878834 0.4818222 0.9197056 0.4197056 0.9578461 0.37 0.9818222 0.3121166 0.9818222 0.3121166 0.99 0.25 0.9818222 0.1878834 0.9818222 0.1878834 0.9578461 0.1299999 0.9197056 0.08029437 0.9197056 0.08029437 0.87 0.04215389 0.9818222 0.1878834 0.87 0.04215389 0.8121166 0.0181778 0.9818222 0.1878834 0.8121166 0.0181778 0.75 0.00999999 0.6878834 0.0181778 0.6878834 0.0181778 0.63 0.04215389 0.5802944 0.08029437 0.5802944 0.08029437 0.5421539 0.1299999 0.5181778 0.3121166 0.5421539 0.1299999 0.5181778 0.1878834 0.5181778 0.3121166 0.5181778 0.1878834 0.51 0.25 0.5181778 0.3121166 0.5181778 0.3121166 0.5421539 0.37 0.6878834 0.4818222 0.5421539 0.37 0.5802944 0.4197056 0.6878834 0.4818222 0.5802944 0.4197056 0.63 0.4578461 0.6878834 0.4818222 0.9197056 0.4197056 0.9818222 0.3121166 0.6878834 0.4818222 0.9818222 0.3121166 0.9818222 0.1878834 0.6878834 0.4818222 0.8121166 0.0181778 0.6878834 0.0181778 0.9818222 0.1878834 0.6878834 0.0181778 0.5802944 0.08029437 0.9818222 0.1878834 0.5802944 0.08029437 0.5181778 0.3121166 0.9818222 0.1878834 1 1 0.9583333 1 0.9583333 0.5 0.9583333 1 0.9166666 1 0.9166666 0.5 0.9166666 1 0.875 1 0.875 0.5 0.875 1 0.8333333 1 0.8333333 0.5 0.8333333 1 0.7916666 1 0.7916666 0.5 0.7916666 1 0.7499999 1 0.7499999 0.5 0.7499999 1 0.7083332 1 0.7083332 0.5 0.7083332 1 0.6666665 1 0.6666665 0.5 0.6666665 1 0.6249998 1 0.6249998 0.5 0.6249998 1 0.5833331 1 0.5833331 0.5 0.5833331 1 0.5416665 1 0.5416665 0.5 0.5416665 1 0.4999998 1 0.4999998 0.5 0.4999998 1 0.4583331 1 0.4583331 0.5 0.4583331 1 0.4166665 1 0.4166665 0.5 0.4166665 1 0.3749998 1 0.3749998 0.5 0.3749998 1 0.3333331 1 0.3333331 0.5 0.3333331 1 0.2916665 1 0.2916665 0.5 0.2916665 1 0.2499998 1 0.2499998 0.5 0.2499998 1 0.2083331 1 0.2083331 0.5 0.2083331 1 0.1666665 1 0.1666665 0.5 0.1666665 1 0.1249998 1 0.1249998 0.5 0.1249998 1 0.08333313 1 0.08333313 0.5 0.37 0.4578461 0.3121166 0.4818222 0.13 0.4578461 0.3121166 0.4818222 0.25 0.49 0.13 0.4578461 0.25 0.49 0.1878834 0.4818222 0.13 0.4578461 0.13 0.4578461 0.08029437 0.4197056 0.04215389 0.37 0.04215389 0.37 0.0181778 0.3121166 0.13 0.4578461 0.0181778 0.3121166 0.00999999 0.25 0.13 0.4578461 0.00999999 0.25 0.0181778 0.1878834 0.13 0.04215389 0.0181778 0.1878834 0.04215389 0.13 0.13 0.04215389 0.04215389 0.13 0.08029437 0.08029437 0.13 0.04215389 0.13 0.04215389 0.1878834 0.0181778 0.37 0.04215389 0.1878834 0.0181778 0.25 0.00999999 0.37 0.04215389 0.25 0.00999999 0.3121166 0.0181778 0.37 0.04215389 0.37 0.04215389 0.4197056 0.08029437 0.49 0.25 0.4197056 0.08029437 0.4578461 0.13 0.49 0.25 0.4578461 0.13 0.4818222 0.1878834 0.49 0.25 0.49 0.25 0.4818222 0.3121166 0.4578461 0.37 0.4578461 0.37 0.4197056 0.4197056 0.49 0.25 0.4197056 0.4197056 0.37 0.4578461 0.49 0.25 0.37 0.4578461 0.13 0.4578461 0.37 0.04215389 0.13 0.4578461 0.00999999 0.25 0.37 0.04215389 0.00999999 0.25 0.13 0.04215389 0.37 0.04215389 0.08333313 1 0.04166644 1 0.04166644 0.5 0.04166644 1 -1.86265e-7 1 -1.86265e-7 0.5 0.6878834 0.4818222 0.75 0.49 0.8121166 0.4818222 0.8121166 0.4818222 0.87 0.4578461 0.9197056 0.4197056 0.9197056 0.4197056 0.9578461 0.37 0.9818222 0.3121166 0.9818222 0.3121166 0.99 0.25 0.9197056 0.4197056 0.99 0.25 0.9818222 0.1878834 0.9197056 0.4197056 0.9818222 0.1878834 0.9578461 0.13 0.9197056 0.08029437 0.9197056 0.08029437 0.87 0.04215389 0.9818222 0.1878834 0.87 0.04215389 0.8121166 0.0181778 0.9818222 0.1878834 0.8121166 0.0181778 0.75 0.00999999 0.6878834 0.0181778 0.6878834 0.0181778 0.63 0.04215389 0.5802944 0.08029437 0.5802944 0.08029437 0.542154 0.13 0.5181778 0.1878834 0.5181778 0.1878834 0.51 0.25 0.5181778 0.3121166 0.5181778 0.3121166 0.542154 0.37 0.5802944 0.4197056 0.5802944 0.4197056 0.63 0.4578461 0.6878834 0.4818222 0.6878834 0.4818222 0.8121166 0.4818222 0.9197056 0.4197056 0.8121166 0.0181778 0.6878834 0.0181778 0.5802944 0.08029437 0.5802944 0.08029437 0.5181778 0.1878834 0.6878834 0.4818222 0.5181778 0.1878834 0.5181778 0.3121166 0.6878834 0.4818222 0.5181778 0.3121166 0.5802944 0.4197056 0.6878834 0.4818222 0.6878834 0.4818222 0.9197056 0.4197056 0.9818222 0.1878834 0.9818222 0.1878834 0.8121166 0.0181778 0.6878834 0.4818222 1 1 0.9583333 1 0.9583333 0.5 0.9583333 1 0.9166666 1 0.9166666 0.5 0.9166666 1 0.875 1 0.875 0.5 0.875 1 0.8333333 1 0.8333333 0.5 0.8333333 1 0.7916666 1 0.7916666 0.5 0.7916666 1 0.7499999 1 0.7499999 0.5 0.7499999 1 0.7083332 1 0.7083332 0.5 0.7083332 1 0.6666665 1 0.6666665 0.5 0.6666665 1 0.6249998 1 0.6249998 0.5 0.6249998 1 0.5833331 1 0.5833331 0.5 0.5833331 1 0.5416665 1 0.5416665 0.5 0.5416665 1 0.4999998 1 0.4999998 0.5 0.4999998 1 0.4583331 1 0.4583331 0.5 0.4583331 1 0.4166665 1 0.4166665 0.5 0.4166665 1 0.3749998 1 0.3749998 0.5 0.3749998 1 0.3333331 1 0.3333331 0.5 0.3333331 1 0.2916665 1 0.2916665 0.5 0.2916665 1 0.2499998 1 0.2499998 0.5 0.2499998 1 0.2083331 1 0.2083331 0.5 0.2083331 1 0.1666665 1 0.1666665 0.5 0.1666665 1 0.1249998 1 0.1249998 0.5 0.1249998 1 0.08333313 1 0.08333313 0.5 0.37 0.4578461 0.3121166 0.4818222 0.25 0.49 0.25 0.49 0.1878834 0.4818222 0.37 0.4578461 0.1878834 0.4818222 0.13 0.4578461 0.37 0.4578461 0.13 0.4578461 0.08029437 0.4197056 0.04215389 0.37 0.04215389 0.37 0.0181778 0.3121166 0.13 0.4578461 0.0181778 0.3121166 0.00999999 0.25 0.13 0.4578461 0.00999999 0.25 0.0181778 0.1878834 0.13 0.04215389 0.0181778 0.1878834 0.04215389 0.13 0.13 0.04215389 0.04215389 0.13 0.08029437 0.08029437 0.13 0.04215389 0.13 0.04215389 0.1878834 0.0181778 0.25 0.00999999 0.25 0.00999999 0.3121166 0.0181778 0.13 0.04215389 0.3121166 0.0181778 0.37 0.04215389 0.13 0.04215389 0.37 0.04215389 0.4197056 0.08029437 0.4578461 0.13 0.4578461 0.13 0.4818222 0.1878834 0.37 0.04215389 0.4818222 0.1878834 0.49 0.25 0.37 0.04215389 0.49 0.25 0.4818222 0.3121166 0.4578461 0.37 0.4578461 0.37 0.4197056 0.4197056 0.49 0.25 0.4197056 0.4197056 0.37 0.4578461 0.49 0.25 0.37 0.4578461 0.13 0.4578461 0.37 0.04215389 0.13 0.4578461 0.00999999 0.25 0.37 0.04215389 0.00999999 0.25 0.13 0.04215389 0.37 0.04215389 0.08333313 1 0.04166644 1 0.04166644 0.5 0.04166644 1 -1.86265e-7 1 -1.86265e-7 0.5 0.6878834 0.4818222 0.75 0.49 0.8121166 0.4818222 0.8121166 0.4818222 0.87 0.4578461 0.9197056 0.4197056 0.9197056 0.4197056 0.9578461 0.37 0.9818222 0.3121166 0.9818222 0.3121166 0.99 0.25 0.9197056 0.4197056 0.99 0.25 0.9818222 0.1878834 0.9197056 0.4197056 0.9818222 0.1878834 0.9578461 0.13 0.9197056 0.08029437 0.9197056 0.08029437 0.87 0.04215389 0.9818222 0.1878834 0.87 0.04215389 0.8121166 0.0181778 0.9818222 0.1878834 0.8121166 0.0181778 0.75 0.00999999 0.6878834 0.0181778 0.6878834 0.0181778 0.63 0.04215389 0.5802944 0.08029437 0.5802944 0.08029437 0.542154 0.13 0.5181778 0.1878834 0.5181778 0.1878834 0.51 0.25 0.5181778 0.3121166 0.5181778 0.3121166 0.542154 0.37 0.5802944 0.4197056 0.5802944 0.4197056 0.63 0.4578461 0.6878834 0.4818222 0.6878834 0.4818222 0.8121166 0.4818222 0.9197056 0.4197056 0.8121166 0.0181778 0.6878834 0.0181778 0.5802944 0.08029437 0.5802944 0.08029437 0.5181778 0.1878834 0.6878834 0.4818222 0.5181778 0.1878834 0.5181778 0.3121166 0.6878834 0.4818222 0.5181778 0.3121166 0.5802944 0.4197056 0.6878834 0.4818222 0.6878834 0.4818222 0.9197056 0.4197056 0.9818222 0.1878834 0.9818222 0.1878834 0.8121166 0.0181778 0.6878834 0.4818222 1 1 0.9375 1 0.9375 0.5 0.9375 1 0.875 1 0.875 0.5 0.875 1 0.8125 1 0.8125 0.5 0.8125 1 0.75 1 0.75 0.5 0.75 0.5 0.75 1 0.6875 1 0.6875 0.5 0.6875 1 0.625 1 0.625 0.5 0.625 1 0.5625 1 0.5625 0.5 0.5625 1 0.5 1 0.5 0.5 0.5 1 0.4375 1 0.4375 0.5 0.4375 1 0.375 1 0.375 0.5 0.375 1 0.3125 1 0.3125 0.5 0.3125 1 0.25 1 0.25 1 0.1875 1 0.1875 0.5 0.1875 1 0.125 1 0.125 0.5 0.4197056 0.4197056 0.341844 0.4717311 0.341844 0.02826893 0.341844 0.4717311 0.25 0.49 0.25 0.00999999 0.25 0.49 0.1581559 0.4717311 0.1581559 0.02826893 0.1581559 0.4717311 0.08029437 0.4197056 0.08029437 0.08029437 0.08029437 0.4197056 0.02826893 0.341844 0.00999999 0.25 0.00999999 0.25 0.02826893 0.1581559 0.08029437 0.4197056 0.02826893 0.1581559 0.08029437 0.08029437 0.08029437 0.4197056 0.08029437 0.08029437 0.1581559 0.02826893 0.1581559 0.4717311 0.1581559 0.02826893 0.25 0.00999999 0.25 0.49 0.25 0.00999999 0.341844 0.02826893 0.341844 0.4717311 0.341844 0.02826893 0.4197056 0.08029437 0.4197056 0.4197056 0.4197056 0.08029437 0.4717311 0.1581559 0.4197056 0.4197056 0.4717311 0.1581559 0.49 0.25 0.4197056 0.4197056 0.125 1 0.0625 1 0.0625 0.5 0.0625 1 0 1 0 0.5 0.658156 0.4717311 0.75 0.49 0.75 0.00999999 0.75 0.49 0.841844 0.4717311 0.841844 0.02826893 0.841844 0.4717311 0.9197056 0.4197056 0.841844 0.02826893 0.9197056 0.4197056 0.9717311 0.341844 0.9197056 0.08029437 0.841844 0.02826893 0.9197056 0.4197056 0.9197056 0.08029437 0.9717311 0.341844 0.99 0.25 0.9717311 0.1581559 0.9717311 0.1581559 0.9197056 0.08029437 0.9717311 0.341844 0.841844 0.02826893 0.75 0.00999999 0.75 0.49 0.75 0.00999999 0.658156 0.02826893 0.658156 0.4717311 0.658156 0.02826893 0.5802944 0.08029437 0.658156 0.4717311 0.5802944 0.08029437 0.5282689 0.1581559 0.5802944 0.4197056 0.658156 0.4717311 0.5802944 0.08029437 0.5802944 0.4197056 0.5282689 0.1581559 0.51 0.25 0.5282689 0.341844 1 1 0.9375 1 0.9375 0.5 0.9375 1 0.875 1 0.875 0.5 0.875 1 0.8125 1 0.8125 0.5 0.8125 1 0.75 1 0.75 0.5 0.75 0.5 0.75 1 0.6875 1 0.6875 0.5 0.6875 1 0.625 1 0.625 0.5 0.625 1 0.5625 1 0.5625 0.5 0.5625 1 0.5 1 0.5 0.5 0.5 1 0.4375 1 0.4375 0.5 0.4375 1 0.375 1 0.375 0.5 0.375 1 0.3125 1 0.3125 0.5 0.3125 1 0.25 1 0.25 1 0.1875 1 0.1875 0.5 0.1875 1 0.125 1 0.125 0.5 0.4197056 0.4197056 0.341844 0.4717311 0.341844 0.02826893 0.341844 0.4717311 0.25 0.49 0.25 0.00999999 0.25 0.49 0.1581559 0.4717311 0.1581559 0.02826893 0.1581559 0.4717311 0.08029437 0.4197056 0.08029437 0.08029437 0.08029437 0.4197056 0.02826893 0.341844 0.08029437 0.08029437 0.02826893 0.341844 0.00999999 0.25 0.08029437 0.08029437 0.00999999 0.25 0.02826893 0.1581559 0.08029437 0.08029437 0.08029437 0.08029437 0.1581559 0.02826893 0.1581559 0.4717311 0.1581559 0.02826893 0.25 0.00999999 0.25 0.49 0.25 0.00999999 0.341844 0.02826893 0.341844 0.4717311 0.341844 0.02826893 0.4197056 0.08029437 0.4197056 0.4197056 0.4197056 0.08029437 0.4717311 0.1581559 0.4197056 0.4197056 0.4717311 0.1581559 0.49 0.25 0.4197056 0.4197056 0.125 1 0.0625 1 0.0625 0.5 0.0625 1 0 1 0 0.5 0.658156 0.4717311 0.75 0.49 0.75 0.00999999 0.75 0.49 0.841844 0.4717311 0.841844 0.02826893 0.841844 0.4717311 0.9197056 0.4197056 0.841844 0.02826893 0.9197056 0.4197056 0.9717311 0.341844 0.9197056 0.08029437 0.841844 0.02826893 0.9197056 0.4197056 0.9197056 0.08029437 0.9717311 0.341844 0.99 0.25 0.9717311 0.1581559 0.9717311 0.1581559 0.9197056 0.08029437 0.9717311 0.341844 0.841844 0.02826893 0.75 0.00999999 0.75 0.49 0.75 0.00999999 0.658156 0.02826893 0.658156 0.4717311 0.658156 0.02826893 0.5802944 0.08029437 0.658156 0.4717311 0.5802944 0.08029437 0.5282689 0.1581559 0.5802944 0.4197056 0.658156 0.4717311 0.5802944 0.08029437 0.5802944 0.4197056 0.5282689 0.1581559 0.51 0.25 0.5282689 0.341844 1 1 0.9375 1 0.9375 0.5 0.9375 1 0.875 1 0.875 0.5 0.875 1 0.8125 1 0.8125 0.5 0.8125 1 0.75 1 0.75 0.5 0.75 0.5 0.75 1 0.6875 1 0.6875 0.5 0.6875 1 0.625 1 0.625 0.5 0.625 1 0.5625 1 0.5625 0.5 0.5625 1 0.5 1 0.5 0.5 0.5 1 0.4375 1 0.4375 0.5 0.4375 1 0.375 1 0.375 0.5 0.375 1 0.3125 1 0.3125 0.5 0.3125 1 0.25 1 0.25 1 0.1875 1 0.1875 0.5 0.1875 1 0.125 1 0.125 0.5 0.4197056 0.4197056 0.341844 0.4717311 0.341844 0.02826893 0.341844 0.4717311 0.25 0.49 0.25 0.00999999 0.25 0.49 0.1581559 0.4717311 0.1581559 0.02826893 0.1581559 0.4717311 0.08029437 0.4197056 0.08029437 0.08029437 0.08029437 0.4197056 0.02826893 0.341844 0.00999999 0.25 0.00999999 0.25 0.02826893 0.1581559 0.08029437 0.4197056 0.02826893 0.1581559 0.08029437 0.08029437 0.08029437 0.4197056 0.08029437 0.08029437 0.1581559 0.02826893 0.1581559 0.4717311 0.1581559 0.02826893 0.25 0.00999999 0.25 0.49 0.25 0.00999999 0.341844 0.02826893 0.341844 0.4717311 0.341844 0.02826893 0.4197056 0.08029437 0.4197056 0.4197056 0.4197056 0.08029437 0.4717311 0.1581559 0.4197056 0.4197056 0.4717311 0.1581559 0.49 0.25 0.4197056 0.4197056 0.125 1 0.0625 1 0.0625 0.5 0.0625 1 0 1 0 0.5 0.658156 0.4717311 0.75 0.49 0.75 0.00999999 0.75 0.49 0.841844 0.4717311 0.841844 0.02826893 0.841844 0.4717311 0.9197056 0.4197056 0.841844 0.02826893 0.9197056 0.4197056 0.9717311 0.341844 0.9197056 0.08029437 0.841844 0.02826893 0.9197056 0.4197056 0.9197056 0.08029437 0.9717311 0.341844 0.99 0.25 0.9717311 0.1581559 0.9717311 0.1581559 0.9197056 0.08029437 0.9717311 0.341844 0.841844 0.02826893 0.75 0.00999999 0.75 0.49 0.75 0.00999999 0.658156 0.02826893 0.658156 0.4717311 0.658156 0.02826893 0.5802944 0.08029437 0.658156 0.4717311 0.5802944 0.08029437 0.5282689 0.1581559 0.5802944 0.4197056 0.658156 0.4717311 0.5802944 0.08029437 0.5802944 0.4197056 0.5282689 0.1581559 0.51 0.25 0.5282689 0.341844 1 1 0.9375 1 0.9375 0.5 0.9375 1 0.875 1 0.875 0.5 0.875 1 0.8125 1 0.8125 0.5 0.8125 1 0.75 1 0.75 0.5 0.75 0.5 0.75 1 0.6875 1 0.6875 0.5 0.6875 1 0.625 1 0.625 0.5 0.625 1 0.5625 1 0.5625 0.5 0.5625 1 0.5 1 0.5 0.5 0.5 1 0.4375 1 0.4375 0.5 0.4375 1 0.375 1 0.375 0.5 0.375 1 0.3125 1 0.3125 0.5 0.3125 1 0.25 1 0.25 1 0.1875 1 0.1875 0.5 0.1875 1 0.125 1 0.125 0.5 0.4197056 0.4197056 0.341844 0.4717311 0.341844 0.02826893 0.341844 0.4717311 0.25 0.49 0.25 0.00999999 0.25 0.49 0.1581559 0.4717311 0.1581559 0.02826893 0.1581559 0.4717311 0.08029437 0.4197056 0.08029437 0.08029437 0.08029437 0.4197056 0.02826893 0.341844 0.08029437 0.08029437 0.02826893 0.341844 0.00999999 0.25 0.08029437 0.08029437 0.00999999 0.25 0.02826893 0.1581559 0.08029437 0.08029437 0.08029437 0.08029437 0.1581559 0.02826893 0.1581559 0.4717311 0.1581559 0.02826893 0.25 0.00999999 0.25 0.49 0.25 0.00999999 0.341844 0.02826893 0.341844 0.4717311 0.341844 0.02826893 0.4197056 0.08029437 0.4197056 0.4197056 0.4197056 0.08029437 0.4717311 0.1581559 0.4197056 0.4197056 0.4717311 0.1581559 0.49 0.25 0.4197056 0.4197056 0.125 1 0.0625 1 0.0625 0.5 0.0625 1 0 1 0 0.5 0.658156 0.4717311 0.75 0.49 0.75 0.00999999 0.75 0.49 0.841844 0.4717311 0.841844 0.02826893 0.841844 0.4717311 0.9197056 0.4197056 0.841844 0.02826893 0.9197056 0.4197056 0.9717311 0.341844 0.9197056 0.08029437 0.841844 0.02826893 0.9197056 0.4197056 0.9197056 0.08029437 0.9717311 0.341844 0.99 0.25 0.9717311 0.1581559 0.9717311 0.1581559 0.9197056 0.08029437 0.9717311 0.341844 0.841844 0.02826893 0.75 0.00999999 0.75 0.49 0.75 0.00999999 0.658156 0.02826893 0.658156 0.4717311 0.658156 0.02826893 0.5802944 0.08029437 0.658156 0.4717311 0.5802944 0.08029437 0.5282689 0.1581559 0.5802944 0.4197056 0.658156 0.4717311 0.5802944 0.08029437 0.5802944 0.4197056 0.5282689 0.1581559 0.51 0.25 0.5282689 0.341844 1 1 0.9375 1 0.9375 0.5 0.9375 1 0.875 1 0.875 0.5 0.875 1 0.8125 1 0.8125 0.5 0.8125 1 0.75 1 0.75 0.5 0.75 0.5 0.75 1 0.6875 1 0.6875 0.5 0.6875 1 0.625 1 0.625 0.5 0.625 1 0.5625 1 0.5625 0.5 0.5625 1 0.5 1 0.5 0.5 0.5 1 0.4375 1 0.4375 0.5 0.4375 1 0.375 1 0.375 0.5 0.375 1 0.3125 1 0.3125 0.5 0.3125 1 0.25 1 0.25 1 0.1875 1 0.1875 0.5 0.1875 1 0.125 1 0.125 0.5 0.4197056 0.4197056 0.341844 0.4717311 0.341844 0.02826893 0.341844 0.4717311 0.25 0.49 0.25 0.00999999 0.25 0.49 0.1581559 0.4717311 0.1581559 0.02826893 0.1581559 0.4717311 0.08029437 0.4197056 0.08029437 0.08029437 0.08029437 0.4197056 0.02826893 0.341844 0.00999999 0.25 0.00999999 0.25 0.02826893 0.1581559 0.08029437 0.4197056 0.02826893 0.1581559 0.08029437 0.08029437 0.08029437 0.4197056 0.08029437 0.08029437 0.1581559 0.02826893 0.1581559 0.4717311 0.1581559 0.02826893 0.25 0.00999999 0.25 0.49 0.25 0.00999999 0.341844 0.02826893 0.341844 0.4717311 0.341844 0.02826893 0.4197056 0.08029437 0.4197056 0.4197056 0.4197056 0.08029437 0.4717311 0.1581559 0.4197056 0.4197056 0.4717311 0.1581559 0.49 0.25 0.4197056 0.4197056 0.125 1 0.0625 1 0.0625 0.5 0.0625 1 0 1 0 0.5 0.658156 0.4717311 0.75 0.49 0.75 0.00999999 0.75 0.49 0.841844 0.4717311 0.841844 0.02826893 0.841844 0.4717311 0.9197056 0.4197056 0.841844 0.02826893 0.9197056 0.4197056 0.9717311 0.341844 0.9197056 0.08029437 0.841844 0.02826893 0.9197056 0.4197056 0.9197056 0.08029437 0.9717311 0.341844 0.99 0.25 0.9717311 0.1581559 0.9717311 0.1581559 0.9197056 0.08029437 0.9717311 0.341844 0.841844 0.02826893 0.75 0.00999999 0.75 0.49 0.75 0.00999999 0.658156 0.02826893 0.658156 0.4717311 0.658156 0.02826893 0.5802944 0.08029437 0.658156 0.4717311 0.5802944 0.08029437 0.5282689 0.1581559 0.5802944 0.4197056 0.658156 0.4717311 0.5802944 0.08029437 0.5802944 0.4197056 0.5282689 0.1581559 0.51 0.25 0.5282689 0.341844 1 1 0.9375 1 0.9375 0.5 0.9375 1 0.875 1 0.875 0.5 0.875 1 0.8125 1 0.8125 0.5 0.8125 1 0.75 1 0.75 0.5 0.75 0.5 0.75 1 0.6875 1 0.6875 0.5 0.6875 1 0.625 1 0.625 0.5 0.625 1 0.5625 1 0.5625 0.5 0.5625 1 0.5 1 0.5 0.5 0.5 1 0.4375 1 0.4375 0.5 0.4375 1 0.375 1 0.375 0.5 0.375 1 0.3125 1 0.3125 0.5 0.3125 1 0.25 1 0.25 1 0.1875 1 0.1875 0.5 0.1875 1 0.125 1 0.125 0.5 0.4197056 0.4197056 0.341844 0.4717311 0.341844 0.02826893 0.341844 0.4717311 0.25 0.49 0.25 0.00999999 0.25 0.49 0.1581559 0.4717311 0.1581559 0.02826893 0.1581559 0.4717311 0.08029437 0.4197056 0.08029437 0.08029437 0.08029437 0.4197056 0.02826893 0.341844 0.08029437 0.08029437 0.02826893 0.341844 0.00999999 0.25 0.08029437 0.08029437 0.00999999 0.25 0.02826893 0.1581559 0.08029437 0.08029437 0.08029437 0.08029437 0.1581559 0.02826893 0.1581559 0.4717311 0.1581559 0.02826893 0.25 0.00999999 0.25 0.49 0.25 0.00999999 0.341844 0.02826893 0.341844 0.4717311 0.341844 0.02826893 0.4197056 0.08029437 0.4197056 0.4197056 0.4197056 0.08029437 0.4717311 0.1581559 0.4197056 0.4197056 0.4717311 0.1581559 0.49 0.25 0.4197056 0.4197056 0.125 1 0.0625 1 0.0625 0.5 0.0625 1 0 1 0 0.5 0.658156 0.4717311 0.75 0.49 0.75 0.00999999 0.75 0.49 0.841844 0.4717311 0.841844 0.02826893 0.841844 0.4717311 0.9197056 0.4197056 0.841844 0.02826893 0.9197056 0.4197056 0.9717311 0.341844 0.9197056 0.08029437 0.841844 0.02826893 0.9197056 0.4197056 0.9197056 0.08029437 0.9717311 0.341844 0.99 0.25 0.9717311 0.1581559 0.9717311 0.1581559 0.9197056 0.08029437 0.9717311 0.341844 0.841844 0.02826893 0.75 0.00999999 0.75 0.49 0.75 0.00999999 0.658156 0.02826893 0.658156 0.4717311 0.658156 0.02826893 0.5802944 0.08029437 0.658156 0.4717311 0.5802944 0.08029437 0.5282689 0.1581559 0.5802944 0.4197056 0.658156 0.4717311 0.5802944 0.08029437 0.5802944 0.4197056 0.5282689 0.1581559 0.51 0.25 0.5282689 0.341844 1 1 0.9375 1 0.9375 0.5 0.9375 1 0.875 1 0.875 0.5 0.875 1 0.8125 1 0.8125 0.5 0.8125 1 0.75 1 0.75 0.5 0.75 0.5 0.75 1 0.6875 1 0.6875 0.5 0.6875 1 0.625 1 0.625 0.5 0.625 1 0.5625 1 0.5625 0.5 0.5625 1 0.5 1 0.5 0.5 0.5 1 0.4375 1 0.4375 0.5 0.4375 1 0.375 1 0.375 0.5 0.375 1 0.3125 1 0.3125 0.5 0.3125 1 0.25 1 0.25 1 0.1875 1 0.1875 0.5 0.1875 1 0.125 1 0.125 0.5 0.4197056 0.4197056 0.341844 0.4717311 0.341844 0.02826893 0.341844 0.4717311 0.25 0.49 0.25 0.00999999 0.25 0.49 0.1581559 0.4717311 0.1581559 0.02826893 0.1581559 0.4717311 0.08029437 0.4197056 0.08029437 0.08029437 0.08029437 0.4197056 0.02826893 0.341844 0.08029437 0.08029437 0.02826893 0.341844 0.00999999 0.25 0.08029437 0.08029437 0.00999999 0.25 0.02826893 0.1581559 0.08029437 0.08029437 0.08029437 0.08029437 0.1581559 0.02826893 0.1581559 0.4717311 0.1581559 0.02826893 0.25 0.00999999 0.25 0.49 0.25 0.00999999 0.341844 0.02826893 0.341844 0.4717311 0.341844 0.02826893 0.4197056 0.08029437 0.4197056 0.4197056 0.4197056 0.08029437 0.4717311 0.1581559 0.4197056 0.4197056 0.4717311 0.1581559 0.49 0.25 0.4197056 0.4197056 0.125 1 0.0625 1 0.0625 0.5 0.0625 1 0 1 0 0.5 0.658156 0.4717311 0.75 0.49 0.75 0.00999999 0.75 0.49 0.841844 0.4717311 0.841844 0.02826893 0.841844 0.4717311 0.9197056 0.4197056 0.841844 0.02826893 0.9197056 0.4197056 0.9717311 0.341844 0.9197056 0.08029437 0.841844 0.02826893 0.9197056 0.4197056 0.9197056 0.08029437 0.9717311 0.341844 0.99 0.25 0.9717311 0.1581559 0.9717311 0.1581559 0.9197056 0.08029437 0.9717311 0.341844 0.841844 0.02826893 0.75 0.00999999 0.75 0.49 0.75 0.00999999 0.658156 0.02826893 0.658156 0.4717311 0.658156 0.02826893 0.5802944 0.08029437 0.658156 0.4717311 0.5802944 0.08029437 0.5282689 0.1581559 0.5802944 0.4197056 0.658156 0.4717311 0.5802944 0.08029437 0.5802944 0.4197056 0.5282689 0.1581559 0.51 0.25 0.5282689 0.341844 1 1 0.9375 1 0.9375 0.5 0.9375 1 0.875 1 0.875 0.5 0.875 1 0.8125 1 0.8125 0.5 0.8125 1 0.75 1 0.75 0.5 0.75 0.5 0.75 1 0.6875 1 0.6875 0.5 0.6875 1 0.625 1 0.625 0.5 0.625 1 0.5625 1 0.5625 0.5 0.5625 1 0.5 1 0.5 0.5 0.5 1 0.4375 1 0.4375 0.5 0.4375 1 0.375 1 0.375 0.5 0.375 1 0.3125 1 0.3125 0.5 0.3125 1 0.25 1 0.25 1 0.1875 1 0.1875 0.5 0.1875 1 0.125 1 0.125 0.5 0.4197056 0.4197056 0.341844 0.4717311 0.341844 0.02826893 0.341844 0.4717311 0.25 0.49 0.25 0.00999999 0.25 0.49 0.1581559 0.4717311 0.1581559 0.02826893 0.1581559 0.4717311 0.08029437 0.4197056 0.08029437 0.08029437 0.08029437 0.4197056 0.02826893 0.341844 0.00999999 0.25 0.00999999 0.25 0.02826893 0.1581559 0.08029437 0.4197056 0.02826893 0.1581559 0.08029437 0.08029437 0.08029437 0.4197056 0.08029437 0.08029437 0.1581559 0.02826893 0.1581559 0.4717311 0.1581559 0.02826893 0.25 0.00999999 0.25 0.49 0.25 0.00999999 0.341844 0.02826893 0.341844 0.4717311 0.341844 0.02826893 0.4197056 0.08029437 0.4197056 0.4197056 0.4197056 0.08029437 0.4717311 0.1581559 0.49 0.25 0.49 0.25 0.4717311 0.341844 0.4197056 0.08029437 0.125 1 0.0625 1 0.0625 0.5 0.0625 1 0 1 0 0.5 0.658156 0.4717311 0.75 0.49 0.75 0.00999999 0.75 0.49 0.841844 0.4717311 0.841844 0.02826893 0.841844 0.4717311 0.9197056 0.4197056 0.841844 0.02826893 0.9197056 0.4197056 0.9717311 0.341844 0.9197056 0.08029437 0.841844 0.02826893 0.9197056 0.4197056 0.9197056 0.08029437 0.9717311 0.341844 0.99 0.25 0.9717311 0.1581559 0.9717311 0.1581559 0.9197056 0.08029437 0.9717311 0.341844 0.841844 0.02826893 0.75 0.00999999 0.75 0.49 0.75 0.00999999 0.658156 0.02826893 0.658156 0.4717311 0.658156 0.02826893 0.5802944 0.08029437 0.658156 0.4717311 0.5802944 0.08029437 0.5282689 0.1581559 0.5802944 0.4197056 0.658156 0.4717311 0.5802944 0.08029437 0.5802944 0.4197056 0.5282689 0.1581559 0.51 0.25 0.5282689 0.341844</float_array>
          <technique_common>
            <accessor source="#Mesh_wheel_left_002-mesh-map-0-array" count="2268" stride="2">
              <param name="S" type="float"/>
              <param name="T" type="float"/>
            </accessor>
          </technique_common>
        </source>
        <vertices id="Mesh_wheel_left_002-mesh-vertices">
          <input semantic="POSITION" source="#Mesh_wheel_left_002-mesh-positions"/>
        </vertices>
        <triangles material="Mat_WheelHub-material" count="276">
          <input semantic="VERTEX" source="#Mesh_wheel_left_002-mesh-vertices" offset="0"/>
          <input semantic="NORMAL" source="#Mesh_wheel_left_002-mesh-normals" offset="1"/>
          <input semantic="TEXCOORD" source="#Mesh_wheel_left_002-mesh-map-0" offset="2" set="0"/>
          <p>1 0 0 2 0 1 0 0 2 3 1 3 4 1 4 2 1 5 5 2 6 6 2 7 4 2 8 7 3 9 8 3 10 6 3 11 9 4 12 10 4 13 8 4 14 11 5 15 12 5 16 10 5 17 13 6 18 14 6 19 12 6 20 15 7 21 16 7 22 14 7 23 17 8 24 18 8 25 16 8 26 19 9 27 20 9 28 18 9 29 21 10 30 22 10 31 20 10 32 23 11 33 24 11 34 22 11 35 25 12 36 26 12 37 24 12 38 27 13 39 28 13 40 26 13 41 29 14 42 30 14 43 28 14 44 31 15 45 32 15 46 30 15 47 33 16 48 34 16 49 32 16 50 34 17 51 37 17 52 36 17 53 36 18 54 39 18 55 38 18 56 38 19 57 41 19 58 40 19 59 41 20 60 42 20 61 40 20 62 43 21 63 44 21 64 42 21 65 37 22 66 21 22 67 5 22 68 45 23 69 46 23 70 44 23 71 47 24 72 0 24 73 46 24 74 38 25 75 46 25 76 14 25 77 49 26 78 50 26 79 48 26 80 51 27 81 52 27 82 50 27 83 53 28 84 54 28 85 52 28 86 55 29 87 56 29 88 54 29 89 57 30 90 58 30 91 56 30 92 59 31 93 60 31 94 58 31 95 61 32 96 62 32 97 60 32 98 63 33 99 64 33 100 62 33 101 65 34 102 66 34 103 64 34 104 67 35 105 68 35 106 66 35 107 69 36 108 70 36 109 68 36 110 71 37 111 72 37 112 70 37 113 73 38 114 74 38 115 72 38 116 75 39 117 76 39 118 74 39 119 77 40 120 78 40 121 76 40 122 79 41 123 80 41 124 78 41 125 81 42 126 82 42 127 80 42 128 83 43 129 84 43 130 82 43 131 85 44 132 86 44 133 84 44 134 87 45 135 88 45 136 86 45 137 89 46 138 90 46 139 88 46 140 91 47 141 92 47 142 90 47 143 69 48 144 61 48 145 53 48 146 93 49 147 94 49 148 92 49 149 95 50 150 48 50 151 94 50 152 70 51 153 78 51 154 94 51 155 97 52 156 98 52 157 96 52 158 99 53 159 100 53 160 98 53 161 101 54 162 102 54 163 100 54 164 103 55 165 104 55 166 102 55 167 105 56 168 106 56 169 104 56 170 107 57 171 108 57 172 106 57 173 109 58 174 110 58 175 108 58 176 111 59 177 112 59 178 110 59 179 113 60 180 114 60 181 112 60 182 115 61 183 116 61 184 114 61 185 117 62 186 118 62 187 116 62 188 119 63 189 120 63 190 118 63 191 121 64 192 122 64 193 120 64 194 123 65 195 124 65 196 122 65 197 125 66 198 126 66 199 124 66 200 127 67 201 128 67 202 126 67 203 129 68 204 130 68 205 128 68 206 131 69 207 132 69 208 130 69 209 133 70 210 134 70 211 132 70 212 135 71 213 136 71 214 134 71 215 137 72 216 138 72 217 136 72 218 139 73 219 140 73 220 138 73 221 117 74 222 109 74 223 101 74 224 141 75 225 142 75 226 140 75 227 143 76 228 96 76 229 142 76 230 118 77 231 126 77 232 142 77 233 1 222 666 3 222 667 2 222 668 3 223 669 5 223 670 4 223 671 5 224 672 7 224 673 6 224 674 7 225 675 9 225 676 8 225 677 9 226 678 11 226 679 10 226 680 11 227 681 13 227 682 12 227 683 13 228 684 15 228 685 14 228 686 15 229 687 17 229 688 16 229 689 17 230 690 19 230 691 18 230 692 19 231 693 21 231 694 20 231 695 21 232 696 23 232 697 22 232 698 23 233 699 25 233 700 24 233 701 25 234 702 27 234 703 26 234 704 27 235 705 29 235 706 28 235 707 29 236 708 31 236 709 30 236 710 31 237 711 33 237 712 32 237 713 33 238 714 35 238 715 34 238 716 34 239 717 35 239 718 37 239 719 36 240 720 37 240 721 39 240 722 38 241 723 39 241 724 41 241 725 41 242 726 43 242 727 42 242 728 43 243 729 45 243 730 44 243 731 5 244 732 3 244 733 1 244 734 1 245 735 47 245 736 45 245 737 45 246 738 43 246 739 41 246 740 41 247 741 39 247 742 37 247 743 37 248 744 35 248 745 33 248 746 33 249 747 31 249 748 29 249 749 29 250 750 27 250 751 25 250 752 25 251 753 23 251 754 21 251 755 21 252 756 19 252 757 17 252 758 17 253 759 15 253 760 21 253 761 15 254 762 13 254 763 21 254 764 13 255 765 11 255 766 9 255 767 9 256 768 7 256 769 5 256 770 5 257 771 1 257 772 45 257 773 45 258 774 41 258 775 5 258 776 41 259 777 37 259 778 5 259 779 37 260 780 33 260 781 21 260 782 33 261 783 29 261 784 21 261 785 29 262 786 25 262 787 21 262 788 13 263 789 9 263 790 21 263 791 9 264 792 5 264 793 21 264 794 45 265 795 47 265 796 46 265 797 47 266 798 1 266 799 0 266 800 46 267 801 0 267 802 2 267 803 2 268 804 4 268 805 46 268 806 4 269 807 6 269 808 46 269 809 6 270 810 8 270 811 10 270 812 10 271 813 12 271 814 14 271 815 14 272 816 16 272 817 18 272 818 18 273 819 20 273 820 14 273 821 20 274 822 22 274 823 14 274 824 22 275 825 24 275 826 26 275 827 26 276 828 28 276 829 30 276 830 30 277 831 32 277 832 38 277 833 32 278 834 34 278 835 38 278 836 34 279 837 36 279 838 38 279 839 38 280 840 40 280 841 46 280 842 40 281 843 42 281 844 46 281 845 42 282 846 44 282 847 46 282 848 6 283 849 10 283 850 46 283 851 10 284 852 14 284 853 46 284 854 22 285 855 26 285 856 14 285 857 26 286 858 30 286 859 14 286 860 30 287 861 38 287 862 14 287 863 49 288 864 51 288 865 50 288 866 51 289 867 53 289 868 52 289 869 53 290 870 55 290 871 54 290 872 55 291 873 57 291 874 56 291 875 57 292 876 59 292 877 58 292 878 59 293 879 61 293 880 60 293 881 61 294 882 63 294 883 62 294 884 63 295 885 65 295 886 64 295 887 65 296 888 67 296 889 66 296 890 67 297 891 69 297 892 68 297 893 69 298 894 71 298 895 70 298 896 71 299 897 73 299 898 72 299 899 73 300 900 75 300 901 74 300 902 75 301 903 77 301 904 76 301 905 77 302 906 79 302 907 78 302 908 79 303 909 81 303 910 80 303 911 81 304 912 83 304 913 82 304 914 83 305 915 85 305 916 84 305 917 85 306 918 87 306 919 86 306 920 87 307 921 89 307 922 88 307 923 89 308 924 91 308 925 90 308 926 91 309 927 93 309 928 92 309 929 53 310 930 51 310 931 93 310 932 51 311 933 49 311 934 93 311 935 49 312 936 95 312 937 93 312 938 93 313 939 91 313 940 89 313 941 89 314 942 87 314 943 93 314 944 87 315 945 85 315 946 93 315 947 85 316 948 83 316 949 77 316 950 83 317 951 81 317 952 77 317 953 81 318 954 79 318 955 77 318 956 77 319 957 75 319 958 69 319 959 75 320 960 73 320 961 69 320 962 73 321 963 71 321 964 69 321 965 69 322 966 67 322 967 61 322 968 67 323 969 65 323 970 61 323 971 65 324 972 63 324 973 61 324 974 61 325 975 59 325 976 57 325 977 57 326 978 55 326 979 61 326 980 55 327 981 53 327 982 61 327 983 53 328 984 93 328 985 69 328 986 93 329 987 85 329 988 69 329 989 85 330 990 77 330 991 69 330 992 93 331 993 95 331 994 94 331 995 95 332 996 49 332 997 48 332 998 94 333 999 48 333 1000 50 333 1001 50 334 1002 52 334 1003 54 334 1004 54 335 1005 56 335 1006 58 335 1007 58 336 1008 60 336 1009 54 336 1010 60 337 1011 62 337 1012 54 337 1013 62 338 1014 64 338 1015 66 338 1016 66 339 1017 68 339 1018 62 339 1019 68 340 1020 70 340 1021 62 340 1022 70 341 1023 72 341 1024 74 341 1025 74 342 1026 76 342 1027 78 342 1028 78 343 1029 80 343 1030 82 343 1031 82 344 1032 84 344 1033 86 344 1034 86 345 1035 88 345 1036 90 345 1037 90 346 1038 92 346 1039 94 346 1040 94 347 1041 50 347 1042 54 347 1043 70 348 1044 74 348 1045 78 348 1046 78 349 1047 82 349 1048 94 349 1049 82 350 1050 86 350 1051 94 350 1052 86 351 1053 90 351 1054 94 351 1055 94 352 1056 54 352 1057 62 352 1058 62 353 1059 70 353 1060 94 353 1061 97 354 1062 99 354 1063 98 354 1064 99 355 1065 101 355 1066 100 355 1067 101 356 1068 103 356 1069 102 356 1070 103 357 1071 105 357 1072 104 357 1073 105 358 1074 107 358 1075 106 358 1076 107 359 1077 109 359 1078 108 359 1079 109 360 1080 111 360 1081 110 360 1082 111 361 1083 113 361 1084 112 361 1085 113 362 1086 115 362 1087 114 362 1088 115 363 1089 117 363 1090 116 363 1091 117 364 1092 119 364 1093 118 364 1094 119 365 1095 121 365 1096 120 365 1097 121 366 1098 123 366 1099 122 366 1100 123 367 1101 125 367 1102 124 367 1103 125 368 1104 127 368 1105 126 368 1106 127 369 1107 129 369 1108 128 369 1109 129 370 1110 131 370 1111 130 370 1112 131 371 1113 133 371 1114 132 371 1115 133 372 1116 135 372 1117 134 372 1118 135 373 1119 137 373 1120 136 373 1121 137 374 1122 139 374 1123 138 374 1124 139 375 1125 141 375 1126 140 375 1127 101 376 1128 99 376 1129 97 376 1130 97 377 1131 143 377 1132 101 377 1133 143 378 1134 141 378 1135 101 378 1136 141 379 1137 139 379 1138 137 379 1139 137 380 1140 135 380 1141 141 380 1142 135 381 1143 133 381 1144 141 381 1145 133 382 1146 131 382 1147 125 382 1148 131 383 1149 129 383 1150 125 383 1151 129 384 1152 127 384 1153 125 384 1154 125 385 1155 123 385 1156 121 385 1157 121 386 1158 119 386 1159 125 386 1160 119 387 1161 117 387 1162 125 387 1163 117 388 1164 115 388 1165 113 388 1166 113 389 1167 111 389 1168 117 389 1169 111 390 1170 109 390 1171 117 390 1172 109 391 1173 107 391 1174 105 391 1175 105 392 1176 103 392 1177 109 392 1178 103 393 1179 101 393 1180 109 393 1181 101 394 1182 141 394 1183 117 394 1184 141 395 1185 133 395 1186 117 395 1187 133 396 1188 125 396 1189 117 396 1190 141 397 1191 143 397 1192 142 397 1193 143 398 1194 97 398 1195 96 398 1196 142 399 1197 96 399 1198 98 399 1199 98 400 1200 100 400 1201 102 400 1202 102 401 1203 104 401 1204 106 401 1205 106 402 1206 108 402 1207 102 402 1208 108 403 1209 110 403 1210 102 403 1211 110 404 1212 112 404 1213 114 404 1214 114 405 1215 116 405 1216 110 405 1217 116 406 1218 118 406 1219 110 406 1220 118 407 1221 120 407 1222 122 407 1223 122 408 1224 124 408 1225 126 408 1226 126 409 1227 128 409 1228 130 409 1229 130 410 1230 132 410 1231 134 410 1232 134 411 1233 136 411 1234 138 411 1235 138 412 1236 140 412 1237 142 412 1238 142 413 1239 98 413 1240 102 413 1241 118 414 1242 122 414 1243 126 414 1244 126 415 1245 130 415 1246 142 415 1247 130 416 1248 134 416 1249 142 416 1250 134 417 1251 138 417 1252 142 417 1253 142 418 1254 102 418 1255 110 418 1256 110 419 1257 118 419 1258 142 419 1259</p>
        </triangles>
        <triangles material="Mat_Roller-material" count="480">
          <input semantic="VERTEX" source="#Mesh_wheel_left_002-mesh-vertices" offset="0"/>
          <input semantic="NORMAL" source="#Mesh_wheel_left_002-mesh-normals" offset="1"/>
          <input semantic="TEXCOORD" source="#Mesh_wheel_left_002-mesh-map-0" offset="2" set="0"/>
          <p>145 78 234 146 78 235 144 78 236 147 79 237 148 79 238 146 79 239 149 80 240 150 80 241 148 80 242 151 81 243 152 81 244 150 81 245 152 82 246 155 82 247 154 82 248 154 83 249 157 83 250 156 83 251 156 84 252 159 84 253 158 84 254 158 85 255 161 85 256 160 85 257 160 86 258 163 86 259 162 86 260 162 87 261 165 87 262 164 87 263 164 88 264 167 88 265 166 88 266 166 89 267 169 89 268 168 89 269 169 90 270 170 90 271 168 90 272 171 91 273 172 91 274 170 91 275 153 92 276 151 92 277 149 92 278 173 93 279 174 93 280 172 93 281 175 94 282 144 94 283 174 94 284 170 95 285 172 95 286 166 95 287 177 96 288 178 96 289 176 96 290 179 97 291 180 97 292 178 97 293 181 98 294 182 98 295 180 98 296 183 99 297 184 99 298 182 99 299 184 100 300 187 100 301 186 100 302 186 101 303 189 101 304 188 101 305 188 102 306 191 102 307 190 102 308 190 103 309 193 103 310 192 103 311 192 104 312 195 104 313 194 104 314 194 105 315 197 105 316 196 105 317 196 106 318 199 106 319 198 106 320 198 107 321 201 107 322 200 107 323 201 108 324 202 108 325 200 108 326 203 109 327 204 109 328 202 109 329 185 110 330 183 110 331 181 110 332 205 111 333 206 111 334 204 111 335 207 112 336 176 112 337 206 112 338 202 113 339 204 113 340 198 113 341 209 114 342 210 114 343 208 114 344 211 115 345 212 115 346 210 115 347 213 116 348 214 116 349 212 116 350 215 117 351 216 117 352 214 117 353 216 118 354 219 118 355 218 118 356 218 119 357 221 119 358 220 119 359 220 120 360 223 120 361 222 120 362 222 121 363 225 121 364 224 121 365 224 122 366 227 122 367 226 122 368 226 123 369 229 123 370 228 123 371 228 124 372 231 124 373 230 124 374 230 125 375 233 125 376 232 125 377 233 126 378 234 126 379 232 126 380 235 127 381 236 127 382 234 127 383 217 128 384 215 128 385 213 128 386 237 129 387 238 129 388 236 129 389 239 130 390 208 130 391 238 130 392 234 131 393 236 131 394 230 131 395 241 132 396 242 132 397 240 132 398 243 133 399 244 133 400 242 133 401 245 134 402 246 134 403 244 134 404 247 135 405 248 135 406 246 135 407 248 136 408 251 136 409 250 136 410 250 137 411 253 137 412 252 137 413 252 138 414 255 138 415 254 138 416 254 139 417 257 139 418 256 139 419 256 140 420 259 140 421 258 140 422 258 141 423 261 141 424 260 141 425 260 142 426 263 142 427 262 142 428 262 143 429 265 143 430 264 143 431 265 144 432 266 144 433 264 144 434 267 145 435 268 145 436 266 145 437 249 146 438 247 146 439 245 146 440 269 147 441 270 147 442 268 147 443 271 148 444 240 148 445 270 148 446 266 149 447 268 149 448 262 149 449 273 150 450 274 150 451 272 150 452 275 151 453 276 151 454 274 151 455 277 152 456 278 152 457 276 152 458 279 153 459 280 153 460 278 153 461 280 154 462 283 154 463 282 154 464 282 155 465 285 155 466 284 155 467 284 156 468 287 156 469 286 156 470 286 157 471 289 157 472 288 157 473 288 158 474 291 158 475 290 158 476 290 159 477 293 159 478 292 159 479 292 160 480 295 160 481 294 160 482 294 161 483 297 161 484 296 161 485 297 162 486 298 162 487 296 162 488 299 163 489 300 163 490 298 163 491 281 164 492 279 164 493 277 164 494 301 165 495 302 165 496 300 165 497 303 166 498 272 166 499 302 166 500 298 167 501 300 167 502 294 167 503 305 168 504 306 168 505 304 168 506 307 169 507 308 169 508 306 169 509 309 170 510 310 170 511 308 170 512 311 171 513 312 171 514 310 171 515 312 172 516 315 172 517 314 172 518 314 173 519 317 173 520 316 173 521 316 174 522 319 174 523 318 174 524 318 175 525 321 175 526 320 175 527 320 176 528 323 176 529 322 176 530 322 177 531 325 177 532 324 177 533 324 178 534 327 178 535 326 178 536 326 179 537 329 179 538 328 179 539 329 180 540 330 180 541 328 180 542 331 181 543 332 181 544 330 181 545 313 182 546 311 182 547 309 182 548 333 183 549 334 183 550 332 183 551 335 184 552 304 184 553 334 184 554 330 185 555 332 185 556 326 185 557 337 186 558 338 186 559 336 186 560 339 187 561 340 187 562 338 187 563 341 188 564 342 188 565 340 188 566 343 189 567 344 189 568 342 189 569 344 190 570 347 190 571 346 190 572 346 191 573 349 191 574 348 191 575 348 192 576 351 192 577 350 192 578 350 193 579 353 193 580 352 193 581 352 194 582 355 194 583 354 194 584 354 195 585 357 195 586 356 195 587 356 196 588 359 196 589 358 196 590 358 197 591 361 197 592 360 197 593 361 198 594 362 198 595 360 198 596 363 199 597 364 199 598 362 199 599 345 200 600 343 200 601 341 200 602 365 201 603 366 201 604 364 201 605 367 202 606 336 202 607 366 202 608 362 203 609 364 203 610 358 203 611 369 204 612 370 204 613 368 204 614 371 205 615 372 205 616 370 205 617 373 206 618 374 206 619 372 206 620 375 207 621 376 207 622 374 207 623 376 208 624 379 208 625 378 208 626 378 209 627 381 209 628 380 209 629 380 210 630 383 210 631 382 210 632 382 211 633 385 211 634 384 211 635 384 212 636 387 212 637 386 212 638 386 213 639 389 213 640 388 213 641 388 214 642 391 214 643 390 214 644 390 215 645 393 215 646 392 215 647 393 216 648 394 216 649 392 216 650 395 217 651 396 217 652 394 217 653 375 218 654 373 218 655 381 218 656 397 219 657 398 219 658 396 219 659 399 220 660 368 220 661 398 220 662 394 221 663 396 221 664 390 221 665 145 420 1260 147 420 1261 146 420 1262 147 421 1263 149 421 1264 148 421 1265 149 422 1266 151 422 1267 150 422 1268 151 423 1269 153 423 1270 152 423 1271 152 424 1272 153 424 1273 155 424 1274 154 425 1275 155 425 1276 157 425 1277 156 426 1278 157 426 1279 159 426 1280 158 427 1281 159 427 1282 161 427 1283 160 428 1284 161 428 1285 163 428 1286 162 429 1287 163 429 1288 165 429 1289 164 430 1290 165 430 1291 167 430 1292 166 431 1293 167 431 1294 169 431 1295 169 432 1296 171 432 1297 170 432 1298 171 433 1299 173 433 1300 172 433 1301 149 434 1302 147 434 1303 159 434 1304 147 435 1305 145 435 1306 161 435 1307 145 436 1308 175 436 1309 163 436 1310 175 437 1311 173 437 1312 165 437 1313 173 438 1314 171 438 1315 169 438 1316 169 439 1317 167 439 1318 173 439 1319 167 440 1320 165 440 1321 173 440 1322 165 441 1323 163 441 1324 175 441 1325 163 442 1326 161 442 1327 145 442 1328 161 443 1329 159 443 1330 147 443 1331 159 444 1332 157 444 1333 149 444 1334 157 445 1335 155 445 1336 149 445 1337 155 446 1338 153 446 1339 149 446 1340 173 447 1341 175 447 1342 174 447 1343 175 448 1344 145 448 1345 144 448 1346 174 449 1347 144 449 1348 160 449 1349 144 450 1350 146 450 1351 158 450 1352 146 451 1353 148 451 1354 158 451 1355 148 452 1356 150 452 1357 156 452 1358 158 453 1359 148 453 1360 156 453 1361 150 454 1362 152 454 1363 154 454 1364 154 455 1365 156 455 1366 150 455 1367 158 456 1368 160 456 1369 144 456 1370 160 457 1371 162 457 1372 174 457 1373 162 458 1374 164 458 1375 174 458 1376 164 459 1377 166 459 1378 172 459 1379 174 460 1380 164 460 1381 172 460 1382 166 461 1383 168 461 1384 170 461 1385 177 462 1386 179 462 1387 178 462 1388 179 463 1389 181 463 1390 180 463 1391 181 464 1392 183 464 1393 182 464 1394 183 465 1395 185 465 1396 184 465 1397 184 466 1398 185 466 1399 187 466 1400 186 467 1401 187 467 1402 189 467 1403 188 468 1404 189 468 1405 191 468 1406 190 469 1407 191 469 1408 193 469 1409 192 470 1410 193 470 1411 195 470 1412 194 471 1413 195 471 1414 197 471 1415 196 472 1416 197 472 1417 199 472 1418 198 473 1419 199 473 1420 201 473 1421 201 474 1422 203 474 1423 202 474 1424 203 475 1425 205 475 1426 204 475 1427 181 476 1428 179 476 1429 191 476 1430 179 477 1431 177 477 1432 193 477 1433 177 478 1434 207 478 1435 195 478 1436 207 479 1437 205 479 1438 197 479 1439 205 480 1440 203 480 1441 197 480 1442 203 481 1443 201 481 1444 197 481 1445 201 482 1446 199 482 1447 197 482 1448 197 483 1449 195 483 1450 207 483 1451 195 484 1452 193 484 1453 177 484 1454 193 485 1455 191 485 1456 179 485 1457 191 486 1458 189 486 1459 181 486 1460 189 487 1461 187 487 1462 181 487 1463 187 488 1464 185 488 1465 181 488 1466 205 489 1467 207 489 1468 206 489 1469 207 490 1470 177 490 1471 176 490 1472 206 491 1473 176 491 1474 192 491 1475 176 492 1476 178 492 1477 190 492 1478 178 493 1479 180 493 1480 190 493 1481 180 494 1482 182 494 1483 188 494 1484 190 495 1485 180 495 1486 188 495 1487 182 496 1488 184 496 1489 186 496 1490 186 497 1491 188 497 1492 182 497 1493 190 498 1494 192 498 1495 176 498 1496 192 499 1497 194 499 1498 206 499 1499 194 500 1500 196 500 1501 206 500 1502 196 501 1503 198 501 1504 204 501 1505 206 502 1506 196 502 1507 204 502 1508 198 503 1509 200 503 1510 202 503 1511 209 504 1512 211 504 1513 210 504 1514 211 505 1515 213 505 1516 212 505 1517 213 506 1518 215 506 1519 214 506 1520 215 507 1521 217 507 1522 216 507 1523 216 508 1524 217 508 1525 219 508 1526 218 509 1527 219 509 1528 221 509 1529 220 510 1530 221 510 1531 223 510 1532 222 511 1533 223 511 1534 225 511 1535 224 512 1536 225 512 1537 227 512 1538 226 513 1539 227 513 1540 229 513 1541 228 514 1542 229 514 1543 231 514 1544 230 515 1545 231 515 1546 233 515 1547 233 516 1548 235 516 1549 234 516 1550 235 517 1551 237 517 1552 236 517 1553 213 518 1554 211 518 1555 223 518 1556 211 519 1557 209 519 1558 225 519 1559 209 520 1560 239 520 1561 227 520 1562 239 521 1563 237 521 1564 229 521 1565 237 522 1566 235 522 1567 233 522 1568 233 523 1569 231 523 1570 237 523 1571 231 524 1572 229 524 1573 237 524 1574 229 525 1575 227 525 1576 239 525 1577 227 526 1578 225 526 1579 209 526 1580 225 527 1581 223 527 1582 211 527 1583 223 528 1584 221 528 1585 213 528 1586 221 529 1587 219 529 1588 213 529 1589 219 530 1590 217 530 1591 213 530 1592 237 531 1593 239 531 1594 238 531 1595 239 532 1596 209 532 1597 208 532 1598 238 533 1599 208 533 1600 224 533 1601 208 534 1602 210 534 1603 222 534 1604 210 535 1605 212 535 1606 222 535 1607 212 536 1608 214 536 1609 220 536 1610 222 537 1611 212 537 1612 220 537 1613 214 538 1614 216 538 1615 218 538 1616 218 539 1617 220 539 1618 214 539 1619 222 540 1620 224 540 1621 208 540 1622 224 541 1623 226 541 1624 238 541 1625 226 542 1626 228 542 1627 238 542 1628 228 543 1629 230 543 1630 236 543 1631 238 544 1632 228 544 1633 236 544 1634 230 545 1635 232 545 1636 234 545 1637 241 546 1638 243 546 1639 242 546 1640 243 547 1641 245 547 1642 244 547 1643 245 548 1644 247 548 1645 246 548 1646 247 549 1647 249 549 1648 248 549 1649 248 550 1650 249 550 1651 251 550 1652 250 551 1653 251 551 1654 253 551 1655 252 552 1656 253 552 1657 255 552 1658 254 553 1659 255 553 1660 257 553 1661 256 554 1662 257 554 1663 259 554 1664 258 555 1665 259 555 1666 261 555 1667 260 556 1668 261 556 1669 263 556 1670 262 557 1671 263 557 1672 265 557 1673 265 558 1674 267 558 1675 266 558 1676 267 559 1677 269 559 1678 268 559 1679 245 560 1680 243 560 1681 255 560 1682 243 561 1683 241 561 1684 257 561 1685 241 562 1686 271 562 1687 259 562 1688 271 563 1689 269 563 1690 261 563 1691 269 564 1692 267 564 1693 261 564 1694 267 565 1695 265 565 1696 261 565 1697 265 566 1698 263 566 1699 261 566 1700 261 567 1701 259 567 1702 271 567 1703 259 568 1704 257 568 1705 241 568 1706 257 569 1707 255 569 1708 243 569 1709 255 570 1710 253 570 1711 245 570 1712 253 571 1713 251 571 1714 245 571 1715 251 572 1716 249 572 1717 245 572 1718 269 573 1719 271 573 1720 270 573 1721 271 574 1722 241 574 1723 240 574 1724 270 575 1725 240 575 1726 256 575 1727 240 576 1728 242 576 1729 254 576 1730 242 577 1731 244 577 1732 254 577 1733 244 578 1734 246 578 1735 252 578 1736 254 579 1737 244 579 1738 252 579 1739 246 580 1740 248 580 1741 250 580 1742 250 581 1743 252 581 1744 246 581 1745 254 582 1746 256 582 1747 240 582 1748 256 583 1749 258 583 1750 270 583 1751 258 584 1752 260 584 1753 270 584 1754 260 585 1755 262 585 1756 268 585 1757 270 586 1758 260 586 1759 268 586 1760 262 587 1761 264 587 1762 266 587 1763 273 588 1764 275 588 1765 274 588 1766 275 589 1767 277 589 1768 276 589 1769 277 590 1770 279 590 1771 278 590 1772 279 591 1773 281 591 1774 280 591 1775 280 592 1776 281 592 1777 283 592 1778 282 593 1779 283 593 1780 285 593 1781 284 594 1782 285 594 1783 287 594 1784 286 595 1785 287 595 1786 289 595 1787 288 596 1788 289 596 1789 291 596 1790 290 597 1791 291 597 1792 293 597 1793 292 598 1794 293 598 1795 295 598 1796 294 599 1797 295 599 1798 297 599 1799 297 600 1800 299 600 1801 298 600 1802 299 601 1803 301 601 1804 300 601 1805 277 602 1806 275 602 1807 287 602 1808 275 603 1809 273 603 1810 289 603 1811 273 604 1812 303 604 1813 291 604 1814 303 605 1815 301 605 1816 293 605 1817 301 606 1818 299 606 1819 297 606 1820 297 607 1821 295 607 1822 301 607 1823 295 608 1824 293 608 1825 301 608 1826 293 609 1827 291 609 1828 303 609 1829 291 610 1830 289 610 1831 273 610 1832 289 611 1833 287 611 1834 275 611 1835 287 612 1836 285 612 1837 277 612 1838 285 613 1839 283 613 1840 277 613 1841 283 614 1842 281 614 1843 277 614 1844 301 615 1845 303 615 1846 302 615 1847 303 616 1848 273 616 1849 272 616 1850 302 617 1851 272 617 1852 288 617 1853 272 618 1854 274 618 1855 286 618 1856 274 619 1857 276 619 1858 286 619 1859 276 620 1860 278 620 1861 284 620 1862 286 621 1863 276 621 1864 284 621 1865 278 622 1866 280 622 1867 282 622 1868 282 623 1869 284 623 1870 278 623 1871 286 624 1872 288 624 1873 272 624 1874 288 625 1875 290 625 1876 302 625 1877 290 626 1878 292 626 1879 302 626 1880 292 627 1881 294 627 1882 300 627 1883 302 628 1884 292 628 1885 300 628 1886 294 629 1887 296 629 1888 298 629 1889 305 630 1890 307 630 1891 306 630 1892 307 631 1893 309 631 1894 308 631 1895 309 632 1896 311 632 1897 310 632 1898 311 633 1899 313 633 1900 312 633 1901 312 634 1902 313 634 1903 315 634 1904 314 635 1905 315 635 1906 317 635 1907 316 636 1908 317 636 1909 319 636 1910 318 637 1911 319 637 1912 321 637 1913 320 638 1914 321 638 1915 323 638 1916 322 639 1917 323 639 1918 325 639 1919 324 640 1920 325 640 1921 327 640 1922 326 641 1923 327 641 1924 329 641 1925 329 642 1926 331 642 1927 330 642 1928 331 643 1929 333 643 1930 332 643 1931 309 644 1932 307 644 1933 319 644 1934 307 645 1935 305 645 1936 321 645 1937 305 646 1938 335 646 1939 323 646 1940 335 647 1941 333 647 1942 325 647 1943 333 648 1944 331 648 1945 325 648 1946 331 649 1947 329 649 1948 325 649 1949 329 650 1950 327 650 1951 325 650 1952 325 651 1953 323 651 1954 335 651 1955 323 652 1956 321 652 1957 305 652 1958 321 653 1959 319 653 1960 307 653 1961 319 654 1962 317 654 1963 309 654 1964 317 655 1965 315 655 1966 309 655 1967 315 656 1968 313 656 1969 309 656 1970 333 657 1971 335 657 1972 334 657 1973 335 658 1974 305 658 1975 304 658 1976 334 659 1977 304 659 1978 320 659 1979 304 660 1980 306 660 1981 318 660 1982 306 661 1983 308 661 1984 318 661 1985 308 662 1986 310 662 1987 316 662 1988 318 663 1989 308 663 1990 316 663 1991 310 664 1992 312 664 1993 314 664 1994 314 665 1995 316 665 1996 310 665 1997 318 666 1998 320 666 1999 304 666 2000 320 667 2001 322 667 2002 334 667 2003 322 668 2004 324 668 2005 334 668 2006 324 669 2007 326 669 2008 332 669 2009 334 670 2010 324 670 2011 332 670 2012 326 671 2013 328 671 2014 330 671 2015 337 672 2016 339 672 2017 338 672 2018 339 673 2019 341 673 2020 340 673 2021 341 674 2022 343 674 2023 342 674 2024 343 675 2025 345 675 2026 344 675 2027 344 676 2028 345 676 2029 347 676 2030 346 677 2031 347 677 2032 349 677 2033 348 678 2034 349 678 2035 351 678 2036 350 679 2037 351 679 2038 353 679 2039 352 680 2040 353 680 2041 355 680 2042 354 681 2043 355 681 2044 357 681 2045 356 682 2046 357 682 2047 359 682 2048 358 683 2049 359 683 2050 361 683 2051 361 684 2052 363 684 2053 362 684 2054 363 685 2055 365 685 2056 364 685 2057 341 686 2058 339 686 2059 351 686 2060 339 687 2061 337 687 2062 353 687 2063 337 688 2064 367 688 2065 355 688 2066 367 689 2067 365 689 2068 357 689 2069 365 690 2070 363 690 2071 357 690 2072 363 691 2073 361 691 2074 357 691 2075 361 692 2076 359 692 2077 357 692 2078 357 693 2079 355 693 2080 367 693 2081 355 694 2082 353 694 2083 337 694 2084 353 695 2085 351 695 2086 339 695 2087 351 696 2088 349 696 2089 341 696 2090 349 697 2091 347 697 2092 341 697 2093 347 698 2094 345 698 2095 341 698 2096 365 699 2097 367 699 2098 366 699 2099 367 700 2100 337 700 2101 336 700 2102 366 701 2103 336 701 2104 352 701 2105 336 702 2106 338 702 2107 350 702 2108 338 703 2109 340 703 2110 350 703 2111 340 704 2112 342 704 2113 348 704 2114 350 705 2115 340 705 2116 348 705 2117 342 706 2118 344 706 2119 346 706 2120 346 707 2121 348 707 2122 342 707 2123 350 708 2124 352 708 2125 336 708 2126 352 709 2127 354 709 2128 366 709 2129 354 710 2130 356 710 2131 366 710 2132 356 711 2133 358 711 2134 364 711 2135 366 712 2136 356 712 2137 364 712 2138 358 713 2139 360 713 2140 362 713 2141 369 714 2142 371 714 2143 370 714 2144 371 715 2145 373 715 2146 372 715 2147 373 716 2148 375 716 2149 374 716 2150 375 717 2151 377 717 2152 376 717 2153 376 718 2154 377 718 2155 379 718 2156 378 719 2157 379 719 2158 381 719 2159 380 720 2160 381 720 2161 383 720 2162 382 721 2163 383 721 2164 385 721 2165 384 722 2166 385 722 2167 387 722 2168 386 723 2169 387 723 2170 389 723 2171 388 724 2172 389 724 2173 391 724 2174 390 725 2175 391 725 2176 393 725 2177 393 726 2178 395 726 2179 394 726 2180 395 727 2181 397 727 2182 396 727 2183 373 728 2184 371 728 2185 383 728 2186 371 729 2187 369 729 2188 385 729 2189 369 730 2190 399 730 2191 387 730 2192 399 731 2193 397 731 2194 389 731 2195 397 732 2196 395 732 2197 393 732 2198 393 733 2199 391 733 2200 397 733 2201 391 734 2202 389 734 2203 397 734 2204 389 735 2205 387 735 2206 399 735 2207 387 736 2208 385 736 2209 369 736 2210 385 737 2211 383 737 2212 371 737 2213 383 738 2214 381 738 2215 373 738 2216 381 739 2217 379 739 2218 377 739 2219 377 740 2220 375 740 2221 381 740 2222 397 741 2223 399 741 2224 398 741 2225 399 742 2226 369 742 2227 368 742 2228 398 743 2229 368 743 2230 384 743 2231 368 744 2232 370 744 2233 382 744 2234 370 745 2235 372 745 2236 382 745 2237 372 746 2238 374 746 2239 380 746 2240 382 747 2241 372 747 2242 380 747 2243 374 748 2244 376 748 2245 378 748 2246 378 749 2247 380 749 2248 374 749 2249 382 750 2250 384 750 2251 368 750 2252 384 751 2253 386 751 2254 398 751 2255 386 752 2256 388 752 2257 398 752 2258 388 753 2259 390 753 2260 396 753 2261 398 754 2262 388 754 2263 396 754 2264 390 755 2265 392 755 2266 394 755 2267</p>
        </triangles>
      </mesh>
    </geometry>
  </library_geometries>
  <library_visual_scenes>
    <visual_scene id="Scene" name="Scene">
      <node id="TMP_wheel_left" name="TMP_wheel_left" type="NODE">
        <matrix sid="transform">1 0 0 0 0 1 0 0 0 0 1 0 0 0 0 1</matrix>
        <instance_geometry url="#Mesh_wheel_left_002-mesh" name="TMP_wheel_left">
          <bind_material>
            <technique_common>
              <instance_material symbol="Mat_WheelHub-material" target="#Mat_WheelHub-material">
                <bind_vertex_input semantic="UV 贴图" input_semantic="TEXCOORD" input_set="0"/>
              </instance_material>
              <instance_material symbol="Mat_Roller-material" target="#Mat_Roller-material">
                <bind_vertex_input semantic="UV 贴图" input_semantic="TEXCOORD" input_set="0"/>
              </instance_material>
            </technique_common>
          </bind_material>
        </instance_geometry>
      </node>
    </visual_scene>
  </library_visual_scenes>
  <scene>
    <instance_visual_scene url="#Scene"/>
  </scene>
</COLLADA>